<?xml version="1.0" encoding="UTF-8"?>
<!-- Generator: CustomSymbols v2.6.2.41 by @serious_bret https://bretlester.com/app_content/CustomSymbols/ -->
<!-- Guides: Left/Right -0.006/-0.006 Cap/Base -0.009/-0.009 -->
<!-- Settings: RefScale 1.0 Min/Max Stroke Scales 0.5/2.21 -->
<!DOCTYPE svg
PUBLIC "-//W3C//DTD SVG 1.1//EN"
       "http://www.w3.org/Graphics/SVG/1.1/DTD/svg11.dtd">
<svg version="1.1" xmlns="http://www.w3.org/2000/svg" xmlns:xlink="http://www.w3.org/1999/xlink" width="3300" height="2200">
<![CDATA[<?xml version="1.0" encoding="UTF-8"?>
<svg id="Layer_2" data-name="Layer 2" xmlns="http://www.w3.org/2000/svg" viewBox="0 0 466.29 165.26">
  <g id="Layer_1-2" data-name="Layer 1">
    <g>
      <path d="M43.9,0V15.67H19.87V150.05h23.9v15.16H0V0H43.9Z"/>
      <path d="M465.94,0c.12,1.65,.33,3.3,.33,4.94,.02,51.84,.02,103.68,0,155.52,0,1.47-.13,2.94-.22,4.8h-43.63v-14.95h24.2V16.06h-24.58V0C436.67,0,451.31,0,465.94,0Z"/>
      <path d="M88.25,132.84V9.12c5.59,0,11.03-.27,16.4,.18,1.49,.12,3.1,2.17,4.16,3.68,19.33,27.54,38.58,55.14,57.87,82.72,.99,1.42,2.09,2.77,3.81,5.03V9.5h18.96v123.69c-5.35,0-10.94,.23-16.47-.17-1.32-.1-2.7-2.15-3.69-3.56-19.3-27.56-38.55-55.17-57.81-82.76-.93-1.33-1.92-2.6-3.58-4.83v90.98h-19.65Z"/>
      <path d="M228.55,133.02h-19.41V9.46c1.35-.12,2.76-.35,4.18-.35,22.94-.02,45.87,.07,68.81-.1,3.78-.03,5.03,1.11,4.76,4.79-.27,3.78-.06,7.59-.06,12.02h-58.12v38.83h52.85v16.77h-53v51.6Z"/>
      <path d="M329.45,26.01h-37.68V9.5h95.04V25.86h-37.57v107.02h-19.78V26.01Z"/>
    </g>
  </g>
</svg>]]>
 <g id="Notes">
  <rect height="2200" id="artboard" style="fill:white;opacity:1" width="3300" x="0" y="0"/>
  <line id="" style="fill:none;stroke:black;opacity:1;stroke-width:0.5;" x1="263" x2="3036" y1="292" y2="292"/>
  <text id="reftext1" style="stroke:none;fill:black;font-family:-apple-system,&quot;SF Pro Display&quot;,&quot;SF Pro Text&quot;,Helvetica,sans-serif;font-weight:bold;" transform="matrix(1 0 0 1 263 322)">Weight/Scale Variations</text>
  <text id="reftext2" style="stroke:none;fill:black;font-family:-apple-system,&quot;SF Pro Display&quot;,&quot;SF Pro Text&quot;,Helvetica,sans-serif;text-anchor:middle;" transform="matrix(1 0 0 1 559.711 322)">Ultralight</text>
  <text style="stroke:none;fill:black;font-family:-apple-system,&quot;SF Pro Display&quot;,&quot;SF Pro Text&quot;,Helvetica,sans-serif;text-anchor:middle;" transform="matrix(1 0 0 1 856.422 322)">Thin</text>
  <text style="stroke:none;fill:black;font-family:-apple-system,&quot;SF Pro Display&quot;,&quot;SF Pro Text&quot;,Helvetica,sans-serif;text-anchor:middle;" transform="matrix(1 0 0 1 1153.13 322)">Light</text>
  <text style="stroke:none;fill:black;font-family:-apple-system,&quot;SF Pro Display&quot;,&quot;SF Pro Text&quot;,Helvetica,sans-serif;text-anchor:middle;" transform="matrix(1 0 0 1 1449.84 322)">Regular</text>
  <text style="stroke:none;fill:black;font-family:-apple-system,&quot;SF Pro Display&quot;,&quot;SF Pro Text&quot;,Helvetica,sans-serif;text-anchor:middle;" transform="matrix(1 0 0 1 1746.56 322)">Medium</text>
  <text style="stroke:none;fill:black;font-family:-apple-system,&quot;SF Pro Display&quot;,&quot;SF Pro Text&quot;,Helvetica,sans-serif;text-anchor:middle;" transform="matrix(1 0 0 1 2043.27 322)">Semibold</text>
  <text style="stroke:none;fill:black;font-family:-apple-system,&quot;SF Pro Display&quot;,&quot;SF Pro Text&quot;,Helvetica,sans-serif;text-anchor:middle;" transform="matrix(1 0 0 1 2339.98 322)">Bold</text>
  <text style="stroke:none;fill:black;font-family:-apple-system,&quot;SF Pro Display&quot;,&quot;SF Pro Text&quot;,Helvetica,sans-serif;text-anchor:middle;" transform="matrix(1 0 0 1 2636.69 322)">Heavy</text>
  <text style="stroke:none;fill:black;font-family:-apple-system,&quot;SF Pro Display&quot;,&quot;SF Pro Text&quot;,Helvetica,sans-serif;text-anchor:middle;" transform="matrix(1 0 0 1 2933.4 322)">Black</text>
  <line id="" style="fill:none;stroke:black;opacity:1;stroke-width:0.5;" x1="263" x2="3036" y1="1903" y2="1903"/>
  <g id="" transform="matrix(1 0 0 1 263 1933)">
   <path d="M9.24805 0.830078C13.5547 0.830078 17.1387-2.74414 17.1387-7.05078C17.1387-11.3574 13.5449-14.9316 9.23828-14.9316C4.94141-14.9316 1.36719-11.3574 1.36719-7.05078C1.36719-2.74414 4.95117 0.830078 9.24805 0.830078ZM9.24805-0.654297C5.70312-0.654297 2.87109-3.49609 2.87109-7.05078C2.87109-10.6055 5.69336-13.4473 9.23828-13.4473C12.793-13.4473 15.6348-10.6055 15.6445-7.05078C15.6543-3.49609 12.8027-0.654297 9.24805-0.654297ZM6.39648-6.31836L8.50586-6.31836L8.50586-4.19922C8.50586-3.75977 8.79883-3.45703 9.22852-3.45703C9.67773-3.45703 9.9707-3.75977 9.9707-4.19922L9.9707-6.31836L12.0996-6.31836C12.5391-6.31836 12.8418-6.61133 12.8418-7.04102C12.8418-7.48047 12.5391-7.7832 12.0996-7.7832L9.9707-7.7832L9.9707-9.89258C9.9707-10.3418 9.67773-10.6445 9.22852-10.6445C8.79883-10.6445 8.50586-10.3418 8.50586-9.89258L8.50586-7.7832L6.39648-7.7832C5.94727-7.7832 5.64453-7.48047 5.64453-7.04102C5.64453-6.61133 5.94727-6.31836 6.39648-6.31836Z"/>
  </g>
  <g id="" transform="matrix(1 0 0 1 281.506 1933)">
   <path d="M11.709 2.91016C17.1582 2.91016 21.6699-1.61133 21.6699-7.05078C21.6699-12.5 17.1484-17.0117 11.6992-17.0117C6.25977-17.0117 1.74805-12.5 1.74805-7.05078C1.74805-1.61133 6.26953 2.91016 11.709 2.91016ZM11.709 1.25C7.09961 1.25 3.41797-2.44141 3.41797-7.05078C3.41797-11.6602 7.08984-15.3516 11.6992-15.3516C16.3086-15.3516 20-11.6602 20.0098-7.05078C20.0195-2.44141 16.3184 1.25 11.709 1.25ZM7.98828-6.23047L10.8789-6.23047L10.8789-3.32031C10.8789-2.83203 11.2109-2.5 11.6895-2.5C12.1777-2.5 12.5195-2.83203 12.5195-3.32031L12.5195-6.23047L15.4297-6.23047C15.918-6.23047 16.25-6.5625 16.25-7.04102C16.25-7.5293 15.918-7.87109 15.4297-7.87109L12.5195-7.87109L12.5195-10.7617C12.5195-11.2695 12.1777-11.6016 11.6895-11.6016C11.2109-11.6016 10.8789-11.2598 10.8789-10.7617L10.8789-7.87109L7.98828-7.87109C7.48047-7.87109 7.14844-7.5293 7.14844-7.04102C7.14844-6.5625 7.49023-6.23047 7.98828-6.23047Z"/>
  </g>
  <g id="" transform="matrix(1 0 0 1 304.924 1933)">
   <path d="M14.9707 5.66406C21.9336 5.66406 27.6953-0.0976562 27.6953-7.05078C27.6953-14.0137 21.9238-19.7754 14.9609-19.7754C8.00781-19.7754 2.25586-14.0137 2.25586-7.05078C2.25586-0.0976562 8.01758 5.66406 14.9707 5.66406ZM14.9707 3.84766C8.93555 3.84766 4.08203-1.01562 4.08203-7.05078C4.08203-13.0957 8.92578-17.9492 14.9609-17.9492C21.0059-17.9492 25.8594-13.0957 25.8691-7.05078C25.8789-1.01562 21.0156 3.84766 14.9707 3.84766ZM10.0586-6.14258L14.0625-6.14258L14.0625-2.12891C14.0625-1.5918 14.4336-1.2207 14.9512-1.2207C15.4883-1.2207 15.8594-1.5918 15.8594-2.12891L15.8594-6.14258L19.8828-6.14258C20.4102-6.14258 20.791-6.51367 20.791-7.03125C20.791-7.56836 20.4199-7.94922 19.8828-7.94922L15.8594-7.94922L15.8594-11.9531C15.8594-12.5098 15.4883-12.8809 14.9512-12.8809C14.4336-12.8809 14.0625-12.5 14.0625-11.9531L14.0625-7.94922L10.0586-7.94922C9.50195-7.94922 9.13086-7.56836 9.13086-7.03125C9.13086-6.51367 9.51172-6.14258 10.0586-6.14258Z"/>
  </g>
  <text style="stroke:none;fill:black;font-family:-apple-system,&quot;SF Pro Display&quot;,&quot;SF Pro Text&quot;,Helvetica,sans-serif;font-weight:bold;" transform="matrix(1 0 0 1 263 1953)">Design Variations</text>
  <text style="stroke:none;fill:black;font-family:-apple-system,&quot;SF Pro Display&quot;,&quot;SF Pro Text&quot;,Helvetica,sans-serif;" transform="matrix(1 0 0 1 263 1971)">Symbols are supported in up to nine weights and three scales.</text>
  <text style="stroke:none;fill:black;font-family:-apple-system,&quot;SF Pro Display&quot;,&quot;SF Pro Text&quot;,Helvetica,sans-serif;" transform="matrix(1 0 0 1 263 1989)">For optimal layout with text and other symbols, vertically align</text>
  <text style="stroke:none;fill:black;font-family:-apple-system,&quot;SF Pro Display&quot;,&quot;SF Pro Text&quot;,Helvetica,sans-serif;" transform="matrix(1 0 0 1 263 2007)">symbols with the adjacent text.</text>
  <line id="" style="fill:none;stroke:#00AEEF;stroke-width:0.5;opacity:1.0;" x1="776" x2="776" y1="1919" y2="1933"/>
  <g id="" transform="matrix(1 0 0 1 776 1933)">
   <path d="M3.31055 0.126953C3.82812 0.126953 4.08203-0.0683594 4.26758-0.605469L5.52734-4.0625L11.2891-4.0625L12.5488-0.605469C12.7344-0.0683594 12.9883 0.126953 13.4961 0.126953C14.0137 0.126953 14.3457-0.185547 14.3457-0.673828C14.3457-0.839844 14.3164-0.986328 14.2383-1.20117L9.6582-13.3887C9.43359-13.9941 9.0332-14.2871 8.4082-14.2871C7.80273-14.2871 7.39258-13.9941 7.17773-13.3984L2.59766-1.19141C2.51953-0.976562 2.49023-0.830078 2.49023-0.664062C2.49023-0.175781 2.80273 0.126953 3.31055 0.126953ZM6.00586-5.53711L8.37891-12.1094L8.42773-12.1094L10.8008-5.53711Z"/>
  </g>
  <line id="" style="fill:none;stroke:#00AEEF;stroke-width:0.5;opacity:1.0;" x1="792.836" x2="792.836" y1="1919" y2="1933"/>
  <text style="stroke:none;fill:black;font-family:-apple-system,&quot;SF Pro Display&quot;,&quot;SF Pro Text&quot;,Helvetica,sans-serif;font-weight:bold;" transform="matrix(1 0 0 1 776 1953)">Margins</text>
  <text style="stroke:none;fill:black;font-family:-apple-system,&quot;SF Pro Display&quot;,&quot;SF Pro Text&quot;,Helvetica,sans-serif;" transform="matrix(1 0 0 1 776 1971)">Leading and trailing margins on the left and right side of each symbol</text>
  <text style="stroke:none;fill:black;font-family:-apple-system,&quot;SF Pro Display&quot;,&quot;SF Pro Text&quot;,Helvetica,sans-serif;" transform="matrix(1 0 0 1 776 1989)">can be adjusted by modifying the x-location of the margin guidelines.</text>
  <text style="stroke:none;fill:black;font-family:-apple-system,&quot;SF Pro Display&quot;,&quot;SF Pro Text&quot;,Helvetica,sans-serif;" transform="matrix(1 0 0 1 776 2007)">Modifications are automatically applied proportionally to all</text>
  <text style="stroke:none;fill:black;font-family:-apple-system,&quot;SF Pro Display&quot;,&quot;SF Pro Text&quot;,Helvetica,sans-serif;" transform="matrix(1 0 0 1 776 2025)">scales and weights.</text>
  <g id="" transform="matrix(1 0 0 1 1289 1933)">
   <path d="M2.8418 1.86523L4.54102 3.57422C5.40039 4.44336 6.38672 4.38477 7.31445 3.35938L17.4902-7.85156C17.7539-7.76367 18.0273-7.7832 18.3398-7.8418L19.4043-8.03711L20.0684-7.36328L20.0293-6.80664C19.9902-6.30859 20.1172-5.92773 20.6055-5.44922L21.3672-4.70703C21.8457-4.22852 22.4609-4.19922 22.9297-4.66797L25.8398-7.58789C26.3086-8.05664 26.2891-8.65234 25.8105-9.13086L25.0391-9.89258C24.5605-10.3711 24.1895-10.5273 23.7109-10.4883L23.1348-10.4395L22.4902-11.0742L22.7344-12.1973C22.8613-12.7637 22.7051-13.2031 22.1191-13.7891L19.9219-15.9766C16.582-19.2969 12.1484-19.2188 9.25781-16.3281C8.83789-15.918 8.80859-15.3418 9.04297-14.9512C9.27734-14.5898 9.73633-14.3555 10.3809-14.5215C11.8457-14.8633 13.3691-14.9219 14.7949-13.9844L14.209-12.5293C14.0137-12.0508 13.9844-11.6504 14.1113-11.2891L3.04688-0.898438C2.06055 0.0195312 1.98242 0.996094 2.8418 1.86523ZM10.752-15.957C13.1836-17.7344 16.4746-17.4316 18.7012-15.2051L21.1328-12.793C21.3672-12.5586 21.4062-12.373 21.3379-12.0312L21.0156-10.5469L22.5195-9.0625L23.5059-9.12109C23.7598-9.13086 23.8379-9.11133 24.0332-8.91602L24.6094-8.33984L22.168-5.89844L21.5918-6.47461C21.3965-6.66992 21.3672-6.74805 21.377-7.01172L21.4453-7.98828L19.9512-9.47266L18.4277-9.21875C18.1055-9.15039 17.959-9.17969 17.7148-9.41406L15.7129-11.416C15.459-11.6504 15.4297-11.8164 15.5859-12.1875L16.4648-14.2773C14.9023-15.7324 12.8711-16.3574 10.8398-15.7617C10.6836-15.7227 10.625-15.8496 10.752-15.957ZM5.27344 2.30469L4.10156 1.14258C3.63281 0.683594 3.74023 0.341797 4.14062-0.0195312L14.9512-10.1953L16.416-8.71094L6.42578 2.27539C6.07422 2.67578 5.74219 2.77344 5.27344 2.30469Z"/>
  </g>
  <text style="stroke:none;fill:black;font-family:-apple-system,&quot;SF Pro Display&quot;,&quot;SF Pro Text&quot;,Helvetica,sans-serif;font-weight:bold;" transform="matrix(1 0 0 1 1289 1953)">Exporting</text>
  <text style="stroke:none;fill:black;font-family:-apple-system,&quot;SF Pro Display&quot;,&quot;SF Pro Text&quot;,Helvetica,sans-serif;" transform="matrix(1 0 0 1 1289 1971)">Symbols should be outlined when exporting to ensure the</text>
  <text style="stroke:none;fill:black;font-family:-apple-system,&quot;SF Pro Display&quot;,&quot;SF Pro Text&quot;,Helvetica,sans-serif;" transform="matrix(1 0 0 1 1289 1989)">design is preserved when submitting to Xcode.</text>
  <text id="template-version" style="stroke:none;fill:black;font-family:-apple-system,&quot;SF Pro Display&quot;,&quot;SF Pro Text&quot;,Helvetica,sans-serif;text-anchor:end;" transform="matrix(1 0 0 1 3036 1933)">Template v.2.0</text>
  <text style="stroke:none;fill:black;font-family:-apple-system,&quot;SF Pro Display&quot;,&quot;SF Pro Text&quot;,Helvetica,sans-serif;text-anchor:end;" transform="matrix(1 0 0 1 3036 1951)">Requires Xcode 12 or greater</text>
  <text style="stroke:none;fill:black;font-family:-apple-system,&quot;SF Pro Display&quot;,&quot;SF Pro Text&quot;,Helvetica,sans-serif;" transform="matrix(1 0 0 1 263 726)">Small</text>
  <text style="stroke:none;fill:black;font-family:-apple-system,&quot;SF Pro Display&quot;,&quot;SF Pro Text&quot;,Helvetica,sans-serif;" transform="matrix(1 0 0 1 263 1156)">Medium</text>
  <text style="stroke:none;fill:black;font-family:-apple-system,&quot;SF Pro Display&quot;,&quot;SF Pro Text&quot;,Helvetica,sans-serif;" transform="matrix(1 0 0 1 263 1586)">Large</text>
 </g>
 <g id="Guides">
  <g id="H-reference" style="fill:#27AAE1;stroke:none;" transform="matrix(1 0 0 1 339 696)">
   <path d="M0.976562 0L3.66211 0L12.9883-24.4629L45.752-24.4629L55.127 0L57.7637 0L30.6152-70.459L28.125-70.459ZM29.3457-67.1387L29.4434-67.1387L44.873-26.709L13.8672-26.709Z"/>
  </g>
  <line id="Baseline-S" style="fill:none;stroke:#27AAE1;opacity:1;stroke-width:0.5;" x1="263" x2="3036" y1="696" y2="696"/>
  <line id="Capline-S" style="fill:none;stroke:#27AAE1;opacity:1;stroke-width:0.5;" x1="263" x2="3036" y1="625.541" y2="625.541"/>
  <g id="H-reference" style="fill:#27AAE1;stroke:none;" transform="matrix(1 0 0 1 339 1126)">
   <path d="M0.976562 0L3.66211 0L12.9883-24.4629L45.752-24.4629L55.127 0L57.7637 0L30.6152-70.459L28.125-70.459ZM29.3457-67.1387L29.4434-67.1387L44.873-26.709L13.8672-26.709Z"/>
  </g>
  <line id="Baseline-M" style="fill:none;stroke:#27AAE1;opacity:1;stroke-width:0.5;" x1="263" x2="3036" y1="1126" y2="1126"/>
  <line id="Capline-M" style="fill:none;stroke:#27AAE1;opacity:1;stroke-width:0.5;" x1="263" x2="3036" y1="1055.54" y2="1055.54"/>
  <g id="H-reference" style="fill:#27AAE1;stroke:none;" transform="matrix(1 0 0 1 339 1556)">
   <path d="M0.976562 0L3.66211 0L12.9883-24.4629L45.752-24.4629L55.127 0L57.7637 0L30.6152-70.459L28.125-70.459ZM29.3457-67.1387L29.4434-67.1387L44.873-26.709L13.8672-26.709Z"/>
  </g>
  <line id="Baseline-L" style="fill:none;stroke:#27AAE1;opacity:1;stroke-width:0.5;" x1="263" x2="3036" y1="1556" y2="1556"/>
  <line id="Capline-L" style="fill:none;stroke:#27AAE1;opacity:1;stroke-width:0.5;" x1="263" x2="3036" y1="1485.54" y2="1485.54"/>
  <line id="left-margin" x1="1352.312584685353" x2="1352.312584685353" y1="1030.79" y2="1150.12" style="fill:none;stroke:#00AEEF;stroke-width:0.5;opacity:1.0;"/>
  <line id="right-margin" x1="1549.9474153146468" x2="1549.9474153146468" y1="1030.79" y2="1150.12" style="fill:none;stroke:#00AEEF;stroke-width:0.5;opacity:1.0;"/>
 </g>
 <g id="Symbols">
  <g id="Black-L" transform="matrix(1.0,0.0,0.0,1.0,2808.717089174017,1476.1269205089636)">  <path stroke="none" stroke-miterlimit="4" fill="#000000" stroke-linejoin="miter" data-name="Layer 1" stroke-dasharray="none" fill-rule="nonzero" stroke-linecap="butt" stroke-opacity="1" fill-opacity="1" stroke-width="1px" d="M23.718,0L23.718,8.466L10.735,8.466L10.735,81.069L23.648,81.069L23.648,89.259L0,89.259L0,0L23.718,0ZM23.718,0"/>
  <path data-name="Layer 1" stroke-miterlimit="4" stroke-linejoin="miter" stroke-dasharray="none" stroke-opacity="1" stroke-linecap="butt" fill-rule="nonzero" stroke="none" stroke-width="1px" fill="#000000" fill-opacity="1" d="M251.737,0C251.802,0.891,251.915,1.783,251.915,2.669C251.926,30.677,251.926,58.685,251.915,86.693C251.915,87.487,251.845,88.281,251.796,89.286L228.224,89.286L228.224,81.209L241.299,81.209L241.299,8.677L228.019,8.677L228.019,0C235.923,0,243.832,0,251.737,0ZM251.737,0"/>
  <path data-name="Layer 1" fill="#000000" stroke-linecap="butt" stroke-miterlimit="4" stroke-opacity="1" stroke="none" fill-rule="nonzero" stroke-width="1px" stroke-linejoin="miter" fill-opacity="1" stroke-dasharray="none" d="M47.679,71.77L47.679,4.927C50.7,4.927,53.639,4.781,56.54,5.025C57.345,5.089,58.215,6.197,58.788,7.013C69.231,21.892,79.631,36.804,90.053,51.705C90.588,52.472,91.183,53.201,92.112,54.422L92.112,5.133L102.356,5.133L102.356,71.96C99.465,71.96,96.445,72.084,93.457,71.868C92.744,71.814,91.998,70.706,91.464,69.944C81.036,55.054,70.636,40.137,60.23,25.231C59.728,24.512,59.193,23.826,58.296,22.621L58.296,71.776L47.679,71.776ZM47.679,71.77"/>
  <path stroke-miterlimit="4" stroke-linecap="butt" stroke-dasharray="none" data-name="Layer 1" stroke-linejoin="miter" stroke-opacity="1" stroke="none" fill-opacity="1" fill="#000000" stroke-width="1px" fill-rule="nonzero" d="M123.48,71.868L112.994,71.868L112.994,5.111C113.723,5.046,114.485,4.922,115.252,4.922C127.646,4.911,140.034,4.96,152.428,4.868C154.471,4.852,155.146,5.468,155,7.456C154.854,9.498,154.968,11.557,154.968,13.95L123.567,13.95L123.567,34.929L152.12,34.929L152.12,43.989L123.486,43.989L123.486,71.868ZM123.48,71.868"/>
  <path stroke-miterlimit="4" stroke-dasharray="none" stroke="none" fill-rule="nonzero" stroke-width="1px" stroke-opacity="1" stroke-linejoin="miter" data-name="Layer 1" fill-opacity="1" fill="#000000" stroke-linecap="butt" d="M177.994,14.053L157.637,14.053L157.637,5.133L208.985,5.133L208.985,13.972L188.686,13.972L188.686,71.792L178,71.792L178,14.053ZM177.994,14.053"/>
</g>
  <g id="Heavy-L" transform="matrix(1.0,0.0,0.0,1.0,2512.007089174017,1476.1269205089636)">  <path stroke-width="1px" stroke="none" stroke-opacity="1" data-name="Layer 1" fill-rule="nonzero" stroke-miterlimit="4" fill="#000000" stroke-linejoin="miter" fill-opacity="1" stroke-linecap="butt" stroke-dasharray="none" d="M23.718,0L23.718,8.466L10.735,8.466L10.735,81.069L23.648,81.069L23.648,89.259L0,89.259L0,0L23.718,0ZM23.718,0"/>
  <path stroke-dasharray="none" stroke-width="1px" stroke-opacity="1" stroke-miterlimit="4" stroke="none" data-name="Layer 1" stroke-linecap="butt" fill-opacity="1" stroke-linejoin="miter" fill-rule="nonzero" fill="#000000" d="M251.737,0C251.802,0.891,251.915,1.783,251.915,2.669C251.926,30.677,251.926,58.685,251.915,86.693C251.915,87.487,251.845,88.281,251.796,89.286L228.224,89.286L228.224,81.209L241.299,81.209L241.299,8.677L228.019,8.677L228.019,0C235.923,0,243.832,0,251.737,0ZM251.737,0"/>
  <path stroke-linejoin="miter" stroke-dasharray="none" fill-opacity="1" stroke-opacity="1" stroke-width="1px" stroke-linecap="butt" stroke="none" fill-rule="nonzero" fill="#000000" stroke-miterlimit="4" data-name="Layer 1" d="M47.679,71.77L47.679,4.927C50.7,4.927,53.639,4.781,56.54,5.025C57.345,5.089,58.215,6.197,58.788,7.013C69.231,21.892,79.631,36.804,90.053,51.705C90.588,52.472,91.183,53.201,92.112,54.422L92.112,5.133L102.356,5.133L102.356,71.96C99.465,71.96,96.445,72.084,93.457,71.868C92.744,71.814,91.998,70.706,91.464,69.944C81.036,55.054,70.636,40.137,60.23,25.231C59.728,24.512,59.193,23.826,58.296,22.621L58.296,71.776L47.679,71.776ZM47.679,71.77"/>
  <path stroke-dasharray="none" fill="#000000" stroke="none" stroke-linecap="butt" data-name="Layer 1" stroke-linejoin="miter" stroke-width="1px" fill-rule="nonzero" stroke-opacity="1" fill-opacity="1" stroke-miterlimit="4" d="M123.48,71.868L112.994,71.868L112.994,5.111C113.723,5.046,114.485,4.922,115.252,4.922C127.646,4.911,140.034,4.96,152.428,4.868C154.471,4.852,155.146,5.468,155,7.456C154.854,9.498,154.968,11.557,154.968,13.95L123.567,13.95L123.567,34.929L152.12,34.929L152.12,43.989L123.486,43.989L123.486,71.868ZM123.48,71.868"/>
  <path stroke-dasharray="none" fill="#000000" stroke-miterlimit="4" stroke-opacity="1" fill-rule="nonzero" stroke-linejoin="miter" stroke="none" data-name="Layer 1" stroke-width="1px" stroke-linecap="butt" fill-opacity="1" d="M177.994,14.053L157.637,14.053L157.637,5.133L208.985,5.133L208.985,13.972L188.686,13.972L188.686,71.792L178,71.792L178,14.053ZM177.994,14.053"/>
</g>
  <g id="Bold-L" transform="matrix(1.0,0.0,0.0,1.0,2215.297089174017,1476.1269205089636)">  <path fill-opacity="1" stroke-opacity="1" stroke-width="1px" stroke-miterlimit="4" fill-rule="nonzero" data-name="Layer 1" stroke="none" stroke-dasharray="none" stroke-linejoin="miter" stroke-linecap="butt" fill="#000000" d="M23.718,0L23.718,8.466L10.735,8.466L10.735,81.069L23.648,81.069L23.648,89.259L0,89.259L0,0L23.718,0ZM23.718,0"/>
  <path fill-rule="nonzero" stroke-dasharray="none" stroke-linecap="butt" stroke-opacity="1" stroke-miterlimit="4" stroke-linejoin="miter" fill-opacity="1" stroke-width="1px" fill="#000000" stroke="none" data-name="Layer 1" d="M251.737,0C251.802,0.891,251.915,1.783,251.915,2.669C251.926,30.677,251.926,58.685,251.915,86.693C251.915,87.487,251.845,88.281,251.796,89.286L228.224,89.286L228.224,81.209L241.299,81.209L241.299,8.677L228.019,8.677L228.019,0C235.923,0,243.832,0,251.737,0ZM251.737,0"/>
  <path stroke-opacity="1" fill="#000000" stroke-linejoin="miter" stroke-miterlimit="4" stroke-linecap="butt" fill-rule="nonzero" stroke-dasharray="none" data-name="Layer 1" stroke-width="1px" stroke="none" fill-opacity="1" d="M47.679,71.77L47.679,4.927C50.7,4.927,53.639,4.781,56.54,5.025C57.345,5.089,58.215,6.197,58.788,7.013C69.231,21.892,79.631,36.804,90.053,51.705C90.588,52.472,91.183,53.201,92.112,54.422L92.112,5.133L102.356,5.133L102.356,71.96C99.465,71.96,96.445,72.084,93.457,71.868C92.744,71.814,91.998,70.706,91.464,69.944C81.036,55.054,70.636,40.137,60.23,25.231C59.728,24.512,59.193,23.826,58.296,22.621L58.296,71.776L47.679,71.776ZM47.679,71.77"/>
  <path fill-opacity="1" stroke-miterlimit="4" fill-rule="nonzero" data-name="Layer 1" stroke="none" stroke-linejoin="miter" stroke-dasharray="none" stroke-width="1px" stroke-opacity="1" stroke-linecap="butt" fill="#000000" d="M123.48,71.868L112.994,71.868L112.994,5.111C113.723,5.046,114.485,4.922,115.252,4.922C127.646,4.911,140.034,4.96,152.428,4.868C154.471,4.852,155.146,5.468,155,7.456C154.854,9.498,154.968,11.557,154.968,13.95L123.567,13.95L123.567,34.929L152.12,34.929L152.12,43.989L123.486,43.989L123.486,71.868ZM123.48,71.868"/>
  <path stroke-miterlimit="4" stroke-dasharray="none" stroke-linecap="butt" fill-opacity="1" data-name="Layer 1" stroke="none" stroke-opacity="1" fill-rule="nonzero" stroke-width="1px" stroke-linejoin="miter" fill="#000000" d="M177.994,14.053L157.637,14.053L157.637,5.133L208.985,5.133L208.985,13.972L188.686,13.972L188.686,71.792L178,71.792L178,14.053ZM177.994,14.053"/>
</g>
  <g id="Semibold-L" transform="matrix(1.0,0.0,0.0,1.0,1918.5870891740171,1476.1269205089636)">  <path stroke-linejoin="miter" stroke-miterlimit="4" stroke-linecap="butt" stroke-opacity="1" stroke-dasharray="none" fill-opacity="1" stroke-width="1px" stroke="none" fill-rule="nonzero" data-name="Layer 1" fill="#000000" d="M23.718,0L23.718,8.466L10.735,8.466L10.735,81.069L23.648,81.069L23.648,89.259L0,89.259L0,0L23.718,0ZM23.718,0"/>
  <path stroke-opacity="1" stroke="none" stroke-linejoin="miter" stroke-dasharray="none" fill-opacity="1" data-name="Layer 1" stroke-width="1px" fill="#000000" stroke-linecap="butt" stroke-miterlimit="4" fill-rule="nonzero" d="M251.737,0C251.802,0.891,251.915,1.783,251.915,2.669C251.926,30.677,251.926,58.685,251.915,86.693C251.915,87.487,251.845,88.281,251.796,89.286L228.224,89.286L228.224,81.209L241.299,81.209L241.299,8.677L228.019,8.677L228.019,0C235.923,0,243.832,0,251.737,0ZM251.737,0"/>
  <path stroke="none" fill-rule="nonzero" fill-opacity="1" stroke-linejoin="miter" stroke-width="1px" fill="#000000" stroke-opacity="1" stroke-miterlimit="4" stroke-dasharray="none" data-name="Layer 1" stroke-linecap="butt" d="M47.679,71.77L47.679,4.927C50.7,4.927,53.639,4.781,56.54,5.025C57.345,5.089,58.215,6.197,58.788,7.013C69.231,21.892,79.631,36.804,90.053,51.705C90.588,52.472,91.183,53.201,92.112,54.422L92.112,5.133L102.356,5.133L102.356,71.96C99.465,71.96,96.445,72.084,93.457,71.868C92.744,71.814,91.998,70.706,91.464,69.944C81.036,55.054,70.636,40.137,60.23,25.231C59.728,24.512,59.193,23.826,58.296,22.621L58.296,71.776L47.679,71.776ZM47.679,71.77"/>
  <path stroke-dasharray="none" stroke-linecap="butt" stroke-opacity="1" fill="#000000" fill-rule="nonzero" stroke-miterlimit="4" stroke-linejoin="miter" stroke-width="1px" stroke="none" data-name="Layer 1" fill-opacity="1" d="M123.48,71.868L112.994,71.868L112.994,5.111C113.723,5.046,114.485,4.922,115.252,4.922C127.646,4.911,140.034,4.96,152.428,4.868C154.471,4.852,155.146,5.468,155,7.456C154.854,9.498,154.968,11.557,154.968,13.95L123.567,13.95L123.567,34.929L152.12,34.929L152.12,43.989L123.486,43.989L123.486,71.868ZM123.48,71.868"/>
  <path stroke-linecap="butt" stroke="none" stroke-opacity="1" fill="#000000" fill-rule="nonzero" stroke-miterlimit="4" fill-opacity="1" data-name="Layer 1" stroke-dasharray="none" stroke-linejoin="miter" stroke-width="1px" d="M177.994,14.053L157.637,14.053L157.637,5.133L208.985,5.133L208.985,13.972L188.686,13.972L188.686,71.792L178,71.792L178,14.053ZM177.994,14.053"/>
</g>
  <g id="Medium-L" transform="matrix(1.0,0.0,0.0,1.0,1621.877089174017,1476.1269205089636)">  <path stroke-dasharray="none" stroke="none" fill-rule="nonzero" data-name="Layer 1" stroke-linejoin="miter" fill-opacity="1" stroke-width="1px" stroke-linecap="butt" fill="#000000" stroke-opacity="1" stroke-miterlimit="4" d="M23.718,0L23.718,8.466L10.735,8.466L10.735,81.069L23.648,81.069L23.648,89.259L0,89.259L0,0L23.718,0ZM23.718,0"/>
  <path stroke-linecap="butt" stroke-linejoin="miter" data-name="Layer 1" stroke-opacity="1" fill-opacity="1" stroke="none" fill-rule="nonzero" stroke-dasharray="none" stroke-miterlimit="4" stroke-width="1px" fill="#000000" d="M251.737,0C251.802,0.891,251.915,1.783,251.915,2.669C251.926,30.677,251.926,58.685,251.915,86.693C251.915,87.487,251.845,88.281,251.796,89.286L228.224,89.286L228.224,81.209L241.299,81.209L241.299,8.677L228.019,8.677L228.019,0C235.923,0,243.832,0,251.737,0ZM251.737,0"/>
  <path stroke-dasharray="none" stroke-linejoin="miter" stroke-opacity="1" fill-rule="nonzero" stroke-width="1px" stroke="none" fill-opacity="1" stroke-miterlimit="4" data-name="Layer 1" stroke-linecap="butt" fill="#000000" d="M47.679,71.77L47.679,4.927C50.7,4.927,53.639,4.781,56.54,5.025C57.345,5.089,58.215,6.197,58.788,7.013C69.231,21.892,79.631,36.804,90.053,51.705C90.588,52.472,91.183,53.201,92.112,54.422L92.112,5.133L102.356,5.133L102.356,71.96C99.465,71.96,96.445,72.084,93.457,71.868C92.744,71.814,91.998,70.706,91.464,69.944C81.036,55.054,70.636,40.137,60.23,25.231C59.728,24.512,59.193,23.826,58.296,22.621L58.296,71.776L47.679,71.776ZM47.679,71.77"/>
  <path fill-rule="nonzero" stroke-linecap="butt" stroke-width="1px" fill="#000000" stroke="none" stroke-dasharray="none" fill-opacity="1" stroke-opacity="1" stroke-miterlimit="4" data-name="Layer 1" stroke-linejoin="miter" d="M123.48,71.868L112.994,71.868L112.994,5.111C113.723,5.046,114.485,4.922,115.252,4.922C127.646,4.911,140.034,4.96,152.428,4.868C154.471,4.852,155.146,5.468,155,7.456C154.854,9.498,154.968,11.557,154.968,13.95L123.567,13.95L123.567,34.929L152.12,34.929L152.12,43.989L123.486,43.989L123.486,71.868ZM123.48,71.868"/>
  <path fill-opacity="1" fill-rule="nonzero" stroke-miterlimit="4" stroke-dasharray="none" stroke-opacity="1" stroke-width="1px" data-name="Layer 1" stroke="none" stroke-linecap="butt" fill="#000000" stroke-linejoin="miter" d="M177.994,14.053L157.637,14.053L157.637,5.133L208.985,5.133L208.985,13.972L188.686,13.972L188.686,71.792L178,71.792L178,14.053ZM177.994,14.053"/>
</g>
  <g id="Regular-L" transform="matrix(1.0,0.0,0.0,1.0,1325.167089174017,1476.1269205089636)">  <path fill="#000000" stroke-linecap="butt" fill-rule="nonzero" stroke="none" stroke-opacity="1" stroke-miterlimit="4" stroke-linejoin="miter" fill-opacity="1" stroke-width="1px" stroke-dasharray="none" data-name="Layer 1" d="M23.718,0L23.718,8.466L10.735,8.466L10.735,81.069L23.648,81.069L23.648,89.259L0,89.259L0,0L23.718,0ZM23.718,0"/>
  <path stroke-linejoin="miter" stroke-opacity="1" stroke-width="1px" stroke-dasharray="none" fill-rule="nonzero" data-name="Layer 1" stroke-miterlimit="4" stroke-linecap="butt" fill="#000000" stroke="none" fill-opacity="1" d="M251.737,0C251.802,0.891,251.915,1.783,251.915,2.669C251.926,30.677,251.926,58.685,251.915,86.693C251.915,87.487,251.845,88.281,251.796,89.286L228.224,89.286L228.224,81.209L241.299,81.209L241.299,8.677L228.019,8.677L228.019,0C235.923,0,243.832,0,251.737,0ZM251.737,0"/>
  <path stroke-opacity="1" fill-opacity="1" fill-rule="nonzero" stroke-dasharray="none" stroke-linecap="butt" fill="#000000" stroke="none" data-name="Layer 1" stroke-miterlimit="4" stroke-linejoin="miter" stroke-width="1px" d="M47.679,71.77L47.679,4.927C50.7,4.927,53.639,4.781,56.54,5.025C57.345,5.089,58.215,6.197,58.788,7.013C69.231,21.892,79.631,36.804,90.053,51.705C90.588,52.472,91.183,53.201,92.112,54.422L92.112,5.133L102.356,5.133L102.356,71.96C99.465,71.96,96.445,72.084,93.457,71.868C92.744,71.814,91.998,70.706,91.464,69.944C81.036,55.054,70.636,40.137,60.23,25.231C59.728,24.512,59.193,23.826,58.296,22.621L58.296,71.776L47.679,71.776ZM47.679,71.77"/>
  <path stroke-opacity="1" stroke="none" stroke-linecap="butt" stroke-miterlimit="4" data-name="Layer 1" stroke-width="1px" fill="#000000" fill-rule="nonzero" stroke-linejoin="miter" fill-opacity="1" stroke-dasharray="none" d="M123.48,71.868L112.994,71.868L112.994,5.111C113.723,5.046,114.485,4.922,115.252,4.922C127.646,4.911,140.034,4.96,152.428,4.868C154.471,4.852,155.146,5.468,155,7.456C154.854,9.498,154.968,11.557,154.968,13.95L123.567,13.95L123.567,34.929L152.12,34.929L152.12,43.989L123.486,43.989L123.486,71.868ZM123.48,71.868"/>
  <path stroke-opacity="1" stroke-linecap="butt" fill-rule="nonzero" fill="#000000" stroke-dasharray="none" data-name="Layer 1" stroke-linejoin="miter" stroke="none" stroke-miterlimit="4" stroke-width="1px" fill-opacity="1" d="M177.994,14.053L157.637,14.053L157.637,5.133L208.985,5.133L208.985,13.972L188.686,13.972L188.686,71.792L178,71.792L178,14.053ZM177.994,14.053"/>
</g>
  <g id="Light-L" transform="matrix(1.0,0.0,0.0,1.0,1028.4570891740173,1476.1269205089636)">  <path fill-rule="nonzero" data-name="Layer 1" stroke-linejoin="miter" stroke-opacity="1" fill-opacity="1" fill="#000000" stroke-dasharray="none" stroke="none" stroke-width="1px" stroke-miterlimit="4" stroke-linecap="butt" d="M23.718,0L23.718,8.466L10.735,8.466L10.735,81.069L23.648,81.069L23.648,89.259L0,89.259L0,0L23.718,0ZM23.718,0"/>
  <path stroke="none" stroke-dasharray="none" stroke-linejoin="miter" data-name="Layer 1" fill="#000000" stroke-miterlimit="4" stroke-width="1px" fill-rule="nonzero" stroke-opacity="1" fill-opacity="1" stroke-linecap="butt" d="M251.737,0C251.802,0.891,251.915,1.783,251.915,2.669C251.926,30.677,251.926,58.685,251.915,86.693C251.915,87.487,251.845,88.281,251.796,89.286L228.224,89.286L228.224,81.209L241.299,81.209L241.299,8.677L228.019,8.677L228.019,0C235.923,0,243.832,0,251.737,0ZM251.737,0"/>
  <path stroke="none" fill-rule="nonzero" stroke-opacity="1" stroke-width="1px" stroke-linejoin="miter" stroke-miterlimit="4" fill="#000000" stroke-linecap="butt" fill-opacity="1" data-name="Layer 1" stroke-dasharray="none" d="M47.679,71.77L47.679,4.927C50.7,4.927,53.639,4.781,56.54,5.025C57.345,5.089,58.215,6.197,58.788,7.013C69.231,21.892,79.631,36.804,90.053,51.705C90.588,52.472,91.183,53.201,92.112,54.422L92.112,5.133L102.356,5.133L102.356,71.96C99.465,71.96,96.445,72.084,93.457,71.868C92.744,71.814,91.998,70.706,91.464,69.944C81.036,55.054,70.636,40.137,60.23,25.231C59.728,24.512,59.193,23.826,58.296,22.621L58.296,71.776L47.679,71.776ZM47.679,71.77"/>
  <path stroke-linejoin="miter" stroke-opacity="1" stroke-width="1px" fill-rule="nonzero" stroke-linecap="butt" fill-opacity="1" data-name="Layer 1" stroke-dasharray="none" stroke-miterlimit="4" stroke="none" fill="#000000" d="M123.48,71.868L112.994,71.868L112.994,5.111C113.723,5.046,114.485,4.922,115.252,4.922C127.646,4.911,140.034,4.96,152.428,4.868C154.471,4.852,155.146,5.468,155,7.456C154.854,9.498,154.968,11.557,154.968,13.95L123.567,13.95L123.567,34.929L152.12,34.929L152.12,43.989L123.486,43.989L123.486,71.868ZM123.48,71.868"/>
  <path fill-rule="nonzero" fill="#000000" stroke-linejoin="miter" stroke-width="1px" data-name="Layer 1" stroke-miterlimit="4" stroke-opacity="1" stroke="none" stroke-dasharray="none" stroke-linecap="butt" fill-opacity="1" d="M177.994,14.053L157.637,14.053L157.637,5.133L208.985,5.133L208.985,13.972L188.686,13.972L188.686,71.792L178,71.792L178,14.053ZM177.994,14.053"/>
</g>
  <g id="Thin-L" transform="matrix(1.0,0.0,0.0,1.0,731.7470891740173,1476.1269205089636)">  <path data-name="Layer 1" stroke="none" stroke-opacity="1" stroke-linejoin="miter" stroke-width="1px" fill="#000000" fill-opacity="1" fill-rule="nonzero" stroke-linecap="butt" stroke-miterlimit="4" stroke-dasharray="none" d="M23.718,0L23.718,8.466L10.735,8.466L10.735,81.069L23.648,81.069L23.648,89.259L0,89.259L0,0L23.718,0ZM23.718,0"/>
  <path stroke="none" fill-opacity="1" fill="#000000" data-name="Layer 1" stroke-miterlimit="4" stroke-width="1px" stroke-linejoin="miter" stroke-linecap="butt" fill-rule="nonzero" stroke-dasharray="none" stroke-opacity="1" d="M251.737,0C251.802,0.891,251.915,1.783,251.915,2.669C251.926,30.677,251.926,58.685,251.915,86.693C251.915,87.487,251.845,88.281,251.796,89.286L228.224,89.286L228.224,81.209L241.299,81.209L241.299,8.677L228.019,8.677L228.019,0C235.923,0,243.832,0,251.737,0ZM251.737,0"/>
  <path fill="#000000" fill-opacity="1" stroke-linecap="butt" stroke-linejoin="miter" data-name="Layer 1" stroke="none" fill-rule="nonzero" stroke-width="1px" stroke-dasharray="none" stroke-miterlimit="4" stroke-opacity="1" d="M47.679,71.77L47.679,4.927C50.7,4.927,53.639,4.781,56.54,5.025C57.345,5.089,58.215,6.197,58.788,7.013C69.231,21.892,79.631,36.804,90.053,51.705C90.588,52.472,91.183,53.201,92.112,54.422L92.112,5.133L102.356,5.133L102.356,71.96C99.465,71.96,96.445,72.084,93.457,71.868C92.744,71.814,91.998,70.706,91.464,69.944C81.036,55.054,70.636,40.137,60.23,25.231C59.728,24.512,59.193,23.826,58.296,22.621L58.296,71.776L47.679,71.776ZM47.679,71.77"/>
  <path stroke-linecap="butt" stroke-miterlimit="4" fill-opacity="1" stroke="none" stroke-width="1px" stroke-linejoin="miter" data-name="Layer 1" fill-rule="nonzero" fill="#000000" stroke-opacity="1" stroke-dasharray="none" d="M123.48,71.868L112.994,71.868L112.994,5.111C113.723,5.046,114.485,4.922,115.252,4.922C127.646,4.911,140.034,4.96,152.428,4.868C154.471,4.852,155.146,5.468,155,7.456C154.854,9.498,154.968,11.557,154.968,13.95L123.567,13.95L123.567,34.929L152.12,34.929L152.12,43.989L123.486,43.989L123.486,71.868ZM123.48,71.868"/>
  <path fill="#000000" data-name="Layer 1" fill-opacity="1" stroke-dasharray="none" stroke-linejoin="miter" stroke-miterlimit="4" fill-rule="nonzero" stroke-width="1px" stroke="none" stroke-opacity="1" stroke-linecap="butt" d="M177.994,14.053L157.637,14.053L157.637,5.133L208.985,5.133L208.985,13.972L188.686,13.972L188.686,71.792L178,71.792L178,14.053ZM177.994,14.053"/>
</g>
  <g id="Ultralight-L" transform="matrix(1.0,0.0,0.0,1.0,435.0370891740173,1476.1269205089636)">  <path stroke="none" stroke-miterlimit="4" stroke-linejoin="miter" stroke-linecap="butt" data-name="Layer 1" stroke-width="1px" fill-rule="nonzero" fill-opacity="1" fill="#000000" stroke-dasharray="none" stroke-opacity="1" d="M23.718,0L23.718,8.466L10.735,8.466L10.735,81.069L23.648,81.069L23.648,89.259L0,89.259L0,0L23.718,0ZM23.718,0"/>
  <path stroke="none" fill-rule="nonzero" stroke-linejoin="miter" stroke-dasharray="none" fill-opacity="1" fill="#000000" stroke-opacity="1" stroke-miterlimit="4" stroke-linecap="butt" stroke-width="1px" data-name="Layer 1" d="M251.737,0C251.802,0.891,251.915,1.783,251.915,2.669C251.926,30.677,251.926,58.685,251.915,86.693C251.915,87.487,251.845,88.281,251.796,89.286L228.224,89.286L228.224,81.209L241.299,81.209L241.299,8.677L228.019,8.677L228.019,0C235.923,0,243.832,0,251.737,0ZM251.737,0"/>
  <path stroke-width="1px" fill-rule="nonzero" fill-opacity="1" stroke-miterlimit="4" stroke-linecap="butt" stroke-opacity="1" data-name="Layer 1" stroke-linejoin="miter" fill="#000000" stroke-dasharray="none" stroke="none" d="M47.679,71.77L47.679,4.927C50.7,4.927,53.639,4.781,56.54,5.025C57.345,5.089,58.215,6.197,58.788,7.013C69.231,21.892,79.631,36.804,90.053,51.705C90.588,52.472,91.183,53.201,92.112,54.422L92.112,5.133L102.356,5.133L102.356,71.96C99.465,71.96,96.445,72.084,93.457,71.868C92.744,71.814,91.998,70.706,91.464,69.944C81.036,55.054,70.636,40.137,60.23,25.231C59.728,24.512,59.193,23.826,58.296,22.621L58.296,71.776L47.679,71.776ZM47.679,71.77"/>
  <path stroke-miterlimit="4" stroke-linecap="butt" stroke-width="1px" stroke-opacity="1" fill-rule="nonzero" fill-opacity="1" stroke-dasharray="none" stroke="none" stroke-linejoin="miter" fill="#000000" data-name="Layer 1" d="M123.48,71.868L112.994,71.868L112.994,5.111C113.723,5.046,114.485,4.922,115.252,4.922C127.646,4.911,140.034,4.96,152.428,4.868C154.471,4.852,155.146,5.468,155,7.456C154.854,9.498,154.968,11.557,154.968,13.95L123.567,13.95L123.567,34.929L152.12,34.929L152.12,43.989L123.486,43.989L123.486,71.868ZM123.48,71.868"/>
  <path stroke-linejoin="miter" fill="#000000" stroke-dasharray="none" fill-opacity="1" stroke-width="1px" stroke-opacity="1" fill-rule="nonzero" data-name="Layer 1" stroke-miterlimit="4" stroke-linecap="butt" stroke="none" d="M177.994,14.053L157.637,14.053L157.637,5.133L208.985,5.133L208.985,13.972L188.686,13.972L188.686,71.792L178,71.792L178,14.053ZM177.994,14.053"/>
</g>
  <g id="Black-M" transform="matrix(1.0,0.0,0.0,1.0,2837.0343326930365,1056.1629660256017)">  <path stroke="none" stroke-miterlimit="4" fill="#000000" stroke-linejoin="miter" data-name="Layer 1" stroke-dasharray="none" fill-rule="nonzero" stroke-linecap="butt" stroke-opacity="1" fill-opacity="1" stroke-width="1px" d="M18.386,0L18.386,6.563L8.322,6.563L8.322,62.844L18.332,62.844L18.332,69.193L0,69.193L0,0L18.386,0ZM18.386,0"/>
  <path data-name="Layer 1" stroke-miterlimit="4" stroke-linejoin="miter" stroke-dasharray="none" stroke-opacity="1" stroke-linecap="butt" fill-rule="nonzero" stroke="none" stroke-width="1px" fill="#000000" fill-opacity="1" d="M195.145,0C195.195,0.691,195.283,1.382,195.283,2.069C195.291,23.781,195.291,45.492,195.283,67.204C195.283,67.819,195.229,68.435,195.191,69.214L176.918,69.214L176.918,62.953L187.053,62.953L187.053,6.726L176.759,6.726L176.759,0C182.886,0,189.017,0,195.145,0ZM195.145,0"/>
  <path data-name="Layer 1" fill="#000000" stroke-linecap="butt" stroke-miterlimit="4" stroke-opacity="1" stroke="none" fill-rule="nonzero" stroke-width="1px" stroke-linejoin="miter" fill-opacity="1" stroke-dasharray="none" d="M36.961,55.636L36.961,3.82C39.302,3.82,41.58,3.707,43.829,3.895C44.453,3.945,45.128,4.804,45.572,5.436C53.668,16.971,61.73,28.53,69.809,40.081C70.223,40.676,70.684,41.241,71.405,42.188L71.405,3.979L79.345,3.979L79.345,55.783C77.105,55.783,74.763,55.879,72.447,55.711C71.895,55.669,71.317,54.811,70.902,54.22C62.819,42.678,54.756,31.114,46.69,19.559C46.3,19.002,45.886,18.47,45.191,17.536L45.191,55.64L36.961,55.64ZM36.961,55.636"/>
  <path stroke-miterlimit="4" stroke-linecap="butt" stroke-dasharray="none" data-name="Layer 1" stroke-linejoin="miter" stroke-opacity="1" stroke="none" fill-opacity="1" fill="#000000" stroke-width="1px" fill-rule="nonzero" d="M95.721,55.711L87.592,55.711L87.592,3.962C88.157,3.912,88.748,3.815,89.343,3.815C98.95,3.807,108.554,3.845,118.162,3.774C119.745,3.761,120.268,4.238,120.155,5.78C120.042,7.363,120.13,8.959,120.13,10.814L95.788,10.814L95.788,27.077L117.923,27.077L117.923,34.1L95.725,34.1L95.725,55.711ZM95.721,55.711"/>
  <path stroke-miterlimit="4" stroke-dasharray="none" stroke="none" fill-rule="nonzero" stroke-width="1px" stroke-opacity="1" stroke-linejoin="miter" data-name="Layer 1" fill-opacity="1" fill="#000000" stroke-linecap="butt" d="M137.98,10.893L122.199,10.893L122.199,3.979L162.004,3.979L162.004,10.831L146.269,10.831L146.269,55.653L137.984,55.653L137.984,10.893ZM137.98,10.893"/>
</g>
  <g id="Heavy-M" transform="matrix(1.0,0.0,0.0,1.0,2540.3243326930365,1056.1629660256017)">  <path stroke-width="1px" stroke="none" stroke-opacity="1" data-name="Layer 1" fill-rule="nonzero" stroke-miterlimit="4" fill="#000000" stroke-linejoin="miter" fill-opacity="1" stroke-linecap="butt" stroke-dasharray="none" d="M18.386,0L18.386,6.563L8.322,6.563L8.322,62.844L18.332,62.844L18.332,69.193L0,69.193L0,0L18.386,0ZM18.386,0"/>
  <path stroke-dasharray="none" stroke-width="1px" stroke-opacity="1" stroke-miterlimit="4" stroke="none" data-name="Layer 1" stroke-linecap="butt" fill-opacity="1" stroke-linejoin="miter" fill-rule="nonzero" fill="#000000" d="M195.145,0C195.195,0.691,195.283,1.382,195.283,2.069C195.291,23.781,195.291,45.492,195.283,67.204C195.283,67.819,195.229,68.435,195.191,69.214L176.918,69.214L176.918,62.953L187.053,62.953L187.053,6.726L176.759,6.726L176.759,0C182.886,0,189.017,0,195.145,0ZM195.145,0"/>
  <path stroke-linejoin="miter" stroke-dasharray="none" fill-opacity="1" stroke-opacity="1" stroke-width="1px" stroke-linecap="butt" stroke="none" fill-rule="nonzero" fill="#000000" stroke-miterlimit="4" data-name="Layer 1" d="M36.961,55.636L36.961,3.82C39.302,3.82,41.58,3.707,43.829,3.895C44.453,3.945,45.128,4.804,45.572,5.436C53.668,16.971,61.73,28.53,69.809,40.081C70.223,40.676,70.684,41.241,71.405,42.188L71.405,3.979L79.345,3.979L79.345,55.783C77.105,55.783,74.763,55.879,72.447,55.711C71.895,55.669,71.317,54.811,70.902,54.22C62.819,42.678,54.756,31.114,46.69,19.559C46.3,19.002,45.886,18.47,45.191,17.536L45.191,55.64L36.961,55.64ZM36.961,55.636"/>
  <path stroke-dasharray="none" fill="#000000" stroke="none" stroke-linecap="butt" data-name="Layer 1" stroke-linejoin="miter" stroke-width="1px" fill-rule="nonzero" stroke-opacity="1" fill-opacity="1" stroke-miterlimit="4" d="M95.721,55.711L87.592,55.711L87.592,3.962C88.157,3.912,88.748,3.815,89.343,3.815C98.95,3.807,108.554,3.845,118.162,3.774C119.745,3.761,120.268,4.238,120.155,5.78C120.042,7.363,120.13,8.959,120.13,10.814L95.788,10.814L95.788,27.077L117.923,27.077L117.923,34.1L95.725,34.1L95.725,55.711ZM95.721,55.711"/>
  <path stroke-dasharray="none" fill="#000000" stroke-miterlimit="4" stroke-opacity="1" fill-rule="nonzero" stroke-linejoin="miter" stroke="none" data-name="Layer 1" stroke-width="1px" stroke-linecap="butt" fill-opacity="1" d="M137.98,10.893L122.199,10.893L122.199,3.979L162.004,3.979L162.004,10.831L146.269,10.831L146.269,55.653L137.984,55.653L137.984,10.893ZM137.98,10.893"/>
</g>
  <g id="Bold-M" transform="matrix(1.0,0.0,0.0,1.0,2243.6143326930364,1056.1629660256017)">  <path fill-opacity="1" stroke-opacity="1" stroke-width="1px" stroke-miterlimit="4" fill-rule="nonzero" data-name="Layer 1" stroke="none" stroke-dasharray="none" stroke-linejoin="miter" stroke-linecap="butt" fill="#000000" d="M18.386,0L18.386,6.563L8.322,6.563L8.322,62.844L18.332,62.844L18.332,69.193L0,69.193L0,0L18.386,0ZM18.386,0"/>
  <path fill-rule="nonzero" stroke-dasharray="none" stroke-linecap="butt" stroke-opacity="1" stroke-miterlimit="4" stroke-linejoin="miter" fill-opacity="1" stroke-width="1px" fill="#000000" stroke="none" data-name="Layer 1" d="M195.145,0C195.195,0.691,195.283,1.382,195.283,2.069C195.291,23.781,195.291,45.492,195.283,67.204C195.283,67.819,195.229,68.435,195.191,69.214L176.918,69.214L176.918,62.953L187.053,62.953L187.053,6.726L176.759,6.726L176.759,0C182.886,0,189.017,0,195.145,0ZM195.145,0"/>
  <path stroke-opacity="1" fill="#000000" stroke-linejoin="miter" stroke-miterlimit="4" stroke-linecap="butt" fill-rule="nonzero" stroke-dasharray="none" data-name="Layer 1" stroke-width="1px" stroke="none" fill-opacity="1" d="M36.961,55.636L36.961,3.82C39.302,3.82,41.58,3.707,43.829,3.895C44.453,3.945,45.128,4.804,45.572,5.436C53.668,16.971,61.73,28.53,69.809,40.081C70.223,40.676,70.684,41.241,71.405,42.188L71.405,3.979L79.345,3.979L79.345,55.783C77.105,55.783,74.763,55.879,72.447,55.711C71.895,55.669,71.317,54.811,70.902,54.22C62.819,42.678,54.756,31.114,46.69,19.559C46.3,19.002,45.886,18.47,45.191,17.536L45.191,55.64L36.961,55.64ZM36.961,55.636"/>
  <path fill-opacity="1" stroke-miterlimit="4" fill-rule="nonzero" data-name="Layer 1" stroke="none" stroke-linejoin="miter" stroke-dasharray="none" stroke-width="1px" stroke-opacity="1" stroke-linecap="butt" fill="#000000" d="M95.721,55.711L87.592,55.711L87.592,3.962C88.157,3.912,88.748,3.815,89.343,3.815C98.95,3.807,108.554,3.845,118.162,3.774C119.745,3.761,120.268,4.238,120.155,5.78C120.042,7.363,120.13,8.959,120.13,10.814L95.788,10.814L95.788,27.077L117.923,27.077L117.923,34.1L95.725,34.1L95.725,55.711ZM95.721,55.711"/>
  <path stroke-miterlimit="4" stroke-dasharray="none" stroke-linecap="butt" fill-opacity="1" data-name="Layer 1" stroke="none" stroke-opacity="1" fill-rule="nonzero" stroke-width="1px" stroke-linejoin="miter" fill="#000000" d="M137.98,10.893L122.199,10.893L122.199,3.979L162.004,3.979L162.004,10.831L146.269,10.831L146.269,55.653L137.984,55.653L137.984,10.893ZM137.98,10.893"/>
</g>
  <g id="Semibold-M" transform="matrix(1.0,0.0,0.0,1.0,1946.9043326930366,1056.1629660256017)">  <path stroke-linejoin="miter" stroke-miterlimit="4" stroke-linecap="butt" stroke-opacity="1" stroke-dasharray="none" fill-opacity="1" stroke-width="1px" stroke="none" fill-rule="nonzero" data-name="Layer 1" fill="#000000" d="M18.386,0L18.386,6.563L8.322,6.563L8.322,62.844L18.332,62.844L18.332,69.193L0,69.193L0,0L18.386,0ZM18.386,0"/>
  <path stroke-opacity="1" stroke="none" stroke-linejoin="miter" stroke-dasharray="none" fill-opacity="1" data-name="Layer 1" stroke-width="1px" fill="#000000" stroke-linecap="butt" stroke-miterlimit="4" fill-rule="nonzero" d="M195.145,0C195.195,0.691,195.283,1.382,195.283,2.069C195.291,23.781,195.291,45.492,195.283,67.204C195.283,67.819,195.229,68.435,195.191,69.214L176.918,69.214L176.918,62.953L187.053,62.953L187.053,6.726L176.759,6.726L176.759,0C182.886,0,189.017,0,195.145,0ZM195.145,0"/>
  <path stroke="none" fill-rule="nonzero" fill-opacity="1" stroke-linejoin="miter" stroke-width="1px" fill="#000000" stroke-opacity="1" stroke-miterlimit="4" stroke-dasharray="none" data-name="Layer 1" stroke-linecap="butt" d="M36.961,55.636L36.961,3.82C39.302,3.82,41.58,3.707,43.829,3.895C44.453,3.945,45.128,4.804,45.572,5.436C53.668,16.971,61.73,28.53,69.809,40.081C70.223,40.676,70.684,41.241,71.405,42.188L71.405,3.979L79.345,3.979L79.345,55.783C77.105,55.783,74.763,55.879,72.447,55.711C71.895,55.669,71.317,54.811,70.902,54.22C62.819,42.678,54.756,31.114,46.69,19.559C46.3,19.002,45.886,18.47,45.191,17.536L45.191,55.64L36.961,55.64ZM36.961,55.636"/>
  <path stroke-dasharray="none" stroke-linecap="butt" stroke-opacity="1" fill="#000000" fill-rule="nonzero" stroke-miterlimit="4" stroke-linejoin="miter" stroke-width="1px" stroke="none" data-name="Layer 1" fill-opacity="1" d="M95.721,55.711L87.592,55.711L87.592,3.962C88.157,3.912,88.748,3.815,89.343,3.815C98.95,3.807,108.554,3.845,118.162,3.774C119.745,3.761,120.268,4.238,120.155,5.78C120.042,7.363,120.13,8.959,120.13,10.814L95.788,10.814L95.788,27.077L117.923,27.077L117.923,34.1L95.725,34.1L95.725,55.711ZM95.721,55.711"/>
  <path stroke-linecap="butt" stroke="none" stroke-opacity="1" fill="#000000" fill-rule="nonzero" stroke-miterlimit="4" fill-opacity="1" data-name="Layer 1" stroke-dasharray="none" stroke-linejoin="miter" stroke-width="1px" d="M137.98,10.893L122.199,10.893L122.199,3.979L162.004,3.979L162.004,10.831L146.269,10.831L146.269,55.653L137.984,55.653L137.984,10.893ZM137.98,10.893"/>
</g>
  <g id="Medium-M" transform="matrix(1.0,0.0,0.0,1.0,1650.1943326930366,1056.1629660256017)">  <path stroke-dasharray="none" stroke="none" fill-rule="nonzero" data-name="Layer 1" stroke-linejoin="miter" fill-opacity="1" stroke-width="1px" stroke-linecap="butt" fill="#000000" stroke-opacity="1" stroke-miterlimit="4" d="M18.386,0L18.386,6.563L8.322,6.563L8.322,62.844L18.332,62.844L18.332,69.193L0,69.193L0,0L18.386,0ZM18.386,0"/>
  <path stroke-linecap="butt" stroke-linejoin="miter" data-name="Layer 1" stroke-opacity="1" fill-opacity="1" stroke="none" fill-rule="nonzero" stroke-dasharray="none" stroke-miterlimit="4" stroke-width="1px" fill="#000000" d="M195.145,0C195.195,0.691,195.283,1.382,195.283,2.069C195.291,23.781,195.291,45.492,195.283,67.204C195.283,67.819,195.229,68.435,195.191,69.214L176.918,69.214L176.918,62.953L187.053,62.953L187.053,6.726L176.759,6.726L176.759,0C182.886,0,189.017,0,195.145,0ZM195.145,0"/>
  <path stroke-dasharray="none" stroke-linejoin="miter" stroke-opacity="1" fill-rule="nonzero" stroke-width="1px" stroke="none" fill-opacity="1" stroke-miterlimit="4" data-name="Layer 1" stroke-linecap="butt" fill="#000000" d="M36.961,55.636L36.961,3.82C39.302,3.82,41.58,3.707,43.829,3.895C44.453,3.945,45.128,4.804,45.572,5.436C53.668,16.971,61.73,28.53,69.809,40.081C70.223,40.676,70.684,41.241,71.405,42.188L71.405,3.979L79.345,3.979L79.345,55.783C77.105,55.783,74.763,55.879,72.447,55.711C71.895,55.669,71.317,54.811,70.902,54.22C62.819,42.678,54.756,31.114,46.69,19.559C46.3,19.002,45.886,18.47,45.191,17.536L45.191,55.64L36.961,55.64ZM36.961,55.636"/>
  <path fill-rule="nonzero" stroke-linecap="butt" stroke-width="1px" fill="#000000" stroke="none" stroke-dasharray="none" fill-opacity="1" stroke-opacity="1" stroke-miterlimit="4" data-name="Layer 1" stroke-linejoin="miter" d="M95.721,55.711L87.592,55.711L87.592,3.962C88.157,3.912,88.748,3.815,89.343,3.815C98.95,3.807,108.554,3.845,118.162,3.774C119.745,3.761,120.268,4.238,120.155,5.78C120.042,7.363,120.13,8.959,120.13,10.814L95.788,10.814L95.788,27.077L117.923,27.077L117.923,34.1L95.725,34.1L95.725,55.711ZM95.721,55.711"/>
  <path fill-opacity="1" fill-rule="nonzero" stroke-miterlimit="4" stroke-dasharray="none" stroke-opacity="1" stroke-width="1px" data-name="Layer 1" stroke="none" stroke-linecap="butt" fill="#000000" stroke-linejoin="miter" d="M137.98,10.893L122.199,10.893L122.199,3.979L162.004,3.979L162.004,10.831L146.269,10.831L146.269,55.653L137.984,55.653L137.984,10.893ZM137.98,10.893"/>
</g>
  <g id="Regular-M" transform="matrix(1.0,0.0,0.0,1.0,1353.4843326930365,1056.1629660256017)">  <path fill="#000000" stroke-linecap="butt" fill-rule="nonzero" stroke="none" stroke-opacity="1" stroke-miterlimit="4" stroke-linejoin="miter" fill-opacity="1" stroke-width="1px" stroke-dasharray="none" data-name="Layer 1" d="M18.386,0L18.386,6.563L8.322,6.563L8.322,62.844L18.332,62.844L18.332,69.193L0,69.193L0,0L18.386,0ZM18.386,0"/>
  <path stroke-linejoin="miter" stroke-opacity="1" stroke-width="1px" stroke-dasharray="none" fill-rule="nonzero" data-name="Layer 1" stroke-miterlimit="4" stroke-linecap="butt" fill="#000000" stroke="none" fill-opacity="1" d="M195.145,0C195.195,0.691,195.283,1.382,195.283,2.069C195.291,23.781,195.291,45.492,195.283,67.204C195.283,67.819,195.229,68.435,195.191,69.214L176.918,69.214L176.918,62.953L187.053,62.953L187.053,6.726L176.759,6.726L176.759,0C182.886,0,189.017,0,195.145,0ZM195.145,0"/>
  <path stroke-opacity="1" fill-opacity="1" fill-rule="nonzero" stroke-dasharray="none" stroke-linecap="butt" fill="#000000" stroke="none" data-name="Layer 1" stroke-miterlimit="4" stroke-linejoin="miter" stroke-width="1px" d="M36.961,55.636L36.961,3.82C39.302,3.82,41.58,3.707,43.829,3.895C44.453,3.945,45.128,4.804,45.572,5.436C53.668,16.971,61.73,28.53,69.809,40.081C70.223,40.676,70.684,41.241,71.405,42.188L71.405,3.979L79.345,3.979L79.345,55.783C77.105,55.783,74.763,55.879,72.447,55.711C71.895,55.669,71.317,54.811,70.902,54.22C62.819,42.678,54.756,31.114,46.69,19.559C46.3,19.002,45.886,18.47,45.191,17.536L45.191,55.64L36.961,55.64ZM36.961,55.636"/>
  <path stroke-opacity="1" stroke="none" stroke-linecap="butt" stroke-miterlimit="4" data-name="Layer 1" stroke-width="1px" fill="#000000" fill-rule="nonzero" stroke-linejoin="miter" fill-opacity="1" stroke-dasharray="none" d="M95.721,55.711L87.592,55.711L87.592,3.962C88.157,3.912,88.748,3.815,89.343,3.815C98.95,3.807,108.554,3.845,118.162,3.774C119.745,3.761,120.268,4.238,120.155,5.78C120.042,7.363,120.13,8.959,120.13,10.814L95.788,10.814L95.788,27.077L117.923,27.077L117.923,34.1L95.725,34.1L95.725,55.711ZM95.721,55.711"/>
  <path stroke-opacity="1" stroke-linecap="butt" fill-rule="nonzero" fill="#000000" stroke-dasharray="none" data-name="Layer 1" stroke-linejoin="miter" stroke="none" stroke-miterlimit="4" stroke-width="1px" fill-opacity="1" d="M137.98,10.893L122.199,10.893L122.199,3.979L162.004,3.979L162.004,10.831L146.269,10.831L146.269,55.653L137.984,55.653L137.984,10.893ZM137.98,10.893"/>
</g>
  <g id="Light-M" transform="matrix(1.0,0.0,0.0,1.0,1056.7743326930367,1056.1629660256017)">  <path fill-rule="nonzero" data-name="Layer 1" stroke-linejoin="miter" stroke-opacity="1" fill-opacity="1" fill="#000000" stroke-dasharray="none" stroke="none" stroke-width="1px" stroke-miterlimit="4" stroke-linecap="butt" d="M18.386,0L18.386,6.563L8.322,6.563L8.322,62.844L18.332,62.844L18.332,69.193L0,69.193L0,0L18.386,0ZM18.386,0"/>
  <path stroke="none" stroke-dasharray="none" stroke-linejoin="miter" data-name="Layer 1" fill="#000000" stroke-miterlimit="4" stroke-width="1px" fill-rule="nonzero" stroke-opacity="1" fill-opacity="1" stroke-linecap="butt" d="M195.145,0C195.195,0.691,195.283,1.382,195.283,2.069C195.291,23.781,195.291,45.492,195.283,67.204C195.283,67.819,195.229,68.435,195.191,69.214L176.918,69.214L176.918,62.953L187.053,62.953L187.053,6.726L176.759,6.726L176.759,0C182.886,0,189.017,0,195.145,0ZM195.145,0"/>
  <path stroke="none" fill-rule="nonzero" stroke-opacity="1" stroke-width="1px" stroke-linejoin="miter" stroke-miterlimit="4" fill="#000000" stroke-linecap="butt" fill-opacity="1" data-name="Layer 1" stroke-dasharray="none" d="M36.961,55.636L36.961,3.82C39.302,3.82,41.58,3.707,43.829,3.895C44.453,3.945,45.128,4.804,45.572,5.436C53.668,16.971,61.73,28.53,69.809,40.081C70.223,40.676,70.684,41.241,71.405,42.188L71.405,3.979L79.345,3.979L79.345,55.783C77.105,55.783,74.763,55.879,72.447,55.711C71.895,55.669,71.317,54.811,70.902,54.22C62.819,42.678,54.756,31.114,46.69,19.559C46.3,19.002,45.886,18.47,45.191,17.536L45.191,55.64L36.961,55.64ZM36.961,55.636"/>
  <path stroke-linejoin="miter" stroke-opacity="1" stroke-width="1px" fill-rule="nonzero" stroke-linecap="butt" fill-opacity="1" data-name="Layer 1" stroke-dasharray="none" stroke-miterlimit="4" stroke="none" fill="#000000" d="M95.721,55.711L87.592,55.711L87.592,3.962C88.157,3.912,88.748,3.815,89.343,3.815C98.95,3.807,108.554,3.845,118.162,3.774C119.745,3.761,120.268,4.238,120.155,5.78C120.042,7.363,120.13,8.959,120.13,10.814L95.788,10.814L95.788,27.077L117.923,27.077L117.923,34.1L95.725,34.1L95.725,55.711ZM95.721,55.711"/>
  <path fill-rule="nonzero" fill="#000000" stroke-linejoin="miter" stroke-width="1px" data-name="Layer 1" stroke-miterlimit="4" stroke-opacity="1" stroke="none" stroke-dasharray="none" stroke-linecap="butt" fill-opacity="1" d="M137.98,10.893L122.199,10.893L122.199,3.979L162.004,3.979L162.004,10.831L146.269,10.831L146.269,55.653L137.984,55.653L137.984,10.893ZM137.98,10.893"/>
</g>
  <g id="Thin-M" transform="matrix(1.0,0.0,0.0,1.0,760.0643326930367,1056.1629660256017)">  <path data-name="Layer 1" stroke="none" stroke-opacity="1" stroke-linejoin="miter" stroke-width="1px" fill="#000000" fill-opacity="1" fill-rule="nonzero" stroke-linecap="butt" stroke-miterlimit="4" stroke-dasharray="none" d="M18.386,0L18.386,6.563L8.322,6.563L8.322,62.844L18.332,62.844L18.332,69.193L0,69.193L0,0L18.386,0ZM18.386,0"/>
  <path stroke="none" fill-opacity="1" fill="#000000" data-name="Layer 1" stroke-miterlimit="4" stroke-width="1px" stroke-linejoin="miter" stroke-linecap="butt" fill-rule="nonzero" stroke-dasharray="none" stroke-opacity="1" d="M195.145,0C195.195,0.691,195.283,1.382,195.283,2.069C195.291,23.781,195.291,45.492,195.283,67.204C195.283,67.819,195.229,68.435,195.191,69.214L176.918,69.214L176.918,62.953L187.053,62.953L187.053,6.726L176.759,6.726L176.759,0C182.886,0,189.017,0,195.145,0ZM195.145,0"/>
  <path fill="#000000" fill-opacity="1" stroke-linecap="butt" stroke-linejoin="miter" data-name="Layer 1" stroke="none" fill-rule="nonzero" stroke-width="1px" stroke-dasharray="none" stroke-miterlimit="4" stroke-opacity="1" d="M36.961,55.636L36.961,3.82C39.302,3.82,41.58,3.707,43.829,3.895C44.453,3.945,45.128,4.804,45.572,5.436C53.668,16.971,61.73,28.53,69.809,40.081C70.223,40.676,70.684,41.241,71.405,42.188L71.405,3.979L79.345,3.979L79.345,55.783C77.105,55.783,74.763,55.879,72.447,55.711C71.895,55.669,71.317,54.811,70.902,54.22C62.819,42.678,54.756,31.114,46.69,19.559C46.3,19.002,45.886,18.47,45.191,17.536L45.191,55.64L36.961,55.64ZM36.961,55.636"/>
  <path stroke-linecap="butt" stroke-miterlimit="4" fill-opacity="1" stroke="none" stroke-width="1px" stroke-linejoin="miter" data-name="Layer 1" fill-rule="nonzero" fill="#000000" stroke-opacity="1" stroke-dasharray="none" d="M95.721,55.711L87.592,55.711L87.592,3.962C88.157,3.912,88.748,3.815,89.343,3.815C98.95,3.807,108.554,3.845,118.162,3.774C119.745,3.761,120.268,4.238,120.155,5.78C120.042,7.363,120.13,8.959,120.13,10.814L95.788,10.814L95.788,27.077L117.923,27.077L117.923,34.1L95.725,34.1L95.725,55.711ZM95.721,55.711"/>
  <path fill="#000000" data-name="Layer 1" fill-opacity="1" stroke-dasharray="none" stroke-linejoin="miter" stroke-miterlimit="4" fill-rule="nonzero" stroke-width="1px" stroke="none" stroke-opacity="1" stroke-linecap="butt" d="M137.98,10.893L122.199,10.893L122.199,3.979L162.004,3.979L162.004,10.831L146.269,10.831L146.269,55.653L137.984,55.653L137.984,10.893ZM137.98,10.893"/>
</g>
  <g id="Ultralight-M" transform="matrix(1.0,0.0,0.0,1.0,463.35433269303667,1056.1629660256017)">  <path stroke="none" stroke-miterlimit="4" stroke-linejoin="miter" stroke-linecap="butt" data-name="Layer 1" stroke-width="1px" fill-rule="nonzero" fill-opacity="1" fill="#000000" stroke-dasharray="none" stroke-opacity="1" d="M18.386,0L18.386,6.563L8.322,6.563L8.322,62.844L18.332,62.844L18.332,69.193L0,69.193L0,0L18.386,0ZM18.386,0"/>
  <path stroke="none" fill-rule="nonzero" stroke-linejoin="miter" stroke-dasharray="none" fill-opacity="1" fill="#000000" stroke-opacity="1" stroke-miterlimit="4" stroke-linecap="butt" stroke-width="1px" data-name="Layer 1" d="M195.145,0C195.195,0.691,195.283,1.382,195.283,2.069C195.291,23.781,195.291,45.492,195.283,67.204C195.283,67.819,195.229,68.435,195.191,69.214L176.918,69.214L176.918,62.953L187.053,62.953L187.053,6.726L176.759,6.726L176.759,0C182.886,0,189.017,0,195.145,0ZM195.145,0"/>
  <path stroke-width="1px" fill-rule="nonzero" fill-opacity="1" stroke-miterlimit="4" stroke-linecap="butt" stroke-opacity="1" data-name="Layer 1" stroke-linejoin="miter" fill="#000000" stroke-dasharray="none" stroke="none" d="M36.961,55.636L36.961,3.82C39.302,3.82,41.58,3.707,43.829,3.895C44.453,3.945,45.128,4.804,45.572,5.436C53.668,16.971,61.73,28.53,69.809,40.081C70.223,40.676,70.684,41.241,71.405,42.188L71.405,3.979L79.345,3.979L79.345,55.783C77.105,55.783,74.763,55.879,72.447,55.711C71.895,55.669,71.317,54.811,70.902,54.22C62.819,42.678,54.756,31.114,46.69,19.559C46.3,19.002,45.886,18.47,45.191,17.536L45.191,55.64L36.961,55.64ZM36.961,55.636"/>
  <path stroke-miterlimit="4" stroke-linecap="butt" stroke-width="1px" stroke-opacity="1" fill-rule="nonzero" fill-opacity="1" stroke-dasharray="none" stroke="none" stroke-linejoin="miter" fill="#000000" data-name="Layer 1" d="M95.721,55.711L87.592,55.711L87.592,3.962C88.157,3.912,88.748,3.815,89.343,3.815C98.95,3.807,108.554,3.845,118.162,3.774C119.745,3.761,120.268,4.238,120.155,5.78C120.042,7.363,120.13,8.959,120.13,10.814L95.788,10.814L95.788,27.077L117.923,27.077L117.923,34.1L95.725,34.1L95.725,55.711ZM95.721,55.711"/>
  <path stroke-linejoin="miter" fill="#000000" stroke-dasharray="none" fill-opacity="1" stroke-width="1px" stroke-opacity="1" fill-rule="nonzero" data-name="Layer 1" stroke-miterlimit="4" stroke-linecap="butt" stroke="none" d="M137.98,10.893L122.199,10.893L122.199,3.979L162.004,3.979L162.004,10.831L146.269,10.831L146.269,55.653L137.984,55.653L137.984,10.893ZM137.98,10.893"/>
</g>
  <g id="Black-S" transform="matrix(1.0,0.0,0.0,1.0,2858.2234424986477,633.6726966363274)">  <path stroke="none" stroke-miterlimit="4" fill="#000000" stroke-linejoin="miter" data-name="Layer 1" stroke-dasharray="none" fill-rule="nonzero" stroke-linecap="butt" stroke-opacity="1" fill-opacity="1" stroke-width="1px" d="M14.396,0L14.396,5.139L6.516,5.139L6.516,49.207L14.354,49.207L14.354,54.178L0,54.178L0,0L14.396,0ZM14.396,0"/>
  <path data-name="Layer 1" stroke-miterlimit="4" stroke-linejoin="miter" stroke-dasharray="none" stroke-opacity="1" stroke-linecap="butt" fill-rule="nonzero" stroke="none" stroke-width="1px" fill="#000000" fill-opacity="1" d="M152.798,0C152.838,0.541,152.907,1.082,152.907,1.62C152.913,18.62,152.913,35.62,152.907,52.621C152.907,53.103,152.864,53.585,152.834,54.195L138.527,54.195L138.527,49.292L146.463,49.292L146.463,5.267L138.402,5.267L138.402,0C143.2,0,148.001,0,152.798,0ZM152.798,0"/>
  <path data-name="Layer 1" fill="#000000" stroke-linecap="butt" stroke-miterlimit="4" stroke-opacity="1" stroke="none" fill-rule="nonzero" stroke-width="1px" stroke-linejoin="miter" fill-opacity="1" stroke-dasharray="none" d="M28.94,43.563L28.94,2.991C30.773,2.991,32.557,2.902,34.318,3.05C34.807,3.089,35.335,3.761,35.683,4.257C42.022,13.288,48.334,22.339,54.66,31.383C54.985,31.849,55.346,32.292,55.91,33.033L55.91,3.115L62.127,3.115L62.127,43.678C60.373,43.678,58.54,43.753,56.726,43.622C56.293,43.589,55.841,42.917,55.516,42.455C49.187,33.417,42.874,24.362,36.558,15.315C36.253,14.878,35.929,14.462,35.384,13.731L35.384,43.566L28.94,43.566ZM28.94,43.563"/>
  <path stroke-miterlimit="4" stroke-linecap="butt" stroke-dasharray="none" data-name="Layer 1" stroke-linejoin="miter" stroke-opacity="1" stroke="none" fill-opacity="1" fill="#000000" stroke-width="1px" fill-rule="nonzero" d="M74.95,43.622L68.584,43.622L68.584,3.102C69.027,3.063,69.49,2.987,69.955,2.987C77.478,2.981,84.998,3.01,92.52,2.955C93.76,2.945,94.17,3.319,94.081,4.526C93.993,5.765,94.062,7.015,94.062,8.467L75.002,8.467L75.002,21.201L92.334,21.201L92.334,26.701L74.953,26.701L74.953,43.622ZM74.95,43.622"/>
  <path stroke-miterlimit="4" stroke-dasharray="none" stroke="none" fill-rule="nonzero" stroke-width="1px" stroke-opacity="1" stroke-linejoin="miter" data-name="Layer 1" fill-opacity="1" fill="#000000" stroke-linecap="butt" d="M108.038,8.53L95.682,8.53L95.682,3.115L126.849,3.115L126.849,8.48L114.528,8.48L114.528,43.576L108.042,43.576L108.042,8.53ZM108.038,8.53"/>
</g>
  <g id="Heavy-S" transform="matrix(1.0,0.0,0.0,1.0,2561.5134424986477,633.6726966363274)">  <path stroke-width="1px" stroke="none" stroke-opacity="1" data-name="Layer 1" fill-rule="nonzero" stroke-miterlimit="4" fill="#000000" stroke-linejoin="miter" fill-opacity="1" stroke-linecap="butt" stroke-dasharray="none" d="M14.396,0L14.396,5.139L6.516,5.139L6.516,49.207L14.354,49.207L14.354,54.178L0,54.178L0,0L14.396,0ZM14.396,0"/>
  <path stroke-dasharray="none" stroke-width="1px" stroke-opacity="1" stroke-miterlimit="4" stroke="none" data-name="Layer 1" stroke-linecap="butt" fill-opacity="1" stroke-linejoin="miter" fill-rule="nonzero" fill="#000000" d="M152.798,0C152.838,0.541,152.907,1.082,152.907,1.62C152.913,18.62,152.913,35.62,152.907,52.621C152.907,53.103,152.864,53.585,152.834,54.195L138.527,54.195L138.527,49.292L146.463,49.292L146.463,5.267L138.402,5.267L138.402,0C143.2,0,148.001,0,152.798,0ZM152.798,0"/>
  <path stroke-linejoin="miter" stroke-dasharray="none" fill-opacity="1" stroke-opacity="1" stroke-width="1px" stroke-linecap="butt" stroke="none" fill-rule="nonzero" fill="#000000" stroke-miterlimit="4" data-name="Layer 1" d="M28.94,43.563L28.94,2.991C30.773,2.991,32.557,2.902,34.318,3.05C34.807,3.089,35.335,3.761,35.683,4.257C42.022,13.288,48.334,22.339,54.66,31.383C54.985,31.849,55.346,32.292,55.91,33.033L55.91,3.115L62.127,3.115L62.127,43.678C60.373,43.678,58.54,43.753,56.726,43.622C56.293,43.589,55.841,42.917,55.516,42.455C49.187,33.417,42.874,24.362,36.558,15.315C36.253,14.878,35.929,14.462,35.384,13.731L35.384,43.566L28.94,43.566ZM28.94,43.563"/>
  <path stroke-dasharray="none" fill="#000000" stroke="none" stroke-linecap="butt" data-name="Layer 1" stroke-linejoin="miter" stroke-width="1px" fill-rule="nonzero" stroke-opacity="1" fill-opacity="1" stroke-miterlimit="4" d="M74.95,43.622L68.584,43.622L68.584,3.102C69.027,3.063,69.49,2.987,69.955,2.987C77.478,2.981,84.998,3.01,92.52,2.955C93.76,2.945,94.17,3.319,94.081,4.526C93.993,5.765,94.062,7.015,94.062,8.467L75.002,8.467L75.002,21.201L92.334,21.201L92.334,26.701L74.953,26.701L74.953,43.622ZM74.95,43.622"/>
  <path stroke-dasharray="none" fill="#000000" stroke-miterlimit="4" stroke-opacity="1" fill-rule="nonzero" stroke-linejoin="miter" stroke="none" data-name="Layer 1" stroke-width="1px" stroke-linecap="butt" fill-opacity="1" d="M108.038,8.53L95.682,8.53L95.682,3.115L126.849,3.115L126.849,8.48L114.528,8.48L114.528,43.576L108.042,43.576L108.042,8.53ZM108.038,8.53"/>
</g>
  <g id="Bold-S" transform="matrix(1.0,0.0,0.0,1.0,2264.8034424986477,633.6726966363274)">  <path fill-opacity="1" stroke-opacity="1" stroke-width="1px" stroke-miterlimit="4" fill-rule="nonzero" data-name="Layer 1" stroke="none" stroke-dasharray="none" stroke-linejoin="miter" stroke-linecap="butt" fill="#000000" d="M14.396,0L14.396,5.139L6.516,5.139L6.516,49.207L14.354,49.207L14.354,54.178L0,54.178L0,0L14.396,0ZM14.396,0"/>
  <path fill-rule="nonzero" stroke-dasharray="none" stroke-linecap="butt" stroke-opacity="1" stroke-miterlimit="4" stroke-linejoin="miter" fill-opacity="1" stroke-width="1px" fill="#000000" stroke="none" data-name="Layer 1" d="M152.798,0C152.838,0.541,152.907,1.082,152.907,1.62C152.913,18.62,152.913,35.62,152.907,52.621C152.907,53.103,152.864,53.585,152.834,54.195L138.527,54.195L138.527,49.292L146.463,49.292L146.463,5.267L138.402,5.267L138.402,0C143.2,0,148.001,0,152.798,0ZM152.798,0"/>
  <path stroke-opacity="1" fill="#000000" stroke-linejoin="miter" stroke-miterlimit="4" stroke-linecap="butt" fill-rule="nonzero" stroke-dasharray="none" data-name="Layer 1" stroke-width="1px" stroke="none" fill-opacity="1" d="M28.94,43.563L28.94,2.991C30.773,2.991,32.557,2.902,34.318,3.05C34.807,3.089,35.335,3.761,35.683,4.257C42.022,13.288,48.334,22.339,54.66,31.383C54.985,31.849,55.346,32.292,55.91,33.033L55.91,3.115L62.127,3.115L62.127,43.678C60.373,43.678,58.54,43.753,56.726,43.622C56.293,43.589,55.841,42.917,55.516,42.455C49.187,33.417,42.874,24.362,36.558,15.315C36.253,14.878,35.929,14.462,35.384,13.731L35.384,43.566L28.94,43.566ZM28.94,43.563"/>
  <path fill-opacity="1" stroke-miterlimit="4" fill-rule="nonzero" data-name="Layer 1" stroke="none" stroke-linejoin="miter" stroke-dasharray="none" stroke-width="1px" stroke-opacity="1" stroke-linecap="butt" fill="#000000" d="M74.95,43.622L68.584,43.622L68.584,3.102C69.027,3.063,69.49,2.987,69.955,2.987C77.478,2.981,84.998,3.01,92.52,2.955C93.76,2.945,94.17,3.319,94.081,4.526C93.993,5.765,94.062,7.015,94.062,8.467L75.002,8.467L75.002,21.201L92.334,21.201L92.334,26.701L74.953,26.701L74.953,43.622ZM74.95,43.622"/>
  <path stroke-miterlimit="4" stroke-dasharray="none" stroke-linecap="butt" fill-opacity="1" data-name="Layer 1" stroke="none" stroke-opacity="1" fill-rule="nonzero" stroke-width="1px" stroke-linejoin="miter" fill="#000000" d="M108.038,8.53L95.682,8.53L95.682,3.115L126.849,3.115L126.849,8.48L114.528,8.48L114.528,43.576L108.042,43.576L108.042,8.53ZM108.038,8.53"/>
</g>
  <g id="Semibold-S" transform="matrix(1.0,0.0,0.0,1.0,1968.0934424986476,633.6726966363274)">  <path stroke-linejoin="miter" stroke-miterlimit="4" stroke-linecap="butt" stroke-opacity="1" stroke-dasharray="none" fill-opacity="1" stroke-width="1px" stroke="none" fill-rule="nonzero" data-name="Layer 1" fill="#000000" d="M14.396,0L14.396,5.139L6.516,5.139L6.516,49.207L14.354,49.207L14.354,54.178L0,54.178L0,0L14.396,0ZM14.396,0"/>
  <path stroke-opacity="1" stroke="none" stroke-linejoin="miter" stroke-dasharray="none" fill-opacity="1" data-name="Layer 1" stroke-width="1px" fill="#000000" stroke-linecap="butt" stroke-miterlimit="4" fill-rule="nonzero" d="M152.798,0C152.838,0.541,152.907,1.082,152.907,1.62C152.913,18.62,152.913,35.62,152.907,52.621C152.907,53.103,152.864,53.585,152.834,54.195L138.527,54.195L138.527,49.292L146.463,49.292L146.463,5.267L138.402,5.267L138.402,0C143.2,0,148.001,0,152.798,0ZM152.798,0"/>
  <path stroke="none" fill-rule="nonzero" fill-opacity="1" stroke-linejoin="miter" stroke-width="1px" fill="#000000" stroke-opacity="1" stroke-miterlimit="4" stroke-dasharray="none" data-name="Layer 1" stroke-linecap="butt" d="M28.94,43.563L28.94,2.991C30.773,2.991,32.557,2.902,34.318,3.05C34.807,3.089,35.335,3.761,35.683,4.257C42.022,13.288,48.334,22.339,54.66,31.383C54.985,31.849,55.346,32.292,55.91,33.033L55.91,3.115L62.127,3.115L62.127,43.678C60.373,43.678,58.54,43.753,56.726,43.622C56.293,43.589,55.841,42.917,55.516,42.455C49.187,33.417,42.874,24.362,36.558,15.315C36.253,14.878,35.929,14.462,35.384,13.731L35.384,43.566L28.94,43.566ZM28.94,43.563"/>
  <path stroke-dasharray="none" stroke-linecap="butt" stroke-opacity="1" fill="#000000" fill-rule="nonzero" stroke-miterlimit="4" stroke-linejoin="miter" stroke-width="1px" stroke="none" data-name="Layer 1" fill-opacity="1" d="M74.95,43.622L68.584,43.622L68.584,3.102C69.027,3.063,69.49,2.987,69.955,2.987C77.478,2.981,84.998,3.01,92.52,2.955C93.76,2.945,94.17,3.319,94.081,4.526C93.993,5.765,94.062,7.015,94.062,8.467L75.002,8.467L75.002,21.201L92.334,21.201L92.334,26.701L74.953,26.701L74.953,43.622ZM74.95,43.622"/>
  <path stroke-linecap="butt" stroke="none" stroke-opacity="1" fill="#000000" fill-rule="nonzero" stroke-miterlimit="4" fill-opacity="1" data-name="Layer 1" stroke-dasharray="none" stroke-linejoin="miter" stroke-width="1px" d="M108.038,8.53L95.682,8.53L95.682,3.115L126.849,3.115L126.849,8.48L114.528,8.48L114.528,43.576L108.042,43.576L108.042,8.53ZM108.038,8.53"/>
</g>
  <g id="Medium-S" transform="matrix(1.0,0.0,0.0,1.0,1671.3834424986476,633.6726966363274)">  <path stroke-dasharray="none" stroke="none" fill-rule="nonzero" data-name="Layer 1" stroke-linejoin="miter" fill-opacity="1" stroke-width="1px" stroke-linecap="butt" fill="#000000" stroke-opacity="1" stroke-miterlimit="4" d="M14.396,0L14.396,5.139L6.516,5.139L6.516,49.207L14.354,49.207L14.354,54.178L0,54.178L0,0L14.396,0ZM14.396,0"/>
  <path stroke-linecap="butt" stroke-linejoin="miter" data-name="Layer 1" stroke-opacity="1" fill-opacity="1" stroke="none" fill-rule="nonzero" stroke-dasharray="none" stroke-miterlimit="4" stroke-width="1px" fill="#000000" d="M152.798,0C152.838,0.541,152.907,1.082,152.907,1.62C152.913,18.62,152.913,35.62,152.907,52.621C152.907,53.103,152.864,53.585,152.834,54.195L138.527,54.195L138.527,49.292L146.463,49.292L146.463,5.267L138.402,5.267L138.402,0C143.2,0,148.001,0,152.798,0ZM152.798,0"/>
  <path stroke-dasharray="none" stroke-linejoin="miter" stroke-opacity="1" fill-rule="nonzero" stroke-width="1px" stroke="none" fill-opacity="1" stroke-miterlimit="4" data-name="Layer 1" stroke-linecap="butt" fill="#000000" d="M28.94,43.563L28.94,2.991C30.773,2.991,32.557,2.902,34.318,3.05C34.807,3.089,35.335,3.761,35.683,4.257C42.022,13.288,48.334,22.339,54.66,31.383C54.985,31.849,55.346,32.292,55.91,33.033L55.91,3.115L62.127,3.115L62.127,43.678C60.373,43.678,58.54,43.753,56.726,43.622C56.293,43.589,55.841,42.917,55.516,42.455C49.187,33.417,42.874,24.362,36.558,15.315C36.253,14.878,35.929,14.462,35.384,13.731L35.384,43.566L28.94,43.566ZM28.94,43.563"/>
  <path fill-rule="nonzero" stroke-linecap="butt" stroke-width="1px" fill="#000000" stroke="none" stroke-dasharray="none" fill-opacity="1" stroke-opacity="1" stroke-miterlimit="4" data-name="Layer 1" stroke-linejoin="miter" d="M74.95,43.622L68.584,43.622L68.584,3.102C69.027,3.063,69.49,2.987,69.955,2.987C77.478,2.981,84.998,3.01,92.52,2.955C93.76,2.945,94.17,3.319,94.081,4.526C93.993,5.765,94.062,7.015,94.062,8.467L75.002,8.467L75.002,21.201L92.334,21.201L92.334,26.701L74.953,26.701L74.953,43.622ZM74.95,43.622"/>
  <path fill-opacity="1" fill-rule="nonzero" stroke-miterlimit="4" stroke-dasharray="none" stroke-opacity="1" stroke-width="1px" data-name="Layer 1" stroke="none" stroke-linecap="butt" fill="#000000" stroke-linejoin="miter" d="M108.038,8.53L95.682,8.53L95.682,3.115L126.849,3.115L126.849,8.48L114.528,8.48L114.528,43.576L108.042,43.576L108.042,8.53ZM108.038,8.53"/>
</g>
  <g id="Regular-S" transform="matrix(1.0,0.0,0.0,1.0,1374.6734424986475,633.6726966363274)">  <path fill="#000000" stroke-linecap="butt" fill-rule="nonzero" stroke="none" stroke-opacity="1" stroke-miterlimit="4" stroke-linejoin="miter" fill-opacity="1" stroke-width="1px" stroke-dasharray="none" data-name="Layer 1" d="M14.396,0L14.396,5.139L6.516,5.139L6.516,49.207L14.354,49.207L14.354,54.178L0,54.178L0,0L14.396,0ZM14.396,0"/>
  <path stroke-linejoin="miter" stroke-opacity="1" stroke-width="1px" stroke-dasharray="none" fill-rule="nonzero" data-name="Layer 1" stroke-miterlimit="4" stroke-linecap="butt" fill="#000000" stroke="none" fill-opacity="1" d="M152.798,0C152.838,0.541,152.907,1.082,152.907,1.62C152.913,18.62,152.913,35.62,152.907,52.621C152.907,53.103,152.864,53.585,152.834,54.195L138.527,54.195L138.527,49.292L146.463,49.292L146.463,5.267L138.402,5.267L138.402,0C143.2,0,148.001,0,152.798,0ZM152.798,0"/>
  <path stroke-opacity="1" fill-opacity="1" fill-rule="nonzero" stroke-dasharray="none" stroke-linecap="butt" fill="#000000" stroke="none" data-name="Layer 1" stroke-miterlimit="4" stroke-linejoin="miter" stroke-width="1px" d="M28.94,43.563L28.94,2.991C30.773,2.991,32.557,2.902,34.318,3.05C34.807,3.089,35.335,3.761,35.683,4.257C42.022,13.288,48.334,22.339,54.66,31.383C54.985,31.849,55.346,32.292,55.91,33.033L55.91,3.115L62.127,3.115L62.127,43.678C60.373,43.678,58.54,43.753,56.726,43.622C56.293,43.589,55.841,42.917,55.516,42.455C49.187,33.417,42.874,24.362,36.558,15.315C36.253,14.878,35.929,14.462,35.384,13.731L35.384,43.566L28.94,43.566ZM28.94,43.563"/>
  <path stroke-opacity="1" stroke="none" stroke-linecap="butt" stroke-miterlimit="4" data-name="Layer 1" stroke-width="1px" fill="#000000" fill-rule="nonzero" stroke-linejoin="miter" fill-opacity="1" stroke-dasharray="none" d="M74.95,43.622L68.584,43.622L68.584,3.102C69.027,3.063,69.49,2.987,69.955,2.987C77.478,2.981,84.998,3.01,92.52,2.955C93.76,2.945,94.17,3.319,94.081,4.526C93.993,5.765,94.062,7.015,94.062,8.467L75.002,8.467L75.002,21.201L92.334,21.201L92.334,26.701L74.953,26.701L74.953,43.622ZM74.95,43.622"/>
  <path stroke-opacity="1" stroke-linecap="butt" fill-rule="nonzero" fill="#000000" stroke-dasharray="none" data-name="Layer 1" stroke-linejoin="miter" stroke="none" stroke-miterlimit="4" stroke-width="1px" fill-opacity="1" d="M108.038,8.53L95.682,8.53L95.682,3.115L126.849,3.115L126.849,8.48L114.528,8.48L114.528,43.576L108.042,43.576L108.042,8.53ZM108.038,8.53"/>
</g>
  <g id="Light-S" transform="matrix(1.0,0.0,0.0,1.0,1077.9634424986477,633.6726966363274)">  <path fill-rule="nonzero" data-name="Layer 1" stroke-linejoin="miter" stroke-opacity="1" fill-opacity="1" fill="#000000" stroke-dasharray="none" stroke="none" stroke-width="1px" stroke-miterlimit="4" stroke-linecap="butt" d="M14.396,0L14.396,5.139L6.516,5.139L6.516,49.207L14.354,49.207L14.354,54.178L0,54.178L0,0L14.396,0ZM14.396,0"/>
  <path stroke="none" stroke-dasharray="none" stroke-linejoin="miter" data-name="Layer 1" fill="#000000" stroke-miterlimit="4" stroke-width="1px" fill-rule="nonzero" stroke-opacity="1" fill-opacity="1" stroke-linecap="butt" d="M152.798,0C152.838,0.541,152.907,1.082,152.907,1.62C152.913,18.62,152.913,35.62,152.907,52.621C152.907,53.103,152.864,53.585,152.834,54.195L138.527,54.195L138.527,49.292L146.463,49.292L146.463,5.267L138.402,5.267L138.402,0C143.2,0,148.001,0,152.798,0ZM152.798,0"/>
  <path stroke="none" fill-rule="nonzero" stroke-opacity="1" stroke-width="1px" stroke-linejoin="miter" stroke-miterlimit="4" fill="#000000" stroke-linecap="butt" fill-opacity="1" data-name="Layer 1" stroke-dasharray="none" d="M28.94,43.563L28.94,2.991C30.773,2.991,32.557,2.902,34.318,3.05C34.807,3.089,35.335,3.761,35.683,4.257C42.022,13.288,48.334,22.339,54.66,31.383C54.985,31.849,55.346,32.292,55.91,33.033L55.91,3.115L62.127,3.115L62.127,43.678C60.373,43.678,58.54,43.753,56.726,43.622C56.293,43.589,55.841,42.917,55.516,42.455C49.187,33.417,42.874,24.362,36.558,15.315C36.253,14.878,35.929,14.462,35.384,13.731L35.384,43.566L28.94,43.566ZM28.94,43.563"/>
  <path stroke-linejoin="miter" stroke-opacity="1" stroke-width="1px" fill-rule="nonzero" stroke-linecap="butt" fill-opacity="1" data-name="Layer 1" stroke-dasharray="none" stroke-miterlimit="4" stroke="none" fill="#000000" d="M74.95,43.622L68.584,43.622L68.584,3.102C69.027,3.063,69.49,2.987,69.955,2.987C77.478,2.981,84.998,3.01,92.52,2.955C93.76,2.945,94.17,3.319,94.081,4.526C93.993,5.765,94.062,7.015,94.062,8.467L75.002,8.467L75.002,21.201L92.334,21.201L92.334,26.701L74.953,26.701L74.953,43.622ZM74.95,43.622"/>
  <path fill-rule="nonzero" fill="#000000" stroke-linejoin="miter" stroke-width="1px" data-name="Layer 1" stroke-miterlimit="4" stroke-opacity="1" stroke="none" stroke-dasharray="none" stroke-linecap="butt" fill-opacity="1" d="M108.038,8.53L95.682,8.53L95.682,3.115L126.849,3.115L126.849,8.48L114.528,8.48L114.528,43.576L108.042,43.576L108.042,8.53ZM108.038,8.53"/>
</g>
  <g id="Thin-S" transform="matrix(1.0,0.0,0.0,1.0,781.2534424986477,633.6726966363274)">  <path data-name="Layer 1" stroke="none" stroke-opacity="1" stroke-linejoin="miter" stroke-width="1px" fill="#000000" fill-opacity="1" fill-rule="nonzero" stroke-linecap="butt" stroke-miterlimit="4" stroke-dasharray="none" d="M14.396,0L14.396,5.139L6.516,5.139L6.516,49.207L14.354,49.207L14.354,54.178L0,54.178L0,0L14.396,0ZM14.396,0"/>
  <path stroke="none" fill-opacity="1" fill="#000000" data-name="Layer 1" stroke-miterlimit="4" stroke-width="1px" stroke-linejoin="miter" stroke-linecap="butt" fill-rule="nonzero" stroke-dasharray="none" stroke-opacity="1" d="M152.798,0C152.838,0.541,152.907,1.082,152.907,1.62C152.913,18.62,152.913,35.62,152.907,52.621C152.907,53.103,152.864,53.585,152.834,54.195L138.527,54.195L138.527,49.292L146.463,49.292L146.463,5.267L138.402,5.267L138.402,0C143.2,0,148.001,0,152.798,0ZM152.798,0"/>
  <path fill="#000000" fill-opacity="1" stroke-linecap="butt" stroke-linejoin="miter" data-name="Layer 1" stroke="none" fill-rule="nonzero" stroke-width="1px" stroke-dasharray="none" stroke-miterlimit="4" stroke-opacity="1" d="M28.94,43.563L28.94,2.991C30.773,2.991,32.557,2.902,34.318,3.05C34.807,3.089,35.335,3.761,35.683,4.257C42.022,13.288,48.334,22.339,54.66,31.383C54.985,31.849,55.346,32.292,55.91,33.033L55.91,3.115L62.127,3.115L62.127,43.678C60.373,43.678,58.54,43.753,56.726,43.622C56.293,43.589,55.841,42.917,55.516,42.455C49.187,33.417,42.874,24.362,36.558,15.315C36.253,14.878,35.929,14.462,35.384,13.731L35.384,43.566L28.94,43.566ZM28.94,43.563"/>
  <path stroke-linecap="butt" stroke-miterlimit="4" fill-opacity="1" stroke="none" stroke-width="1px" stroke-linejoin="miter" data-name="Layer 1" fill-rule="nonzero" fill="#000000" stroke-opacity="1" stroke-dasharray="none" d="M74.95,43.622L68.584,43.622L68.584,3.102C69.027,3.063,69.49,2.987,69.955,2.987C77.478,2.981,84.998,3.01,92.52,2.955C93.76,2.945,94.17,3.319,94.081,4.526C93.993,5.765,94.062,7.015,94.062,8.467L75.002,8.467L75.002,21.201L92.334,21.201L92.334,26.701L74.953,26.701L74.953,43.622ZM74.95,43.622"/>
  <path fill="#000000" data-name="Layer 1" fill-opacity="1" stroke-dasharray="none" stroke-linejoin="miter" stroke-miterlimit="4" fill-rule="nonzero" stroke-width="1px" stroke="none" stroke-opacity="1" stroke-linecap="butt" d="M108.038,8.53L95.682,8.53L95.682,3.115L126.849,3.115L126.849,8.48L114.528,8.48L114.528,43.576L108.042,43.576L108.042,8.53ZM108.038,8.53"/>
</g>
  <g id="Ultralight-S" transform="matrix(1.0,0.0,0.0,1.0,484.5434424986477,633.6726966363274)">  <path stroke="none" stroke-miterlimit="4" stroke-linejoin="miter" stroke-linecap="butt" data-name="Layer 1" stroke-width="1px" fill-rule="nonzero" fill-opacity="1" fill="#000000" stroke-dasharray="none" stroke-opacity="1" d="M14.396,0L14.396,5.139L6.516,5.139L6.516,49.207L14.354,49.207L14.354,54.178L0,54.178L0,0L14.396,0ZM14.396,0"/>
  <path stroke="none" fill-rule="nonzero" stroke-linejoin="miter" stroke-dasharray="none" fill-opacity="1" fill="#000000" stroke-opacity="1" stroke-miterlimit="4" stroke-linecap="butt" stroke-width="1px" data-name="Layer 1" d="M152.798,0C152.838,0.541,152.907,1.082,152.907,1.62C152.913,18.62,152.913,35.62,152.907,52.621C152.907,53.103,152.864,53.585,152.834,54.195L138.527,54.195L138.527,49.292L146.463,49.292L146.463,5.267L138.402,5.267L138.402,0C143.2,0,148.001,0,152.798,0ZM152.798,0"/>
  <path stroke-width="1px" fill-rule="nonzero" fill-opacity="1" stroke-miterlimit="4" stroke-linecap="butt" stroke-opacity="1" data-name="Layer 1" stroke-linejoin="miter" fill="#000000" stroke-dasharray="none" stroke="none" d="M28.94,43.563L28.94,2.991C30.773,2.991,32.557,2.902,34.318,3.05C34.807,3.089,35.335,3.761,35.683,4.257C42.022,13.288,48.334,22.339,54.66,31.383C54.985,31.849,55.346,32.292,55.91,33.033L55.91,3.115L62.127,3.115L62.127,43.678C60.373,43.678,58.54,43.753,56.726,43.622C56.293,43.589,55.841,42.917,55.516,42.455C49.187,33.417,42.874,24.362,36.558,15.315C36.253,14.878,35.929,14.462,35.384,13.731L35.384,43.566L28.94,43.566ZM28.94,43.563"/>
  <path stroke-miterlimit="4" stroke-linecap="butt" stroke-width="1px" stroke-opacity="1" fill-rule="nonzero" fill-opacity="1" stroke-dasharray="none" stroke="none" stroke-linejoin="miter" fill="#000000" data-name="Layer 1" d="M74.95,43.622L68.584,43.622L68.584,3.102C69.027,3.063,69.49,2.987,69.955,2.987C77.478,2.981,84.998,3.01,92.52,2.955C93.76,2.945,94.17,3.319,94.081,4.526C93.993,5.765,94.062,7.015,94.062,8.467L75.002,8.467L75.002,21.201L92.334,21.201L92.334,26.701L74.953,26.701L74.953,43.622ZM74.95,43.622"/>
  <path stroke-linejoin="miter" fill="#000000" stroke-dasharray="none" fill-opacity="1" stroke-width="1px" stroke-opacity="1" fill-rule="nonzero" data-name="Layer 1" stroke-miterlimit="4" stroke-linecap="butt" stroke="none" d="M108.038,8.53L95.682,8.53L95.682,3.115L126.849,3.115L126.849,8.48L114.528,8.48L114.528,43.576L108.042,43.576L108.042,8.53ZM108.038,8.53"/>
</g>
 </g>
</svg>
