<?xml version="1.0" encoding="UTF-8"?>
<!--Generator: Apple Native CoreSVG 175.5-->
<!DOCTYPE svg
PUBLIC "-//W3C//DTD SVG 1.1//EN"
       "http://www.w3.org/Graphics/SVG/1.1/DTD/svg11.dtd">
<svg version="1.1" xmlns="http://www.w3.org/2000/svg" xmlns:xlink="http://www.w3.org/1999/xlink" width="3300" height="2200">
 <!--glyph: "", point size: 100.0, font version: "18.0d12e2", template writer version: "101"-->
 <g id="Notes">
  <rect height="2200" id="artboard" style="fill:white;opacity:1" width="3300" x="0" y="0"/>
  <line style="fill:none;stroke:black;opacity:1;stroke-width:0.5;" x1="263" x2="3036" y1="292" y2="292"/>
  <text style="stroke:none;fill:black;font-family:sans-serif;font-size:13;font-weight:bold;" transform="matrix(1 0 0 1 263 322)">Weight/Scale Variations</text>
  <text style="stroke:none;fill:black;font-family:sans-serif;font-size:13;text-anchor:middle;" transform="matrix(1 0 0 1 559.711 322)">Ultralight</text>
  <text style="stroke:none;fill:black;font-family:sans-serif;font-size:13;text-anchor:middle;" transform="matrix(1 0 0 1 856.422 322)">Thin</text>
  <text style="stroke:none;fill:black;font-family:sans-serif;font-size:13;text-anchor:middle;" transform="matrix(1 0 0 1 1153.13 322)">Light</text>
  <text style="stroke:none;fill:black;font-family:sans-serif;font-size:13;text-anchor:middle;" transform="matrix(1 0 0 1 1449.84 322)">Regular</text>
  <text style="stroke:none;fill:black;font-family:sans-serif;font-size:13;text-anchor:middle;" transform="matrix(1 0 0 1 1746.56 322)">Medium</text>
  <text style="stroke:none;fill:black;font-family:sans-serif;font-size:13;text-anchor:middle;" transform="matrix(1 0 0 1 2043.27 322)">Semibold</text>
  <text style="stroke:none;fill:black;font-family:sans-serif;font-size:13;text-anchor:middle;" transform="matrix(1 0 0 1 2339.98 322)">Bold</text>
  <text style="stroke:none;fill:black;font-family:sans-serif;font-size:13;text-anchor:middle;" transform="matrix(1 0 0 1 2636.69 322)">Heavy</text>
  <text style="stroke:none;fill:black;font-family:sans-serif;font-size:13;text-anchor:middle;" transform="matrix(1 0 0 1 2933.4 322)">Black</text>
  <line style="fill:none;stroke:black;opacity:1;stroke-width:0.5;" x1="263" x2="3036" y1="1903" y2="1903"/>
  <g transform="matrix(1 0 0 1 263 1933)">
   <path d="M9.24805 0.830078C13.5547 0.830078 17.1387-2.74414 17.1387-7.05078C17.1387-11.3574 13.5449-14.9316 9.23828-14.9316C4.94141-14.9316 1.36719-11.3574 1.36719-7.05078C1.36719-2.74414 4.95117 0.830078 9.24805 0.830078ZM9.24805-0.654297C5.70312-0.654297 2.87109-3.49609 2.87109-7.05078C2.87109-10.6055 5.69336-13.4473 9.23828-13.4473C12.793-13.4473 15.6445-10.6055 15.6445-7.05078C15.6445-3.49609 12.8027-0.654297 9.24805-0.654297ZM5.6543-7.05078C5.6543-6.62109 5.95703-6.32812 6.40625-6.32812L8.50586-6.32812L8.50586-4.20898C8.50586-3.76953 8.79883-3.4668 9.22852-3.4668C9.67773-3.4668 9.9707-3.76953 9.9707-4.20898L9.9707-6.32812L12.0898-6.32812C12.5293-6.32812 12.832-6.62109 12.832-7.05078C12.832-7.49023 12.5293-7.79297 12.0898-7.79297L9.9707-7.79297L9.9707-9.90234C9.9707-10.3516 9.67773-10.6543 9.22852-10.6543C8.79883-10.6543 8.50586-10.3516 8.50586-9.90234L8.50586-7.79297L6.40625-7.79297C5.95703-7.79297 5.6543-7.49023 5.6543-7.05078Z"/>
  </g>
  <g transform="matrix(1 0 0 1 281.867 1933)">
   <path d="M11.709 2.91016C17.1582 2.91016 21.6699-1.61133 21.6699-7.05078C21.6699-12.5 17.1484-17.0117 11.6992-17.0117C6.25977-17.0117 1.74805-12.5 1.74805-7.05078C1.74805-1.61133 6.26953 2.91016 11.709 2.91016ZM11.709 1.25C7.09961 1.25 3.41797-2.44141 3.41797-7.05078C3.41797-11.6602 7.08984-15.3516 11.6992-15.3516C16.3086-15.3516 20.0098-11.6602 20.0098-7.05078C20.0098-2.44141 16.3184 1.25 11.709 1.25ZM7.17773-7.05078C7.17773-6.57227 7.50977-6.25 8.00781-6.25L10.8789-6.25L10.8789-3.36914C10.8789-2.88086 11.2109-2.53906 11.6895-2.53906C12.1777-2.53906 12.5195-2.87109 12.5195-3.36914L12.5195-6.25L15.4004-6.25C15.8887-6.25 16.2305-6.57227 16.2305-7.05078C16.2305-7.53906 15.8887-7.88086 15.4004-7.88086L12.5195-7.88086L12.5195-10.752C12.5195-11.25 12.1777-11.5918 11.6895-11.5918C11.2109-11.5918 10.8789-11.25 10.8789-10.752L10.8789-7.88086L8.00781-7.88086C7.50977-7.88086 7.17773-7.53906 7.17773-7.05078Z"/>
  </g>
  <g transform="matrix(1 0 0 1 305.646 1933)">
   <path d="M14.9707 5.66406C21.9336 5.66406 27.6953-0.0976562 27.6953-7.05078C27.6953-14.0137 21.9238-19.7754 14.9609-19.7754C8.00781-19.7754 2.25586-14.0137 2.25586-7.05078C2.25586-0.0976562 8.01758 5.66406 14.9707 5.66406ZM14.9707 3.84766C8.93555 3.84766 4.08203-1.01562 4.08203-7.05078C4.08203-13.0957 8.92578-17.9492 14.9609-17.9492C21.0059-17.9492 25.8691-13.0957 25.8691-7.05078C25.8691-1.01562 21.0156 3.84766 14.9707 3.84766ZM9.19922-7.05078C9.19922-6.5332 9.57031-6.17188 10.1172-6.17188L14.0625-6.17188L14.0625-2.2168C14.0625-1.67969 14.4336-1.29883 14.9512-1.29883C15.4883-1.29883 15.8594-1.66992 15.8594-2.2168L15.8594-6.17188L19.8145-6.17188C20.3516-6.17188 20.7324-6.5332 20.7324-7.05078C20.7324-7.59766 20.3613-7.96875 19.8145-7.96875L15.8594-7.96875L15.8594-11.9141C15.8594-12.4609 15.4883-12.8418 14.9512-12.8418C14.4336-12.8418 14.0625-12.4609 14.0625-11.9141L14.0625-7.96875L10.1172-7.96875C9.57031-7.96875 9.19922-7.59766 9.19922-7.05078Z"/>
  </g>
  <text style="stroke:none;fill:black;font-family:sans-serif;font-size:13;font-weight:bold;" transform="matrix(1 0 0 1 263 1953)">Design Variations</text>
  <text style="stroke:none;fill:black;font-family:sans-serif;font-size:13;" transform="matrix(1 0 0 1 263 1971)">Symbols are supported in up to nine weights and three scales.</text>
  <text style="stroke:none;fill:black;font-family:sans-serif;font-size:13;" transform="matrix(1 0 0 1 263 1989)">For optimal layout with text and other symbols, vertically align</text>
  <text style="stroke:none;fill:black;font-family:sans-serif;font-size:13;" transform="matrix(1 0 0 1 263 2007)">symbols with the adjacent text.</text>
  <line style="fill:none;stroke:#00AEEF;stroke-width:0.5;opacity:1.0;" x1="776" x2="776" y1="1919" y2="1933"/>
  <g transform="matrix(1 0 0 1 776 1933)">
   <path d="M3.31055 0.15625C3.82812 0.15625 4.08203-0.0390625 4.26758-0.585938L5.52734-4.0332L11.2891-4.0332L12.5488-0.585938C12.7344-0.0390625 12.9883 0.15625 13.4961 0.15625C14.0137 0.15625 14.3457-0.15625 14.3457-0.644531C14.3457-0.810547 14.3164-0.966797 14.2383-1.17188L9.6582-13.3691C9.43359-13.9648 9.0332-14.2676 8.4082-14.2676C7.80273-14.2676 7.39258-13.9746 7.17773-13.3789L2.59766-1.16211C2.51953-0.957031 2.49023-0.800781 2.49023-0.634766C2.49023-0.146484 2.80273 0.15625 3.31055 0.15625ZM6.00586-5.51758L8.37891-12.0898L8.42773-12.0898L10.8008-5.51758Z"/>
  </g>
  <line style="fill:none;stroke:#00AEEF;stroke-width:0.5;opacity:1.0;" x1="793.197" x2="793.197" y1="1919" y2="1933"/>
  <text style="stroke:none;fill:black;font-family:sans-serif;font-size:13;font-weight:bold;" transform="matrix(1 0 0 1 776 1953)">Margins</text>
  <text style="stroke:none;fill:black;font-family:sans-serif;font-size:13;" transform="matrix(1 0 0 1 776 1971)">Leading and trailing margins on the left and right side of each symbol</text>
  <text style="stroke:none;fill:black;font-family:sans-serif;font-size:13;" transform="matrix(1 0 0 1 776 1989)">can be adjusted by modifying the x-location of the margin guidelines.</text>
  <text style="stroke:none;fill:black;font-family:sans-serif;font-size:13;" transform="matrix(1 0 0 1 776 2007)">Modifications are automatically applied proportionally to all</text>
  <text style="stroke:none;fill:black;font-family:sans-serif;font-size:13;" transform="matrix(1 0 0 1 776 2025)">scales and weights.</text>
  <g transform="matrix(1 0 0 1 1289 1933)">
   <path d="M2.8418 1.86523L4.54102 3.57422C5.40039 4.44336 6.38672 4.38477 7.31445 3.35938L18.0078-8.42773L17.041-9.4043L6.42578 2.27539C6.07422 2.67578 5.74219 2.77344 5.27344 2.30469L4.10156 1.14258C3.63281 0.683594 3.74023 0.341797 4.14062-0.0195312L15.6152-10.8203L14.6387-11.7871L3.04688-0.898438C2.06055 0.0195312 1.98242 0.996094 2.8418 1.86523ZM9.25781-16.3281C8.83789-15.918 8.80859-15.3418 9.04297-14.9512C9.27734-14.5898 9.73633-14.3555 10.3809-14.5215C11.8457-14.8633 13.3691-14.9219 14.7949-13.9844L14.209-12.5293C13.8672-11.6992 14.043-11.1133 14.5801-10.5664L16.875-8.25195C17.3633-7.76367 17.7734-7.74414 18.3398-7.8418L19.4043-8.03711L20.0684-7.36328L20.0293-6.80664C19.9902-6.30859 20.1172-5.92773 20.6055-5.44922L21.3672-4.70703C21.8457-4.22852 22.4609-4.19922 22.9297-4.66797L25.8398-7.58789C26.3086-8.05664 26.2891-8.65234 25.8105-9.13086L25.0391-9.89258C24.5605-10.3711 24.1895-10.5273 23.7109-10.4883L23.1348-10.4395L22.4902-11.0742L22.7344-12.1973C22.8613-12.7637 22.7051-13.2031 22.1191-13.7891L19.9219-15.9766C16.582-19.2969 12.1484-19.2188 9.25781-16.3281ZM10.752-15.957C13.1836-17.7344 16.4746-17.4316 18.7012-15.2051L21.1328-12.793C21.3672-12.5586 21.4062-12.373 21.3379-12.0312L21.0156-10.5469L22.5195-9.0625L23.5059-9.12109C23.7598-9.13086 23.8379-9.11133 24.0332-8.91602L24.6094-8.33984L22.168-5.89844L21.5918-6.47461C21.3965-6.66992 21.3672-6.74805 21.377-7.01172L21.4453-7.98828L19.9512-9.47266L18.4277-9.21875C18.1055-9.15039 17.959-9.17969 17.7148-9.41406L15.7129-11.416C15.459-11.6504 15.4297-11.8164 15.5859-12.1875L16.4648-14.2773C14.9023-15.7324 12.8711-16.3574 10.8398-15.7617C10.6836-15.7227 10.625-15.8496 10.752-15.957Z"/>
  </g>
  <text style="stroke:none;fill:black;font-family:sans-serif;font-size:13;font-weight:bold;" transform="matrix(1 0 0 1 1289 1953)">Exporting</text>
  <text style="stroke:none;fill:black;font-family:sans-serif;font-size:13;" transform="matrix(1 0 0 1 1289 1971)">Symbols should be outlined when exporting to ensure the</text>
  <text style="stroke:none;fill:black;font-family:sans-serif;font-size:13;" transform="matrix(1 0 0 1 1289 1989)">design is preserved when submitting to Xcode.</text>
  <text id="template-version" style="stroke:none;fill:black;font-family:sans-serif;font-size:13;text-anchor:end;" transform="matrix(1 0 0 1 3036 1933)">Template v.4.0</text>
  <text style="stroke:none;fill:black;font-family:sans-serif;font-size:13;text-anchor:end;" transform="matrix(1 0 0 1 3036 1951)">Requires Xcode 14 or greater</text>
  <text id="descriptive-name" style="stroke:none;fill:black;font-family:sans-serif;font-size:13;text-anchor:end;" transform="matrix(1 0 0 1 3036 1969)">Generated from custom.square.grid.3x3.square</text>
  <text style="stroke:none;fill:black;font-family:sans-serif;font-size:13;text-anchor:end;" transform="matrix(1 0 0 1 3036 1987)">Typeset at 100 points</text>
  <text style="stroke:none;fill:black;font-family:sans-serif;font-size:13;" transform="matrix(1 0 0 1 263 726)">Small</text>
  <text style="stroke:none;fill:black;font-family:sans-serif;font-size:13;" transform="matrix(1 0 0 1 263 1156)">Medium</text>
  <text style="stroke:none;fill:black;font-family:sans-serif;font-size:13;" transform="matrix(1 0 0 1 263 1586)">Large</text>
 </g>
 <g id="Guides">
  <g id="H-reference" style="fill:#27AAE1;stroke:none;" transform="matrix(1 0 0 1 339 696)">
   <path d="M0.993654 0L3.63775 0L29.3281-67.1323L30.0303-67.1323L30.0303-70.459L28.1226-70.459ZM11.6885-24.4799L46.9815-24.4799L46.2315-26.7285L12.4385-26.7285ZM55.1196 0L57.7637 0L30.6382-70.459L29.4326-70.459L29.4326-67.1323Z"/>
  </g>
  <line id="Baseline-S" style="fill:none;stroke:#27AAE1;opacity:1;stroke-width:0.5;" x1="263" x2="3036" y1="696" y2="696"/>
  <line id="Capline-S" style="fill:none;stroke:#27AAE1;opacity:1;stroke-width:0.5;" x1="263" x2="3036" y1="625.541" y2="625.541"/>
  <g id="H-reference" style="fill:#27AAE1;stroke:none;" transform="matrix(1 0 0 1 339 1126)">
   <path d="M0.993654 0L3.63775 0L29.3281-67.1323L30.0303-67.1323L30.0303-70.459L28.1226-70.459ZM11.6885-24.4799L46.9815-24.4799L46.2315-26.7285L12.4385-26.7285ZM55.1196 0L57.7637 0L30.6382-70.459L29.4326-70.459L29.4326-67.1323Z"/>
  </g>
  <line id="Baseline-M" style="fill:none;stroke:#27AAE1;opacity:1;stroke-width:0.5;" x1="263" x2="3036" y1="1126" y2="1126"/>
  <line id="Capline-M" style="fill:none;stroke:#27AAE1;opacity:1;stroke-width:0.5;" x1="263" x2="3036" y1="1055.54" y2="1055.54"/>
  <g id="H-reference" style="fill:#27AAE1;stroke:none;" transform="matrix(1 0 0 1 339 1556)">
   <path d="M0.993654 0L3.63775 0L29.3281-67.1323L30.0303-67.1323L30.0303-70.459L28.1226-70.459ZM11.6885-24.4799L46.9815-24.4799L46.2315-26.7285L12.4385-26.7285ZM55.1196 0L57.7637 0L30.6382-70.459L29.4326-70.459L29.4326-67.1323Z"/>
  </g>
  <line id="Baseline-L" style="fill:none;stroke:#27AAE1;opacity:1;stroke-width:0.5;" x1="263" x2="3036" y1="1556" y2="1556"/>
  <line id="Capline-L" style="fill:none;stroke:#27AAE1;opacity:1;stroke-width:0.5;" x1="263" x2="3036" y1="1485.54" y2="1485.54"/>
  <line id="left-margin-Regular-M" style="fill:none;stroke:#00AEEF;stroke-width:0.5;opacity:1.0;" x1="1392.46" x2="1392.46" y1="1030.79" y2="1150.12"/>
  <line id="right-margin-Regular-M" style="fill:none;stroke:#00AEEF;stroke-width:0.5;opacity:1.0;" x1="1507.23" x2="1507.23" y1="1030.79" y2="1150.12"/>
 </g>
 <g id="Symbols">
  <g id="Black-L" transform="matrix(1 0 0 1 2855.72 1556)">
   <path d="M39.8556 26.4225L115.513 26.4225C130.677 26.4225 139.284 17.8126 139.284 2.71331L139.284-73.0896C139.284-88.1888 130.677-96.7987 115.513-96.7987L39.8556-96.7987C24.7123-96.7987 16.084-88.1912 16.084-73.0896L16.084 2.71331C16.084 17.815 24.7123 26.4225 39.8556 26.4225ZM42.5864 6.42067C38.2704 6.42067 36.065 4.51132 36.065-0.121514L36.065-70.2547C36.065-74.8667 38.2704-76.7969 42.5864-76.7969L112.782-76.7969C117.093-76.7969 119.303-74.8667 119.303-70.2547L119.303-0.121514C119.303 4.51132 117.093 6.42067 112.782 6.42067ZM44.5341-54.6613C44.5341-51.7839 46.4257-49.8935 49.3227-49.8935L58.1422-49.8935C61.0989-49.8935 62.9892-51.7839 62.9892-54.6613L62.9892-63.6392C62.9892-66.4362 61.0989-68.3486 58.1422-68.3486L49.3227-68.3486C46.4257-68.3486 44.5341-66.4362 44.5341-63.6392ZM68.526-54.6613C68.526-51.7839 70.4176-49.8935 73.3147-49.8935L82.1342-49.8935C85.0324-49.8935 86.9228-51.7839 86.9228-54.6613L86.9228-63.6392C86.9228-66.4946 85.0324-68.3486 82.1342-68.3486L73.3147-68.3486C70.4176-68.3486 68.526-66.4946 68.526-63.6392ZM92.3792-54.6613C92.3792-51.7839 94.2904-49.8935 97.2262-49.8935L106.066-49.8935C108.943-49.8935 110.855-51.7839 110.855-54.6613L110.855-63.6392C110.855-66.4362 108.943-68.3486 106.066-68.3486L97.2262-68.3486C94.2904-68.3486 92.3792-66.4362 92.3792-63.6392ZM44.5341-30.7277C44.5341-27.8711 46.4257-26.0183 49.3227-26.0183L58.1422-26.0183C61.0989-26.0183 62.9892-27.8711 62.9892-30.7277L62.9892-39.7265C62.9892-42.5819 61.0989-44.4359 58.1422-44.4359L49.3227-44.4359C46.4257-44.4359 44.5341-42.5819 44.5341-39.7265ZM68.526-30.7277C68.526-27.8711 70.3592-26.0183 73.3147-26.0183L82.1342-26.0183C85.0908-26.0183 86.9228-27.8711 86.9228-30.7277L86.9228-39.7265C86.9228-42.5819 85.0908-44.4359 82.1342-44.4359L73.3147-44.4359C70.3592-44.4359 68.526-42.5819 68.526-39.7265ZM92.3792-30.7277C92.3792-27.8711 94.2904-26.0183 97.2262-26.0183L106.066-26.0183C108.943-26.0183 110.855-27.8711 110.855-30.7277L110.855-39.7265C110.855-42.5819 108.943-44.4359 106.066-44.4359L97.2262-44.4359C94.2904-44.4359 92.3792-42.5819 92.3792-39.7265ZM44.5341-6.81619C44.5341-3.99838 46.4257-2.10677 49.3227-2.10677L58.1422-2.10677C61.0989-2.10677 62.9892-3.99838 62.9892-6.81619L62.9892-15.7942C62.9892-18.6715 61.0989-20.5619 58.1422-20.5619L49.3227-20.5619C46.4257-20.5619 44.5341-18.6715 44.5341-15.7942ZM68.526-6.81619C68.526-3.94 70.4176-2.10677 73.3147-2.10677L82.1342-2.10677C85.0324-2.10677 86.9228-3.94 86.9228-6.81619L86.9228-15.7942C86.9228-18.6715 85.0324-20.5619 82.1342-20.5619L73.3147-20.5619C70.4176-20.5619 68.526-18.6715 68.526-15.7942ZM92.3792-6.81619C92.3792-3.99838 94.2904-2.10677 97.2262-2.10677L106.066-2.10677C108.943-2.10677 110.855-3.99838 110.855-6.81619L110.855-15.7942C110.855-18.6715 108.943-20.5619 106.066-20.5619L97.2262-20.5619C94.2904-20.5619 92.3792-18.6715 92.3792-15.7942Z"/>
  </g>
  <g id="Heavy-L" transform="matrix(1 0 0 1 2559.92 1556)">
   <path d="M38.8315 25.5159L114.705 25.5159C129.348 25.5159 137.453 17.4 137.453 2.85891L137.453-73.2263C137.453-87.7674 129.348-95.8832 114.705-95.8832L38.8315-95.8832C24.2188-95.8832 16.084-87.7786 16.084-73.2263L16.084 2.85891C16.084 17.4112 24.2188 25.5159 38.8315 25.5159ZM40.9557 7.98525C36.1179 7.98525 33.5844 5.72072 33.5844 0.583748L33.5844-70.9511C33.5844-76.0579 36.1179-78.3526 40.9557-78.3526L112.581-78.3526C117.396-78.3526 119.952-76.0579 119.952-70.9511L119.952 0.583748C119.952 5.72072 117.396 7.98525 112.581 7.98525ZM42.2806-55.6302C42.2806-52.7775 44.138-50.9257 47.0153-50.9257L56.2622-50.9257C59.1897-50.9257 61.0415-52.7775 61.0415-55.6302L61.0415-65.0267C61.0415-67.799 59.1897-69.6867 56.2622-69.6867L47.0153-69.6867C44.138-69.6867 42.2806-67.799 42.2806-65.0267ZM67.4505-55.6302C67.4505-52.7775 69.3079-50.9257 72.1852-50.9257L81.4321-50.9257C84.3149-50.9257 86.1668-52.7775 86.1668-55.6302L86.1668-65.0267C86.1668-67.8436 84.3149-69.6867 81.4321-69.6867L72.1852-69.6867C69.3079-69.6867 67.4505-67.8436 67.4505-65.0267ZM92.4953-55.6302C92.4953-52.7775 94.3774-50.9257 97.2746-50.9257L106.552-50.9257C109.399-50.9257 111.286-52.7775 111.286-55.6302L111.286-65.0267C111.286-67.799 109.399-69.6867 106.552-69.6867L97.2746-69.6867C94.3774-69.6867 92.4953-67.799 92.4953-65.0267ZM42.2806-30.5049C42.2806-27.6824 44.138-25.845 47.0153-25.845L56.2622-25.845C59.1897-25.845 61.0415-27.6824 61.0415-30.5049L61.0415-39.9316C61.0415-42.7485 59.1897-44.5915 56.2622-44.5915L47.0153-44.5915C44.138-44.5915 42.2806-42.7485 42.2806-39.9316ZM67.4505-30.5049C67.4505-27.6824 69.2633-25.845 72.1852-25.845L81.4321-25.845C84.3595-25.845 86.1668-27.6824 86.1668-30.5049L86.1668-39.9316C86.1668-42.7485 84.3595-44.5915 81.4321-44.5915L72.1852-44.5915C69.2633-44.5915 67.4505-42.7485 67.4505-39.9316ZM92.4953-30.5049C92.4953-27.6824 94.3774-25.845 97.2746-25.845L106.552-25.845C109.399-25.845 111.286-27.6824 111.286-30.5049L111.286-39.9316C111.286-42.7485 109.399-44.5915 106.552-44.5915L97.2746-44.5915C94.3774-44.5915 92.4953-42.7485 92.4953-39.9316ZM42.2806-5.41544C42.2806-2.61301 44.138-0.755515 47.0153-0.755515L56.2622-0.755515C59.1897-0.755515 61.0415-2.61301 61.0415-5.41544L61.0415-14.812C61.0415-17.6647 59.1897-19.5165 56.2622-19.5165L47.0153-19.5165C44.138-19.5165 42.2806-17.6647 42.2806-14.812ZM67.4505-5.41544C67.4505-2.56841 69.3079-0.755515 72.1852-0.755515L81.4321-0.755515C84.3149-0.755515 86.1668-2.56841 86.1668-5.41544L86.1668-14.812C86.1668-17.6647 84.3149-19.5165 81.4321-19.5165L72.1852-19.5165C69.3079-19.5165 67.4505-17.6647 67.4505-14.812ZM92.4953-5.41544C92.4953-2.61301 94.3774-0.755515 97.2746-0.755515L106.552-0.755515C109.399-0.755515 111.286-2.61301 111.286-5.41544L111.286-14.812C111.286-17.6647 109.399-19.5165 106.552-19.5165L97.2746-19.5165C94.3774-19.5165 92.4953-17.6647 92.4953-14.812Z"/>
  </g>
  <g id="Bold-L" transform="matrix(1 0 0 1 2264.35 1556)">
   <path d="M37.5412 24.3865L113.714 24.3865C127.667 24.3865 135.171 16.8555 135.171 3.04319L135.171-73.3954C135.171-87.2076 127.667-94.7386 113.714-94.7386L37.5412-94.7386C23.6265-94.7386 16.084-87.2341 16.084-73.3954L16.084 3.04319C16.084 16.882 23.6265 24.3865 37.5412 24.3865ZM38.987 9.90676C33.4665 9.90676 30.5258 7.19673 30.5258 1.40749L30.5258-71.7596C30.5258-77.5109 33.4665-80.2589 38.987-80.2589L112.268-80.2589C117.736-80.2589 120.729-77.5109 120.729-71.7596L120.729 1.40749C120.729 7.19673 117.736 9.90676 112.268 9.90676ZM39.4465-56.7916C39.4465-53.9399 41.2953-52.1044 44.1718-52.1044L53.9638-52.1044C56.8827-52.1044 58.7182-53.9399 58.7182-56.7916L58.7182-66.718C58.7182-69.4894 56.8827-71.3761 53.9638-71.3761L44.1718-71.3761C41.2953-71.3761 39.4465-69.4894 39.4465-66.718ZM66.0465-56.7916C66.0465-53.9399 67.8952-52.1044 70.7718-52.1044L80.5638-52.1044C83.4535-52.1044 85.289-53.9399 85.289-56.7916L85.289-66.718C85.289-69.5186 83.4535-71.3761 80.5638-71.3761L70.7718-71.3761C67.8952-71.3761 66.0465-69.5186 66.0465-66.718ZM92.5369-56.7916C92.5369-53.9399 94.4104-52.1044 97.2913-52.1044L107.121-52.1044C109.96-52.1044 111.847-53.9399 111.847-56.7916L111.847-66.718C111.847-69.4894 109.96-71.3761 107.121-71.3761L97.2913-71.3761C94.4104-71.3761 92.5369-69.4894 92.5369-66.718ZM39.4465-30.2209C39.4465-27.4071 41.2953-25.5628 44.1718-25.5628L53.9638-25.5628C56.8827-25.5628 58.7182-27.4071 58.7182-30.2209L58.7182-40.1852C58.7182-42.9858 56.8827-44.8432 53.9638-44.8432L44.1718-44.8432C41.2953-44.8432 39.4465-42.9858 39.4465-40.1852ZM66.0465-30.2209C66.0465-27.4071 67.866-25.5628 70.7718-25.5628L80.5638-25.5628C83.4827-25.5628 85.289-27.4071 85.289-30.2209L85.289-40.1852C85.289-42.9858 83.4827-44.8432 80.5638-44.8432L70.7718-44.8432C67.866-44.8432 66.0465-42.9858 66.0465-40.1852ZM92.5369-30.2209C92.5369-27.4071 94.4104-25.5628 97.2913-25.5628L107.121-25.5628C109.96-25.5628 111.847-27.4071 111.847-30.2209L111.847-40.1852C111.847-42.9858 109.96-44.8432 107.121-44.8432L97.2913-44.8432C94.4104-44.8432 92.5369-42.9858 92.5369-40.1852ZM39.4465-3.70128C39.4465-0.891961 41.2953 0.956807 44.1718 0.956807L53.9638 0.956807C56.8827 0.956807 58.7182-0.891961 58.7182-3.70128L58.7182-13.6277C58.7182-16.4794 56.8827-18.3149 53.9638-18.3149L44.1718-18.3149C41.2953-18.3149 39.4465-16.4794 39.4465-13.6277ZM66.0465-3.70128C66.0465-0.862775 67.8952 0.956807 70.7718 0.956807L80.5638 0.956807C83.4535 0.956807 85.289-0.862775 85.289-3.70128L85.289-13.6277C85.289-16.4794 83.4535-18.3149 80.5638-18.3149L70.7718-18.3149C67.8952-18.3149 66.0465-16.4794 66.0465-13.6277ZM92.5369-3.70128C92.5369-0.891961 94.4104 0.956807 97.2913 0.956807L107.121 0.956807C109.96 0.956807 111.847-0.891961 111.847-3.70128L111.847-13.6277C111.847-16.4794 109.96-18.3149 107.121-18.3149L97.2913-18.3149C94.4104-18.3149 92.5369-16.4794 92.5369-13.6277Z"/>
  </g>
  <g id="Semibold-L" transform="matrix(1 0 0 1 1968.43 1556)">
   <path d="M36.6518 23.608L113.03 23.608C126.507 23.608 133.598 16.4801 133.598 3.17024L133.598-73.5119C133.598-86.8217 126.507-93.9495 113.03-93.9495L36.6518-93.9495C23.2182-93.9495 16.084-86.8587 16.084-73.5119L16.084 3.17024C16.084 16.5171 23.2182 23.608 36.6518 23.608ZM37.6298 11.2314C31.6386 11.2314 28.4171 8.21428 28.4171 1.97537L28.4171-72.317C28.4171-78.5125 31.6386-81.573 37.6298-81.573L112.052-81.573C117.97-81.573 121.265-78.5125 121.265-72.317L121.265 1.97537C121.265 8.21428 117.97 11.2314 112.052 11.2314ZM37.4927-57.5923C37.4927-54.7412 39.3355-52.9171 42.2115-52.9171L52.3792-52.9171C55.2923-52.9171 57.1165-54.7412 57.1165-57.5923L57.1165-67.884C57.1165-70.6547 55.2923-72.5408 52.3792-72.5408L42.2115-72.5408C39.3355-72.5408 37.4927-70.6547 37.4927-67.884ZM65.0787-57.5923C65.0787-54.7412 66.9214-52.9171 69.7974-52.9171L79.9652-52.9171C82.8596-52.9171 84.6839-54.7412 84.6839-57.5923L84.6839-67.884C84.6839-70.6733 82.8596-72.5408 79.9652-72.5408L69.7974-72.5408C66.9214-72.5408 65.0787-70.6733 65.0787-67.884ZM92.5656-57.5923C92.5656-54.7412 94.4332-52.9171 97.3029-52.9171L107.514-52.9171C110.347-52.9171 112.233-54.7412 112.233-57.5923L112.233-67.884C112.233-70.6547 110.347-72.5408 107.514-72.5408L97.3029-72.5408C94.4332-72.5408 92.5656-70.6547 92.5656-67.884ZM37.4927-30.0251C37.4927-27.2173 39.3355-25.3682 42.2115-25.3682L52.3792-25.3682C55.2923-25.3682 57.1165-27.2173 57.1165-30.0251L57.1165-40.36C57.1165-43.1493 55.2923-45.0168 52.3792-45.0168L42.2115-45.0168C39.3355-45.0168 37.4927-43.1493 37.4927-40.36ZM65.0787-30.0251C65.0787-27.2173 66.9028-25.3682 69.7974-25.3682L79.9652-25.3682C82.8782-25.3682 84.6839-27.2173 84.6839-30.0251L84.6839-40.36C84.6839-43.1493 82.8782-45.0168 79.9652-45.0168L69.7974-45.0168C66.9028-45.0168 65.0787-43.1493 65.0787-40.36ZM92.5656-30.0251C92.5656-27.2173 94.4332-25.3682 97.3029-25.3682L107.514-25.3682C110.347-25.3682 112.233-27.2173 112.233-30.0251L112.233-40.36C112.233-43.1493 110.347-45.0168 107.514-45.0168L97.3029-45.0168C94.4332-45.0168 92.5656-43.1493 92.5656-40.36ZM37.4927-2.51955C37.4927 0.294516 39.3355 2.13727 42.2115 2.13727L52.3792 2.13727C55.2923 2.13727 57.1165 0.294516 57.1165-2.51955L57.1165-12.8112C57.1165-15.6623 55.2923-17.4865 52.3792-17.4865L42.2115-17.4865C39.3355-17.4865 37.4927-15.6623 37.4927-12.8112ZM65.0787-2.51955C65.0787 0.313079 66.9214 2.13727 69.7974 2.13727L79.9652 2.13727C82.8596 2.13727 84.6839 0.313079 84.6839-2.51955L84.6839-12.8112C84.6839-15.6623 82.8596-17.4865 79.9652-17.4865L69.7974-17.4865C66.9214-17.4865 65.0787-15.6623 65.0787-12.8112ZM92.5656-2.51955C92.5656 0.294516 94.4332 2.13727 97.3029 2.13727L107.514 2.13727C110.347 2.13727 112.233 0.294516 112.233-2.51955L112.233-12.8112C112.233-15.6623 110.347-17.4865 107.514-17.4865L97.3029-17.4865C94.4332-17.4865 92.5656-15.6623 92.5656-12.8112Z"/>
  </g>
  <g id="Medium-L" transform="matrix(1 0 0 1 1672.31 1556)">
   <path d="M35.9773 23.0176L112.512 23.0176C125.628 23.0176 132.405 16.1955 132.405 3.26657L132.405-73.6003C132.405-86.5291 125.628-93.3512 112.512-93.3512L35.9773-93.3512C22.9086-93.3512 16.084-86.574 16.084-73.6003L16.084 3.26657C16.084 16.2404 22.9086 23.0176 35.9773 23.0176ZM36.6008 12.2359C30.2527 12.2359 26.8183 8.98583 26.8183 2.40596L26.8183-72.7396C26.8183-79.272 30.2527-82.5695 36.6008-82.5695L111.889-82.5695C118.147-82.5695 121.671-79.272 121.671-72.7396L121.671 2.40596C121.671 8.98583 118.147 12.2359 111.889 12.2359ZM36.0113-58.1995C36.0113-55.3489 37.8495-53.5332 40.7251-53.5332L51.1778-53.5332C54.0864-53.5332 55.902-55.3489 55.902-58.1995L55.902-68.7681C55.902-71.5383 54.0864-73.424 51.1778-73.424L40.7251-73.424C37.8495-73.424 36.0113-71.5383 36.0113-68.7681ZM64.3448-58.1995C64.3448-55.3489 66.1829-53.5332 69.0586-53.5332L79.5113-53.5332C82.4093-53.5332 84.225-55.3489 84.225-58.1995L84.225-68.7681C84.225-71.5488 82.4093-73.424 79.5113-73.424L69.0586-73.424C66.1829-73.424 64.3448-71.5488 64.3448-68.7681ZM92.5873-58.1995C92.5873-55.3489 94.4505-53.5332 97.3116-53.5332L107.812-53.5332C110.64-53.5332 112.526-55.3489 112.526-58.1995L112.526-68.7681C112.526-71.5383 110.64-73.424 107.812-73.424L97.3116-73.424C94.4505-73.424 92.5873-71.5383 92.5873-68.7681ZM36.0113-29.8766C36.0113-27.0734 37.8495-25.2207 40.7251-25.2207L51.1778-25.2207C54.0864-25.2207 55.902-27.0734 55.902-29.8766L55.902-40.4926C55.902-43.2734 54.0864-45.1484 51.1778-45.1484L40.7251-45.1484C37.8495-45.1484 36.0113-43.2734 36.0113-40.4926ZM64.3448-29.8766C64.3448-27.0734 66.1724-25.2207 69.0586-25.2207L79.5113-25.2207C82.4198-25.2207 84.225-27.0734 84.225-29.8766L84.225-40.4926C84.225-43.2734 82.4198-45.1484 79.5113-45.1484L69.0586-45.1484C66.1724-45.1484 64.3448-43.2734 64.3448-40.4926ZM92.5873-29.8766C92.5873-27.0734 94.4505-25.2207 97.3116-25.2207L107.812-25.2207C110.64-25.2207 112.526-27.0734 112.526-29.8766L112.526-40.4926C112.526-43.2734 110.64-45.1484 107.812-45.1484L97.3116-45.1484C94.4505-45.1484 92.5873-43.2734 92.5873-40.4926ZM36.0113-1.62351C36.0113 1.19415 37.8495 3.03235 40.7251 3.03235L51.1778 3.03235C54.0864 3.03235 55.902 1.19415 55.902-1.62351L55.902-12.1921C55.902-15.0427 54.0864-16.8584 51.1778-16.8584L40.7251-16.8584C37.8495-16.8584 36.0113-15.0427 36.0113-12.1921ZM64.3448-1.62351C64.3448 1.20466 66.1829 3.03235 69.0586 3.03235L79.5113 3.03235C82.4093 3.03235 84.225 1.20466 84.225-1.62351L84.225-12.1921C84.225-15.0427 82.4093-16.8584 79.5113-16.8584L69.0586-16.8584C66.1829-16.8584 64.3448-15.0427 64.3448-12.1921ZM92.5873-1.62351C92.5873 1.19415 94.4505 3.03235 97.3116 3.03235L107.812 3.03235C110.64 3.03235 112.526 1.19415 112.526-1.62351L112.526-12.1921C112.526-15.0427 110.64-16.8584 107.812-16.8584L97.3116-16.8584C94.4505-16.8584 92.5873-15.0427 92.5873-12.1921Z"/>
  </g>
  <g id="Regular-L" transform="matrix(1 0 0 1 1376.38 1556)">
   <path d="M35.0976 22.2476L111.836 22.2476C124.482 22.2476 130.85 15.8242 130.85 3.39223L130.85-73.7156C130.85-86.1474 124.482-92.5709 111.836-92.5709L35.0976-92.5709C22.5048-92.5709 16.084-86.2027 16.084-73.7156L16.084 3.39223C16.084 15.8795 22.5048 22.2476 35.0976 22.2476ZM35.2585 13.546C28.4449 13.546 24.7329 9.9922 24.7329 2.9676L24.7329-73.2909C24.7329-80.2627 28.4449-83.8692 35.2585-83.8692L111.675-83.8692C118.378-83.8692 122.201-80.2627 122.201-73.2909L122.201 2.9676C122.201 9.9922 118.378 13.546 111.675 13.546ZM34.079-58.9914C34.079-56.1414 35.9112-54.3369 38.7863-54.3369L49.6107-54.3369C52.5135-54.3369 54.318-56.1414 54.318-58.9914L54.318-69.9212C54.318-72.6909 52.5135-74.5759 49.6107-74.5759L38.7863-74.5759C35.9112-74.5759 34.079-72.6909 34.079-69.9212ZM63.3876-58.9914C63.3876-56.1414 65.2197-54.3369 68.0949-54.3369L78.9192-54.3369C81.8219-54.3369 83.6265-56.1414 83.6265-58.9914L83.6265-69.9212C83.6265-72.6909 81.8219-74.5759 78.9192-74.5759L68.0949-74.5759C65.2197-74.5759 63.3876-72.6909 63.3876-69.9212ZM92.6157-58.9914C92.6157-56.1414 94.473-54.3369 97.323-54.3369L108.2-54.3369C111.022-54.3369 112.907-56.1414 112.907-58.9914L112.907-69.9212C112.907-72.6909 111.022-74.5759 108.2-74.5759L97.323-74.5759C94.473-74.5759 92.6157-72.6909 92.6157-69.9212ZM34.079-29.6829C34.079-26.8856 35.9112-25.0283 38.7863-25.0283L49.6107-25.0283C52.5135-25.0283 54.318-26.8856 54.318-29.6829L54.318-40.6655C54.318-43.4351 52.5135-45.32 49.6107-45.32L38.7863-45.32C35.9112-45.32 34.079-43.4351 34.079-40.6655ZM63.3876-29.6829C63.3876-26.8856 65.2197-25.0283 68.0949-25.0283L78.9192-25.0283C81.8219-25.0283 83.6265-26.8856 83.6265-29.6829L83.6265-40.6655C83.6265-43.4351 81.8219-45.32 78.9192-45.32L68.0949-45.32C65.2197-45.32 63.3876-43.4351 63.3876-40.6655ZM92.6157-29.6829C92.6157-26.8856 94.473-25.0283 97.323-25.0283L108.2-25.0283C111.022-25.0283 112.907-26.8856 112.907-29.6829L112.907-40.6655C112.907-43.4351 111.022-45.32 108.2-45.32L97.323-45.32C94.473-45.32 92.6157-43.4351 92.6157-40.6655ZM34.079-0.454762C34.079 2.36759 35.9112 4.19984 38.7863 4.19984L49.6107 4.19984C52.5135 4.19984 54.318 2.36759 54.318-0.454762L54.318-11.3846C54.318-14.2346 52.5135-16.0392 49.6107-16.0392L38.7863-16.0392C35.9112-16.0392 34.079-14.2346 34.079-11.3846ZM63.3876-0.454762C63.3876 2.36759 65.2197 4.19984 68.0949 4.19984L78.9192 4.19984C81.8219 4.19984 83.6265 2.36759 83.6265-0.454762L83.6265-11.3846C83.6265-14.2346 81.8219-16.0392 78.9192-16.0392L68.0949-16.0392C65.2197-16.0392 63.3876-14.2346 63.3876-11.3846ZM92.6157-0.454762C92.6157 2.36759 94.473 4.19984 97.323 4.19984L108.2 4.19984C111.022 4.19984 112.907 2.36759 112.907-0.454762L112.907-11.3846C112.907-14.2346 111.022-16.0392 108.2-16.0392L97.323-16.0392C94.473-16.0392 92.6157-14.2346 92.6157-11.3846Z"/>
  </g>
  <g id="Light-L" transform="matrix(1 0 0 1 1080.5 1556)">
   <path d="M34.067 21.4269L111.206 21.4269C123.088 21.4269 129.189 15.2326 129.189 3.54492L129.189-73.8301C129.189-85.5176 123.088-91.712 111.206-91.712L34.067-91.712C22.2186-91.712 16.084-85.6111 16.084-73.8301L16.084 3.54492C16.084 15.3261 22.2186 21.4269 34.067 21.4269ZM34.2278 14.7674C26.7081 14.7674 22.7098 10.8701 22.7098 3.21573L22.7098-73.5008C22.7098-81.1215 26.7081-85.0525 34.2278-85.0525L111.045-85.0525C118.378-85.0525 122.563-81.1215 122.563-73.5008L122.563 3.21573C122.563 10.8701 118.378 14.7674 111.045 14.7674ZM31.846-59.5449C31.846-56.504 33.8881-54.5087 36.916-54.5087L48.2174-54.5087C51.292-54.5087 53.2874-56.504 53.2874-59.5449L53.2874-70.9137C53.2874-73.8742 51.292-75.95 48.2174-75.95L36.916-75.95C33.8881-75.95 31.846-73.8742 31.846-70.9137ZM61.9562-59.5449C61.9562-56.504 63.9983-54.5087 67.0261-54.5087L78.3276-54.5087C81.4021-54.5087 83.3975-56.504 83.3975-59.5449L83.3975-70.9137C83.3975-73.8742 81.4021-75.95 78.3276-75.95L67.0261-75.95C63.9983-75.95 61.9562-73.8742 61.9562-70.9137ZM91.9859-59.5449C91.9859-56.504 94.0149-54.5087 97.0558-54.5087L108.391-54.5087C111.385-54.5087 113.461-56.504 113.461-59.5449L113.461-70.9137C113.461-73.8742 111.385-75.95 108.391-75.95L97.0558-75.95C94.0149-75.95 91.9859-73.8742 91.9859-70.9137ZM31.846-29.4348C31.846-26.4276 33.8881-24.3985 36.916-24.3985L48.2174-24.3985C51.292-24.3985 53.2874-26.4276 53.2874-29.4348L53.2874-40.8373C53.2874-43.7977 51.292-45.8735 48.2174-45.8735L36.916-45.8735C33.8881-45.8735 31.846-43.7977 31.846-40.8373ZM61.9562-29.4348C61.9562-26.4276 63.9983-24.3985 67.0261-24.3985L78.3276-24.3985C81.4021-24.3985 83.3975-26.4276 83.3975-29.4348L83.3975-40.8373C83.3975-43.7977 81.4021-45.8735 78.3276-45.8735L67.0261-45.8735C63.9983-45.8735 61.9562-43.7977 61.9562-40.8373ZM91.9859-29.4348C91.9859-26.4276 94.0149-24.3985 97.0558-24.3985L108.391-24.3985C111.385-24.3985 113.461-26.4276 113.461-29.4348L113.461-40.8373C113.461-43.7977 111.385-45.8735 108.391-45.8735L97.0558-45.8735C94.0149-45.8735 91.9859-43.7977 91.9859-40.8373ZM31.846 0.594954C31.846 3.58908 33.8881 5.63123 36.916 5.63123L48.2174 5.63123C51.292 5.63123 53.2874 3.58908 53.2874 0.594954L53.2874-10.7738C53.2874-13.8147 51.292-15.8101 48.2174-15.8101L36.916-15.8101C33.8881-15.8101 31.846-13.8147 31.846-10.7738ZM61.9562 0.594954C61.9562 3.58908 63.9983 5.63123 67.0261 5.63123L78.3276 5.63123C81.4021 5.63123 83.3975 3.58908 83.3975 0.594954L83.3975-10.7738C83.3975-13.8147 81.4021-15.8101 78.3276-15.8101L67.0261-15.8101C63.9983-15.8101 61.9562-13.8147 61.9562-10.7738ZM91.9859 0.594954C91.9859 3.58908 94.0149 5.63123 97.0558 5.63123L108.391 5.63123C111.385 5.63123 113.461 3.58908 113.461 0.594954L113.461-10.7738C113.461-13.8147 111.385-15.8101 108.391-15.8101L97.0558-15.8101C94.0149-15.8101 91.9859-13.8147 91.9859-10.7738Z"/>
  </g>
  <g id="Thin-L" transform="matrix(1 0 0 1 784.884 1556)">
   <path d="M32.704 20.3415L110.373 20.3415C121.246 20.3415 126.993 14.4501 126.993 3.74686L126.993-73.9816C126.993-84.6847 121.246-90.5761 110.373-90.5761L32.704-90.5761C21.84-90.5761 16.084-84.8286 16.084-73.9816L16.084 3.74686C16.084 14.594 21.84 20.3415 32.704 20.3415ZM32.8647 16.3829C24.4111 16.3829 20.0341 12.0313 20.0341 3.54392L20.0341-73.7785C20.0341-82.2573 24.4111-86.6175 32.8647-86.6175L110.213-86.6175C118.378-86.6175 123.043-82.2573 123.043-73.7785L123.043 3.54392C123.043 12.0313 118.378 16.3829 110.213 16.3829ZM28.8927-60.2769C28.8927-56.9836 31.2125-54.7359 34.4423-54.7359L46.3747-54.7359C49.6766-54.7359 51.9243-56.9836 51.9243-60.2769L51.9243-72.2262C51.9243-75.4391 49.6766-77.7674 46.3747-77.7674L34.4423-77.7674C31.2125-77.7674 28.8927-75.4391 28.8927-72.2262ZM60.0631-60.2769C60.0631-56.9836 62.3828-54.7359 65.6126-54.7359L77.5451-54.7359C80.8468-54.7359 83.0945-56.9836 83.0945-60.2769L83.0945-72.2262C83.0945-75.4391 80.8468-77.7674 77.5451-77.7674L65.6126-77.7674C62.3828-77.7674 60.0631-75.4391 60.0631-72.2262ZM91.1529-60.2769C91.1529-56.9836 93.4091-54.7359 96.7024-54.7359L108.643-54.7359C111.865-54.7359 114.193-56.9836 114.193-60.2769L114.193-72.2262C114.193-75.4391 111.865-77.7674 108.643-77.7674L96.7024-77.7674C93.4091-77.7674 91.1529-75.4391 91.1529-72.2262ZM28.8927-29.1067C28.8927-25.8218 31.2125-23.5655 34.4423-23.5655L46.3747-23.5655C49.6766-23.5655 51.9243-25.8218 51.9243-29.1067L51.9243-41.0644C51.9243-44.2773 49.6766-46.6055 46.3747-46.6055L34.4423-46.6055C31.2125-46.6055 28.8927-44.2773 28.8927-41.0644ZM60.0631-29.1067C60.0631-25.8218 62.3828-23.5655 65.6126-23.5655L77.5451-23.5655C80.8468-23.5655 83.0945-25.8218 83.0945-29.1067L83.0945-41.0644C83.0945-44.2773 80.8468-46.6055 77.5451-46.6055L65.6126-46.6055C62.3828-46.6055 60.0631-44.2773 60.0631-41.0644ZM91.1529-29.1067C91.1529-25.8218 93.4091-23.5655 96.7024-23.5655L108.643-23.5655C111.865-23.5655 114.193-25.8218 114.193-29.1067L114.193-41.0644C114.193-44.2773 111.865-46.6055 108.643-46.6055L96.7024-46.6055C93.4091-46.6055 91.1529-44.2773 91.1529-41.0644ZM28.8927 1.98329C28.8927 5.2046 31.2125 7.52435 34.4423 7.52435L46.3747 7.52435C49.6766 7.52435 51.9243 5.2046 51.9243 1.98329L51.9243-9.96605C51.9243-13.2593 49.6766-15.5072 46.3747-15.5072L34.4423-15.5072C31.2125-15.5072 28.8927-13.2593 28.8927-9.96605ZM60.0631 1.98329C60.0631 5.2046 62.3828 7.52435 65.6126 7.52435L77.5451 7.52435C80.8468 7.52435 83.0945 5.2046 83.0945 1.98329L83.0945-9.96605C83.0945-13.2593 80.8468-15.5072 77.5451-15.5072L65.6126-15.5072C62.3828-15.5072 60.0631-13.2593 60.0631-9.96605ZM91.1529 1.98329C91.1529 5.2046 93.4091 7.52435 96.7024 7.52435L108.643 7.52435C111.865 7.52435 114.193 5.2046 114.193 1.98329L114.193-9.96605C114.193-13.2593 111.865-15.5072 108.643-15.5072L96.7024-15.5072C93.4091-15.5072 91.1529-13.2593 91.1529-9.96605Z"/>
  </g>
  <g id="Ultralight-L" transform="matrix(1 0 0 1 488.735 1556)">
   <path d="M32.0058 19.7856L109.947 19.7856C120.302 19.7856 125.869 14.0493 125.869 3.8503L125.869-74.0591C125.869-84.258 120.302-89.9943 109.947-89.9943L32.0058-89.9943C21.6461-89.9943 16.084-84.4278 16.084-74.0591L16.084 3.8503C16.084 14.2191 21.6461 19.7856 32.0058 19.7856ZM32.1666 17.2103C23.2346 17.2103 18.6637 12.626 18.6637 3.71201L18.6637-73.9207C18.6637-82.8391 23.2346-87.4191 32.1666-87.4191L109.786-87.4191C118.378-87.4191 123.289-82.8391 123.289-73.9207L123.289 3.71201C123.289 12.626 118.378 17.2103 109.786 17.2103ZM27.3801-60.6518C27.3801-57.2293 29.842-54.8522 33.1753-54.8522L45.4309-54.8522C48.8491-54.8522 51.2262-57.2293 51.2262-60.6518L51.2262-72.8985C51.2262-76.2407 48.8491-78.6983 45.4309-78.6983L33.1753-78.6983C29.842-78.6983 27.3801-76.2407 27.3801-72.8985ZM59.0935-60.6518C59.0935-57.2293 61.5554-54.8522 64.8885-54.8522L77.1443-54.8522C80.5623-54.8522 82.9394-57.2293 82.9394-60.6518L82.9394-72.8985C82.9394-76.2407 80.5623-78.6983 77.1443-78.6983L64.8885-78.6983C61.5554-78.6983 59.0935-76.2407 59.0935-72.8985ZM90.7263-60.6518C90.7263-57.2293 93.0988-54.8522 96.5214-54.8522L108.773-54.8522C112.11-54.8522 114.568-57.2293 114.568-60.6518L114.568-72.8985C114.568-76.2407 112.11-78.6983 108.773-78.6983L96.5214-78.6983C93.0988-78.6983 90.7263-76.2407 90.7263-72.8985ZM27.3801-28.9386C27.3801-25.5115 29.842-23.1389 33.1753-23.1389L45.4309-23.1389C48.8491-23.1389 51.2262-25.5115 51.2262-28.9386L51.2262-41.1808C51.2262-44.523 48.8491-46.9804 45.4309-46.9804L33.1753-46.9804C29.842-46.9804 27.3801-44.523 27.3801-41.1808ZM59.0935-28.9386C59.0935-25.5115 61.5554-23.1389 64.8885-23.1389L77.1443-23.1389C80.5623-23.1389 82.9394-25.5115 82.9394-28.9386L82.9394-41.1808C82.9394-44.523 80.5623-46.9804 77.1443-46.9804L64.8885-46.9804C61.5554-46.9804 59.0935-44.523 59.0935-41.1808ZM90.7263-28.9386C90.7263-25.5115 93.0988-23.1389 96.5214-23.1389L108.773-23.1389C112.11-23.1389 114.568-25.5115 114.568-28.9386L114.568-41.1808C114.568-44.523 112.11-46.9804 108.773-46.9804L96.5214-46.9804C93.0988-46.9804 90.7263-44.523 90.7263-41.1808ZM27.3801 2.69439C27.3801 6.03206 29.842 8.494 33.1753 8.494L45.4309 8.494C48.8491 8.494 51.2262 6.03206 51.2262 2.69439L51.2262-9.5523C51.2262-12.9749 48.8491-15.3521 45.4309-15.3521L33.1753-15.3521C29.842-15.3521 27.3801-12.9749 27.3801-9.5523ZM59.0935 2.69439C59.0935 6.03206 61.5554 8.494 64.8885 8.494L77.1443 8.494C80.5623 8.494 82.9394 6.03206 82.9394 2.69439L82.9394-9.5523C82.9394-12.9749 80.5623-15.3521 77.1443-15.3521L64.8885-15.3521C61.5554-15.3521 59.0935-12.9749 59.0935-9.5523ZM90.7263 2.69439C90.7263 6.03206 93.0988 8.494 96.5214 8.494L108.773 8.494C112.11 8.494 114.568 6.03206 114.568 2.69439L114.568-9.5523C114.568-12.9749 112.11-15.3521 108.773-15.3521L96.5214-15.3521C93.0988-15.3521 90.7263-12.9749 90.7263-9.5523Z"/>
  </g>
  <g id="Black-M" transform="matrix(1 0 0 1 2872.54 1126)">
   <path d="M31.6184 13.203L90.1012 13.203C102.194 13.203 109.259 6.13888 109.259-5.93806L109.259-64.4592C109.259-76.5362 102.194-83.6002 90.1012-83.6002L31.6184-83.6002C19.5311-83.6002 12.4609-76.5356 12.4609-64.4592L12.4609-5.93806C12.4609 6.13831 19.5311 13.203 31.6184 13.203ZM34.2553-4.14052C31.2643-4.14052 29.7989-5.36106 29.7989-8.60237L29.7989-61.7949C29.7989-65.0307 31.2643-66.2568 34.2553-66.2568L87.4643-66.2568C90.4564-66.2568 91.9207-65.0307 91.9207-61.7949L91.9207-8.60237C91.9207-5.36106 90.4564-4.14052 87.4643-4.14052ZM36.1366-49.5264C36.1366-47.25 37.6599-45.7265 39.942-45.7265L46.4721-45.7265C48.8111-45.7265 50.3347-47.25 50.3347-49.5264L50.3347-56.1817C50.3347-58.3958 48.8111-59.9245 46.4721-59.9245L39.942-59.9245C37.6599-59.9245 36.1366-58.3958 36.1366-56.1817ZM53.8204-49.5264C53.8204-47.25 55.3437-45.7265 57.6259-45.7265L64.156-45.7265C66.4379-45.7265 67.9614-47.25 67.9614-49.5264L67.9614-56.1817C67.9614-58.4529 66.4379-59.9245 64.156-59.9245L57.6259-59.9245C55.3437-59.9245 53.8204-58.4529 53.8204-56.1817ZM71.3849-49.5264C71.3849-47.25 72.9139-45.7265 75.2473-45.7265L81.7829-45.7265C84.0597-45.7265 85.5884-47.25 85.5884-49.5264L85.5884-56.1817C85.5884-58.3958 84.0597-59.9245 81.7829-59.9245L75.2473-59.9245C72.9139-59.9245 71.3849-58.3958 71.3849-56.1817ZM36.1366-31.8997C36.1366-29.6288 37.6599-28.1568 39.942-28.1568L46.4721-28.1568C48.8111-28.1568 50.3347-29.6288 50.3347-31.8997L50.3347-38.5605C50.3347-40.8316 48.8111-42.3033 46.4721-42.3033L39.942-42.3033C37.6599-42.3033 36.1366-40.8316 36.1366-38.5605ZM53.8204-31.8997C53.8204-29.6288 55.2866-28.1568 57.6259-28.1568L64.156-28.1568C66.4949-28.1568 67.9614-29.6288 67.9614-31.8997L67.9614-38.5605C67.9614-40.8316 66.4949-42.3033 64.156-42.3033L57.6259-42.3033C55.2866-42.3033 53.8204-40.8316 53.8204-38.5605ZM71.3849-31.8997C71.3849-29.6288 72.9139-28.1568 75.2473-28.1568L81.7829-28.1568C84.0597-28.1568 85.5884-29.6288 85.5884-31.8997L85.5884-38.5605C85.5884-40.8316 84.0597-42.3033 81.7829-42.3033L75.2473-42.3033C72.9139-42.3033 71.3849-40.8316 71.3849-38.5605ZM36.1366-14.2781C36.1366-12.0586 37.6599-10.5353 39.942-10.5353L46.4721-10.5353C48.8111-10.5353 50.3347-12.0586 50.3347-14.2781L50.3347-20.9335C50.3347-23.2098 48.8111-24.7334 46.4721-24.7334L39.942-24.7334C37.6599-24.7334 36.1366-23.2098 36.1366-20.9335ZM53.8204-14.2781C53.8204-12.0015 55.3437-10.5353 57.6259-10.5353L64.156-10.5353C66.4379-10.5353 67.9614-12.0015 67.9614-14.2781L67.9614-20.9335C67.9614-23.2098 66.4379-24.7334 64.156-24.7334L57.6259-24.7334C55.3437-24.7334 53.8204-23.2098 53.8204-20.9335ZM71.3849-14.2781C71.3849-12.0586 72.9139-10.5353 75.2473-10.5353L81.7829-10.5353C84.0597-10.5353 85.5884-12.0586 85.5884-14.2781L85.5884-20.9335C85.5884-23.2098 84.0597-24.7334 81.7829-24.7334L75.2473-24.7334C72.9139-24.7334 71.3849-23.2098 71.3849-20.9335Z"/>
  </g>
  <g id="Heavy-M" transform="matrix(1 0 0 1 2576.65 1126)">
   <path d="M30.7123 12.3923L89.37 12.3923C101.024 12.3923 107.621 5.79012 107.621-5.80981L107.621-64.5824C107.621-76.1823 101.024-82.7844 89.37-82.7844L30.7123-82.7844C19.075-82.7844 12.4609-76.1868 12.4609-64.5824L12.4609-5.80981C12.4609 5.79467 19.075 12.3923 30.7123 12.3923ZM32.7563-2.72372C29.3203-2.72372 27.5606-4.25979 27.5606-7.93582L27.5606-62.4564C27.5606-66.116 29.3203-67.6685 32.7563-67.6685L87.326-67.6685C90.7528-67.6685 92.5217-66.116 92.5217-62.4564L92.5217-7.93582C92.5217-4.25979 90.7528-2.72372 87.326-2.72372ZM34.1397-50.4225C34.1397-48.1879 35.6102-46.7197 37.8589-46.7197L44.7628-46.7197C47.0575-46.7197 48.5257-48.1879 48.5257-50.4225L48.5257-57.4465C48.5257-59.6188 47.0575-61.1058 44.7628-61.1058L37.8589-61.1058C35.6102-61.1058 34.1397-59.6188 34.1397-57.4465ZM52.901-50.4225C52.901-48.1879 54.3716-46.7197 56.6204-46.7197L63.5243-46.7197C65.7752-46.7197 67.2435-48.1879 67.2435-50.4225L67.2435-57.4465C67.2435-59.6624 65.7752-61.1058 63.5243-61.1058L56.6204-61.1058C54.3716-61.1058 52.901-59.6624 52.901-57.4465ZM71.5565-50.4225C71.5565-48.1879 73.0412-46.7197 75.3194-46.7197L82.2397-46.7197C84.4721-46.7197 85.959-48.1879 85.959-50.4225L85.959-57.4465C85.959-59.6188 84.4721-61.1058 82.2397-61.1058L75.3194-61.1058C73.0412-61.1058 71.5565-59.6188 71.5565-57.4465ZM34.1397-31.7047C34.1397-29.4866 35.6102-28.0455 37.8589-28.0455L44.7628-28.0455C47.0575-28.0455 48.5257-29.4866 48.5257-31.7047L48.5257-38.7452C48.5257-40.9611 47.0575-42.4044 44.7628-42.4044L37.8589-42.4044C35.6102-42.4044 34.1397-40.9611 34.1397-38.7452ZM52.901-31.7047C52.901-29.4866 54.328-28.0455 56.6204-28.0455L63.5243-28.0455C65.8188-28.0455 67.2435-29.4866 67.2435-31.7047L67.2435-38.7452C67.2435-40.9611 65.8188-42.4044 63.5243-42.4044L56.6204-42.4044C54.328-42.4044 52.901-40.9611 52.901-38.7452ZM71.5565-31.7047C71.5565-29.4866 73.0412-28.0455 75.3194-28.0455L82.2397-28.0455C84.4721-28.0455 85.959-29.4866 85.959-31.7047L85.959-38.7452C85.959-40.9611 84.4721-42.4044 82.2397-42.4044L75.3194-42.4044C73.0412-42.4044 71.5565-40.9611 71.5565-38.7452ZM34.1397-13.0057C34.1397-10.817 35.6102-9.34641 37.8589-9.34641L44.7628-9.34641C47.0575-9.34641 48.5257-10.817 48.5257-13.0057L48.5257-20.0297C48.5257-22.2643 47.0575-23.7325 44.7628-23.7325L37.8589-23.7325C35.6102-23.7325 34.1397-22.2643 34.1397-20.0297ZM52.901-13.0057C52.901-10.7734 54.3716-9.34641 56.6204-9.34641L63.5243-9.34641C65.7752-9.34641 67.2435-10.7734 67.2435-13.0057L67.2435-20.0297C67.2435-22.2643 65.7752-23.7325 63.5243-23.7325L56.6204-23.7325C54.3716-23.7325 52.901-22.2643 52.901-20.0297ZM71.5565-13.0057C71.5565-10.817 73.0412-9.34641 75.3194-9.34641L82.2397-9.34641C84.4721-9.34641 85.959-10.817 85.959-13.0057L85.959-20.0297C85.959-22.2643 84.4721-23.7325 82.2397-23.7325L75.3194-23.7325C73.0412-23.7325 71.5565-22.2643 71.5565-20.0297Z"/>
  </g>
  <g id="Bold-M" transform="matrix(1 0 0 1 2280.85 1126)">
   <path d="M29.6986 11.4855L88.5521 11.4855C99.7145 11.4855 105.79 5.39999 105.79-5.66635L105.79-64.7201C105.79-75.7864 99.7145-81.8719 88.5521-81.8719L29.6986-81.8719C18.5648-81.8719 12.4609-75.7967 12.4609-64.7201L12.4609-5.66635C12.4609 5.41026 18.5648 11.4855 29.6986 11.4855ZM31.0794-1.13882C27.1457-1.13882 25.0567-3.02785 25.0567-7.19019L25.0567-63.1963C25.0567-67.33 27.1457-69.2476 31.0794-69.2476L87.1714-69.2476C91.0845-69.2476 93.1941-67.33 93.1941-63.1963L93.1941-7.19019C93.1941-3.02785 91.0845-1.13882 87.1714-1.13882ZM31.9057-51.4249C31.9057-49.2371 33.3173-47.8307 35.5286-47.8307L42.8508-47.8307C45.0958-47.8307 46.5022-49.2371 46.5022-51.4249L46.5022-58.8614C46.5022-60.9869 45.0958-62.4271 42.8508-62.4271L35.5286-62.4271C33.3173-62.4271 31.9057-60.9869 31.9057-58.8614ZM51.8726-51.4249C51.8726-49.2371 53.2841-47.8307 55.4955-47.8307L62.8176-47.8307C65.034-47.8307 66.4405-49.2371 66.4405-51.4249L66.4405-58.8614C66.4405-61.0155 65.034-62.4271 62.8176-62.4271L55.4955-62.4271C53.2841-62.4271 51.8726-61.0155 51.8726-58.8614ZM71.7485-51.4249C71.7485-49.2371 73.1836-47.8307 75.3999-47.8307L82.7506-47.8307C84.9334-47.8307 86.3736-49.2371 86.3736-51.4249L86.3736-58.8614C86.3736-60.9869 84.9334-62.4271 82.7506-62.4271L75.3999-62.4271C73.1836-62.4271 71.7485-60.9869 71.7485-58.8614ZM31.9057-31.4867C31.9057-29.3275 33.3173-27.9209 35.5286-27.9209L42.8508-27.9209C45.0958-27.9209 46.5022-29.3275 46.5022-31.4867L46.5022-38.9518C46.5022-41.1059 45.0958-42.5175 42.8508-42.5175L35.5286-42.5175C33.3173-42.5175 31.9057-41.1059 31.9057-38.9518ZM51.8726-31.4867C51.8726-29.3275 53.2556-27.9209 55.4955-27.9209L62.8176-27.9209C65.0625-27.9209 66.4405-29.3275 66.4405-31.4867L66.4405-38.9518C66.4405-41.1059 65.0625-42.5175 62.8176-42.5175L55.4955-42.5175C53.2556-42.5175 51.8726-41.1059 51.8726-38.9518ZM71.7485-31.4867C71.7485-29.3275 73.1836-27.9209 75.3999-27.9209L82.7506-27.9209C84.9334-27.9209 86.3736-29.3275 86.3736-31.4867L86.3736-38.9518C86.3736-41.1059 84.9334-42.5175 82.7506-42.5175L75.3999-42.5175C73.1836-42.5175 71.7485-41.1059 71.7485-38.9518ZM31.9057-11.5822C31.9057-9.42804 33.3173-8.01646 35.5286-8.01646L42.8508-8.01646C45.0958-8.01646 46.5022-9.42804 46.5022-11.5822L46.5022-19.0187C46.5022-21.2065 45.0958-22.6129 42.8508-22.6129L35.5286-22.6129C33.3173-22.6129 31.9057-21.2065 31.9057-19.0187ZM51.8726-11.5822C51.8726-9.39951 53.2841-8.01646 55.4955-8.01646L62.8176-8.01646C65.034-8.01646 66.4405-9.39951 66.4405-11.5822L66.4405-19.0187C66.4405-21.2065 65.034-22.6129 62.8176-22.6129L55.4955-22.6129C53.2841-22.6129 51.8726-21.2065 51.8726-19.0187ZM71.7485-11.5822C71.7485-9.42804 73.1836-8.01646 75.3999-8.01646L82.7506-8.01646C84.9334-8.01646 86.3736-9.42804 86.3736-11.5822L86.3736-19.0187C86.3736-21.2065 84.9334-22.6129 82.7506-22.6129L75.3999-22.6129C73.1836-22.6129 71.7485-21.2065 71.7485-19.0187Z"/>
  </g>
  <g id="Semibold-M" transform="matrix(1 0 0 1 1984.77 1126)">
   <path d="M28.9999 10.8604L87.9882 10.8604C98.812 10.8604 104.527 5.13103 104.527-5.56745L104.527-64.8151C104.527-75.5135 98.812-81.2428 87.9882-81.2428L28.9999-81.2428C18.2131-81.2428 12.4609-75.5277 12.4609-64.8151L12.4609-5.56745C12.4609 5.14524 18.2131 10.8604 28.9999 10.8604ZM29.9234-0.046209C25.6465-0.046209 23.3305-2.17856 23.3305-6.67616L23.3305-63.7064C23.3305-68.1669 25.6465-70.3363 29.9234-70.3363L87.0647-70.3363C91.3131-70.3363 93.6576-68.1669 93.6576-63.7064L93.6576-6.67616C93.6576-2.17856 91.3131-0.046209 87.0647-0.046209ZM30.3657-52.116C30.3657-49.9604 31.7366-48.5966 33.9221-48.5966L41.5326-48.5966C43.7434-48.5966 45.1071-49.9604 45.1071-52.116L45.1071-59.8368C45.1071-61.9301 43.7434-63.3381 41.5326-63.3381L33.9221-63.3381C31.7366-63.3381 30.3657-61.9301 30.3657-59.8368ZM51.1635-52.116C51.1635-49.9604 52.5344-48.5966 54.72-48.5966L62.3304-48.5966C64.523-48.5966 65.8868-49.9604 65.8868-52.116L65.8868-59.8368C65.8868-61.9483 64.523-63.3381 62.3304-63.3381L54.72-63.3381C52.5344-63.3381 51.1635-61.9483 51.1635-59.8368ZM71.8809-52.116C71.8809-49.9604 73.2817-48.5966 75.4555-48.5966L83.1029-48.5966C85.2514-48.5966 86.6594-49.9604 86.6594-52.116L86.6594-59.8368C86.6594-61.9301 85.2514-63.3381 83.1029-63.3381L75.4555-63.3381C73.2817-63.3381 71.8809-61.9301 71.8809-59.8368ZM30.3657-31.3364C30.3657-29.2178 31.7366-27.8351 33.9221-27.8351L41.5326-27.8351C43.7434-27.8351 45.1071-29.2178 45.1071-31.3364L45.1071-39.0942C45.1071-41.2057 43.7434-42.5954 41.5326-42.5954L33.9221-42.5954C31.7366-42.5954 30.3657-41.2057 30.3657-39.0942ZM51.1635-31.3364C51.1635-29.2178 52.5163-27.8351 54.72-27.8351L62.3304-27.8351C64.5412-27.8351 65.8868-29.2178 65.8868-31.3364L65.8868-39.0942C65.8868-41.2057 64.5412-42.5954 62.3304-42.5954L54.72-42.5954C52.5163-42.5954 51.1635-41.2057 51.1635-39.0942ZM71.8809-31.3364C71.8809-29.2178 73.2817-27.8351 75.4555-27.8351L83.1029-27.8351C85.2514-27.8351 86.6594-29.2178 86.6594-31.3364L86.6594-39.0942C86.6594-41.2057 85.2514-42.5954 83.1029-42.5954L75.4555-42.5954C73.2817-42.5954 71.8809-41.2057 71.8809-39.0942ZM30.3657-10.6009C30.3657-8.47053 31.7366-7.0996 33.9221-7.0996L41.5326-7.0996C43.7434-7.0996 45.1071-8.47053 45.1071-10.6009L45.1071-18.3217C45.1071-20.4773 43.7434-21.841 41.5326-21.841L33.9221-21.841C31.7366-21.841 30.3657-20.4773 30.3657-18.3217ZM51.1635-10.6009C51.1635-8.45239 52.5344-7.0996 54.72-7.0996L62.3304-7.0996C64.523-7.0996 65.8868-8.45239 65.8868-10.6009L65.8868-18.3217C65.8868-20.4773 64.523-21.841 62.3304-21.841L54.72-21.841C52.5344-21.841 51.1635-20.4773 51.1635-18.3217ZM71.8809-10.6009C71.8809-8.47053 73.2817-7.0996 75.4555-7.0996L83.1029-7.0996C85.2514-7.0996 86.6594-8.47053 86.6594-10.6009L86.6594-18.3217C86.6594-20.4773 85.2514-21.841 83.1029-21.841L75.4555-21.841C73.2817-21.841 71.8809-20.4773 71.8809-18.3217Z"/>
  </g>
  <g id="Medium-M" transform="matrix(1 0 0 1 1688.54 1126)">
   <path d="M28.47 10.3864L87.5606 10.3864C98.1276 10.3864 103.57 4.9271 103.57-5.49245L103.57-64.8871C103.57-75.3066 98.1276-80.7658 87.5606-80.7658L28.47-80.7658C17.9464-80.7658 12.4609-75.3238 12.4609-64.8871L12.4609-5.49245C12.4609 4.9443 17.9464 10.3864 28.47 10.3864ZM29.0468 0.782258C24.5098 0.782258 22.0216-1.53459 22.0216-6.28639L22.0216-64.0931C22.0216-68.8015 24.5098-71.1617 29.0468-71.1617L86.9839-71.1617C91.4864-71.1617 94.0091-68.8015 94.0091-64.0931L94.0091-6.28639C94.0091-1.53459 91.4864 0.782258 86.9839 0.782258ZM29.198-52.64C29.198-50.5088 30.5381-49.1774 32.704-49.1774L40.5331-49.1774C42.718-49.1774 44.0494-50.5088 44.0494-52.64L44.0494-60.5764C44.0494-62.6453 42.718-64.0288 40.5331-64.0288L32.704-64.0288C30.5381-64.0288 29.198-62.6453 29.198-60.5764ZM50.6259-52.64C50.6259-50.5088 51.966-49.1774 54.132-49.1774L61.961-49.1774C64.1355-49.1774 65.4671-50.5088 65.4671-52.64L65.4671-60.5764C65.4671-62.6556 64.1355-64.0288 61.961-64.0288L54.132-64.0288C51.966-64.0288 50.6259-62.6556 50.6259-60.5764ZM71.9813-52.64C71.9813-50.5088 73.3562-49.1774 75.4976-49.1774L83.37-49.1774C85.4925-49.1774 86.8761-50.5088 86.8761-52.64L86.8761-60.5764C86.8761-62.6453 85.4925-64.0288 83.37-64.0288L75.4976-64.0288C73.3562-64.0288 71.9813-62.6453 71.9813-60.5764ZM29.198-31.2224C29.198-29.1346 30.5381-27.77 32.704-27.77L40.5331-27.77C42.718-27.77 44.0494-29.1346 44.0494-31.2224L44.0494-39.2022C44.0494-41.2814 42.718-42.6545 40.5331-42.6545L32.704-42.6545C30.5381-42.6545 29.198-41.2814 29.198-39.2022ZM50.6259-31.2224C50.6259-29.1346 51.9557-27.77 54.132-27.77L61.961-27.77C64.1458-27.77 65.4671-29.1346 65.4671-31.2224L65.4671-39.2022C65.4671-41.2814 64.1458-42.6545 61.961-42.6545L54.132-42.6545C51.9557-42.6545 50.6259-41.2814 50.6259-39.2022ZM71.9813-31.2224C71.9813-29.1346 73.3562-27.77 75.4976-27.77L83.37-27.77C85.4925-27.77 86.8761-29.1346 86.8761-31.2224L86.8761-39.2022C86.8761-41.2814 85.4925-42.6545 83.37-42.6545L75.4976-42.6545C73.3562-42.6545 71.9813-41.2814 71.9813-39.2022ZM29.198-9.85677C29.198-7.74451 30.5381-6.40439 32.704-6.40439L40.5331-6.40439C42.718-6.40439 44.0494-7.74451 44.0494-9.85677L44.0494-17.7932C44.0494-19.9244 42.718-21.2558 40.5331-21.2558L32.704-21.2558C30.5381-21.2558 29.198-19.9244 29.198-17.7932ZM50.6259-9.85677C50.6259-7.73424 51.966-6.40439 54.132-6.40439L61.961-6.40439C64.1355-6.40439 65.4671-7.73424 65.4671-9.85677L65.4671-17.7932C65.4671-19.9244 64.1355-21.2558 61.961-21.2558L54.132-21.2558C51.966-21.2558 50.6259-19.9244 50.6259-17.7932ZM71.9813-9.85677C71.9813-7.74451 73.3562-6.40439 75.4976-6.40439L83.37-6.40439C85.4925-6.40439 86.8761-7.74451 86.8761-9.85677L86.8761-17.7932C86.8761-19.9244 85.4925-21.2558 83.37-21.2558L75.4976-21.2558C73.3562-21.2558 71.9813-19.9244 71.9813-17.7932Z"/>
  </g>
  <g id="Regular-M" transform="matrix(1 0 0 1 1392.46 1126)">
   <path d="M27.7789 9.76808L87.003 9.76808C97.235 9.76808 102.321 4.6611 102.321-5.39464L102.321-64.981C102.321-75.0367 97.235-80.1437 87.003-80.1437L27.7789-80.1437C17.5986-80.1437 12.4609-75.0578 12.4609-64.981L12.4609-5.39464C12.4609 4.6822 17.5986 9.76808 27.7789 9.76808ZM27.9035 1.86287C23.0271 1.86287 20.3144-0.694631 20.3144-5.77801L20.3144-64.5976C20.3144-69.6292 23.0271-72.2384 27.9035-72.2384L86.8784-72.2384C91.7125-72.2384 94.4675-69.6292 94.4675-64.5976L94.4675-5.77801C94.4675-0.694631 91.7125 1.86287 86.8784 1.86287ZM27.6749-53.3234C27.6749-51.2242 28.9748-49.9349 31.1152-49.9349L39.2294-49.9349C41.3804-49.9349 42.6697-51.2242 42.6697-53.3234L42.6697-61.5411C42.6697-63.5781 41.3804-64.9297 39.2294-64.9297L31.1152-64.9297C28.9748-64.9297 27.6749-63.5781 27.6749-61.5411ZM49.9247-53.3234C49.9247-51.2242 51.2245-49.9349 53.365-49.9349L61.4792-49.9349C63.6301-49.9349 64.9195-51.2242 64.9195-53.3234L64.9195-61.5411C64.9195-63.5781 63.6301-64.9297 61.4792-64.9297L53.365-64.9297C51.2245-64.9297 49.9247-63.5781 49.9247-61.5411ZM72.1122-53.3234C72.1122-51.2242 73.4532-49.9349 75.5525-49.9349L83.7183-49.9349C85.8071-49.9349 87.1587-51.2242 87.1587-53.3234L87.1587-61.5411C87.1587-63.5781 85.8071-64.9297 83.7183-64.9297L75.5525-64.9297C73.4532-64.9297 72.1122-63.5781 72.1122-61.5411ZM27.6749-31.0737C27.6749-29.0262 28.9748-27.6851 31.1152-27.6851L39.2294-27.6851C41.3804-27.6851 42.6697-29.0262 42.6697-31.0737L42.6697-39.3431C42.6697-41.3801 41.3804-42.7316 39.2294-42.7316L31.1152-42.7316C28.9748-42.7316 27.6749-41.3801 27.6749-39.3431ZM49.9247-31.0737C49.9247-29.0262 51.2245-27.6851 53.365-27.6851L61.4792-27.6851C63.6301-27.6851 64.9195-29.0262 64.9195-31.0737L64.9195-39.3431C64.9195-41.3801 63.6301-42.7316 61.4792-42.7316L53.365-42.7316C51.2245-42.7316 49.9247-41.3801 49.9247-39.3431ZM72.1122-31.0737C72.1122-29.0262 73.4532-27.6851 75.5525-27.6851L83.7183-27.6851C85.8071-27.6851 87.1587-29.0262 87.1587-31.0737L87.1587-39.3431C87.1587-41.3801 85.8071-42.7316 83.7183-42.7316L75.5525-42.7316C73.4532-42.7316 72.1122-41.3801 72.1122-39.3431ZM27.6749-8.88623C27.6749-6.79752 28.9748-5.49761 31.1152-5.49761L39.2294-5.49761C41.3804-5.49761 42.6697-6.79752 42.6697-8.88623L42.6697-17.1039C42.6697-19.2032 41.3804-20.4924 39.2294-20.4924L31.1152-20.4924C28.9748-20.4924 27.6749-19.2032 27.6749-17.1039ZM49.9247-8.88623C49.9247-6.79752 51.2245-5.49761 53.365-5.49761L61.4792-5.49761C63.6301-5.49761 64.9195-6.79752 64.9195-8.88623L64.9195-17.1039C64.9195-19.2032 63.6301-20.4924 61.4792-20.4924L53.365-20.4924C51.2245-20.4924 49.9247-19.2032 49.9247-17.1039ZM72.1122-8.88623C72.1122-6.79752 73.4532-5.49761 75.5525-5.49761L83.7183-5.49761C85.8071-5.49761 87.1587-6.79752 87.1587-8.88623L87.1587-17.1039C87.1587-19.2032 85.8071-20.4924 83.7183-20.4924L75.5525-20.4924C73.4532-20.4924 72.1122-19.2032 72.1122-17.1039Z"/>
  </g>
  <g id="Light-M" transform="matrix(1 0 0 1 1096.49 1126)">
   <path d="M26.8549 9.03231L86.4383 9.03231C95.9859 9.03231 100.832 4.13066 100.832-5.25774L100.832-65.0837C100.832-74.472 95.9859-79.3737 86.4383-79.3737L26.8549-79.3737C17.3419-79.3737 12.4609-74.5273 12.4609-65.0837L12.4609-5.25774C12.4609 4.18599 17.3419 9.03231 26.8549 9.03231ZM26.9795 2.95796C21.47 2.95796 18.5006 0.0924724 18.5006-5.55554L18.5006-64.7858C18.5006-70.3992 21.47-73.2993 26.9795-73.2993L86.3138-73.2993C91.7125-73.2993 94.7926-70.3992 94.7926-64.7858L94.7926-5.55554C94.7926 0.0924724 91.7125 2.95796 86.3138 2.95796ZM25.6729-53.8197C25.6729-51.5493 27.161-50.0889 29.4384-50.0889L37.9803-50.0889C40.2853-50.0889 41.7457-51.5493 41.7457-53.8197L41.7457-62.4309C41.7457-64.639 40.2853-66.1617 37.9803-66.1617L29.4384-66.1617C27.161-66.1617 25.6729-64.639 25.6729-62.4309ZM48.6414-53.8197C48.6414-51.5493 50.1294-50.0889 52.4068-50.0889L60.9487-50.0889C63.2537-50.0889 64.7141-51.5493 64.7141-53.8197L64.7141-62.4309C64.7141-64.639 63.2537-66.1617 60.9487-66.1617L52.4068-66.1617C50.1294-66.1617 48.6414-64.639 48.6414-62.4309ZM71.5475-53.8197C71.5475-51.5493 73.0426-50.0889 75.3129-50.0889L83.8895-50.0889C86.1322-50.0889 87.6549-51.5493 87.6549-53.8197L87.6549-62.4309C87.6549-64.639 86.1322-66.1617 83.8895-66.1617L75.3129-66.1617C73.0426-66.1617 71.5475-64.639 71.5475-62.4309ZM25.6729-30.8513C25.6729-28.6155 27.161-27.1204 29.4384-27.1204L37.9803-27.1204C40.2853-27.1204 41.7457-28.6155 41.7457-30.8513L41.7457-39.4971C41.7457-41.7052 40.2853-43.2278 37.9803-43.2278L29.4384-43.2278C27.161-43.2278 25.6729-41.7052 25.6729-39.4971ZM48.6414-30.8513C48.6414-28.6155 50.1294-27.1204 52.4068-27.1204L60.9487-27.1204C63.2537-27.1204 64.7141-28.6155 64.7141-30.8513L64.7141-39.4971C64.7141-41.7052 63.2537-43.2278 60.9487-43.2278L52.4068-43.2278C50.1294-43.2278 48.6414-41.7052 48.6414-39.4971ZM71.5475-30.8513C71.5475-28.6155 73.0426-27.1204 75.3129-27.1204L83.8895-27.1204C86.1322-27.1204 87.6549-28.6155 87.6549-30.8513L87.6549-39.4971C87.6549-41.7052 86.1322-43.2278 83.8895-43.2278L75.3129-43.2278C73.0426-43.2278 71.5475-41.7052 71.5475-39.4971ZM25.6729-7.94511C25.6729-5.70239 27.161-4.2143 29.4384-4.2143L37.9803-4.2143C40.2853-4.2143 41.7457-5.70239 41.7457-7.94511L41.7457-16.5563C41.7457-18.8267 40.2853-20.2871 37.9803-20.2871L29.4384-20.2871C27.161-20.2871 25.6729-18.8267 25.6729-16.5563ZM48.6414-7.94511C48.6414-5.70239 50.1294-4.2143 52.4068-4.2143L60.9487-4.2143C63.2537-4.2143 64.7141-5.70239 64.7141-7.94511L64.7141-16.5563C64.7141-18.8267 63.2537-20.2871 60.9487-20.2871L52.4068-20.2871C50.1294-20.2871 48.6414-18.8267 48.6414-16.5563ZM71.5475-7.94511C71.5475-5.70239 73.0426-4.2143 75.3129-4.2143L83.8895-4.2143C86.1322-4.2143 87.6549-5.70239 87.6549-7.94511L87.6549-16.5563C87.6549-18.8267 86.1322-20.2871 83.8895-20.2871L75.3129-20.2871C73.0426-20.2871 71.5475-18.8267 71.5475-16.5563Z"/>
  </g>
  <g id="Thin-M" transform="matrix(1 0 0 1 800.76 1126)">
   <path d="M25.6329 8.05919L85.6915 8.05919C94.3339 8.05919 98.8635 3.42911 98.8635-5.07669L98.8635-65.2195C98.8635-73.7252 94.3339-78.3552 85.6915-78.3552L25.6329-78.3552C17.0025-78.3552 12.4609-73.8258 12.4609-65.2195L12.4609-5.07669C12.4609 3.5297 17.0025 8.05919 25.6329 8.05919ZM25.7574 4.40632C19.4106 4.40632 16.1018 1.13348 16.1018-5.2613L16.1018-65.0348C16.1018-71.4175 19.4106-74.7024 25.7574-74.7024L85.567-74.7024C91.7125-74.7024 95.2225-71.4175 95.2225-65.0348L95.2225-5.2613C95.2225 1.13348 91.7125 4.40632 85.567 4.40632ZM23.0251-54.476C23.0251-51.9793 24.7621-50.2926 27.2206-50.2926L36.3282-50.2926C38.837-50.2926 40.5237-51.9793 40.5237-54.476L40.5237-63.6077C40.5237-66.0421 38.837-67.7911 36.3282-67.7911L27.2206-67.7911C24.7621-67.7911 23.0251-66.0421 23.0251-63.6077ZM46.9441-54.476C46.9441-51.9793 48.6811-50.2926 51.1395-50.2926L60.2472-50.2926C62.7558-50.2926 64.4425-51.9793 64.4425-54.476L64.4425-63.6077C64.4425-66.0421 62.7558-67.7911 60.2472-67.7911L51.1395-67.7911C48.6811-67.7911 46.9441-66.0421 46.9441-63.6077ZM70.8007-54.476C70.8007-51.9793 72.4994-50.2926 74.9961-50.2926L84.1158-50.2926C86.5622-50.2926 88.3112-51.9793 88.3112-54.476L88.3112-63.6077C88.3112-66.0421 86.5622-67.7911 84.1158-67.7911L74.9961-67.7911C72.4994-67.7911 70.8007-66.0421 70.8007-63.6077ZM23.0251-30.5571C23.0251-28.0724 24.7621-26.3736 27.2206-26.3736L36.3282-26.3736C38.837-26.3736 40.5237-28.0724 40.5237-30.5571L40.5237-39.7008C40.5237-42.1352 38.837-43.8841 36.3282-43.8841L27.2206-43.8841C24.7621-43.8841 23.0251-42.1352 23.0251-39.7008ZM46.9441-30.5571C46.9441-28.0724 48.6811-26.3736 51.1395-26.3736L60.2472-26.3736C62.7558-26.3736 64.4425-28.0724 64.4425-30.5571L64.4425-39.7008C64.4425-42.1352 62.7558-43.8841 60.2472-43.8841L51.1395-43.8841C48.6811-43.8841 46.9441-42.1352 46.9441-39.7008ZM70.8007-30.5571C70.8007-28.0724 72.4994-26.3736 74.9961-26.3736L84.1158-26.3736C86.5622-26.3736 88.3112-28.0724 88.3112-30.5571L88.3112-39.7008C88.3112-42.1352 86.5622-43.8841 84.1158-43.8841L74.9961-43.8841C72.4994-43.8841 70.8007-42.1352 70.8007-39.7008ZM23.0251-6.70039C23.0251-4.254 24.7621-2.51701 27.2206-2.51701L36.3282-2.51701C38.837-2.51701 40.5237-4.254 40.5237-6.70039L40.5237-15.8321C40.5237-18.3288 38.837-20.0156 36.3282-20.0156L27.2206-20.0156C24.7621-20.0156 23.0251-18.3288 23.0251-15.8321ZM46.9441-6.70039C46.9441-4.254 48.6811-2.51701 51.1395-2.51701L60.2472-2.51701C62.7558-2.51701 64.4425-4.254 64.4425-6.70039L64.4425-15.8321C64.4425-18.3288 62.7558-20.0156 60.2472-20.0156L51.1395-20.0156C48.6811-20.0156 46.9441-18.3288 46.9441-15.8321ZM70.8007-6.70039C70.8007-4.254 72.4994-2.51701 74.9961-2.51701L84.1158-2.51701C86.5622-2.51701 88.3112-4.254 88.3112-6.70039L88.3112-15.8321C88.3112-18.3288 86.5622-20.0156 84.1158-20.0156L74.9961-20.0156C72.4994-20.0156 70.8007-18.3288 70.8007-15.8321Z"/>
  </g>
  <g id="Ultralight-M" transform="matrix(1 0 0 1 504.553 1126)">
   <path d="M25.0069 7.56077L85.309 7.56077C93.4877 7.56077 97.855 3.06979 97.855-4.98395L97.855-65.289C97.855-73.3427 93.4877-77.8336 85.309-77.8336L25.0069-77.8336C16.8286-77.8336 12.4609-73.4664 12.4609-65.289L12.4609-4.98395C12.4609 3.19355 16.8286 7.56077 25.0069 7.56077ZM25.1315 5.14816C18.3558 5.14816 14.8731 1.66668 14.8731-5.1106L14.8731-65.1623C14.8731-71.9391 18.3558-75.4211 25.1315-75.4211L85.1845-75.4211C91.7125-75.4211 95.4427-71.9391 95.4427-65.1623L95.4427-5.1106C95.4427 1.66668 91.7125 5.14816 85.1845 5.14816ZM21.669-54.8121C21.669-52.1995 23.5334-50.3969 26.0847-50.3969L35.482-50.3969C38.0952-50.3969 39.8977-52.1995 39.8977-54.8121L39.8977-64.2104C39.8977-66.7607 38.0952-68.6257 35.482-68.6257L26.0847-68.6257C23.5334-68.6257 21.669-66.7607 21.669-64.2104ZM46.0748-54.8121C46.0748-52.1995 47.9392-50.3969 50.4903-50.3969L59.8879-50.3969C62.5008-50.3969 64.3034-52.1995 64.3034-54.8121L64.3034-64.2104C64.3034-66.7607 62.5008-68.6257 59.8879-68.6257L50.4903-68.6257C47.9392-68.6257 46.0748-66.7607 46.0748-64.2104ZM70.4182-54.8121C70.4182-52.1995 72.2212-50.3969 74.8338-50.3969L84.2317-50.3969C86.7824-50.3969 88.6474-52.1995 88.6474-54.8121L88.6474-64.2104C88.6474-66.7607 86.7824-68.6257 84.2317-68.6257L74.8338-68.6257C72.2212-68.6257 70.4182-66.7607 70.4182-64.2104ZM21.669-30.4064C21.669-27.7942 23.5334-25.9911 26.0847-25.9911L35.482-25.9911C38.0952-25.9911 39.8977-27.7942 39.8977-30.4064L39.8977-39.8051C39.8977-42.3554 38.0952-44.2203 35.482-44.2203L26.0847-44.2203C23.5334-44.2203 21.669-42.3554 21.669-39.8051ZM46.0748-30.4064C46.0748-27.7942 47.9392-25.9911 50.4903-25.9911L59.8879-25.9911C62.5008-25.9911 64.3034-27.7942 64.3034-30.4064L64.3034-39.8051C64.3034-42.3554 62.5008-44.2203 59.8879-44.2203L50.4903-44.2203C47.9392-44.2203 46.0748-42.3554 46.0748-39.8051ZM70.4182-30.4064C70.4182-27.7942 72.2212-25.9911 74.8338-25.9911L84.2317-25.9911C86.7824-25.9911 88.6474-27.7942 88.6474-30.4064L88.6474-39.8051C88.6474-42.3554 86.7824-44.2203 84.2317-44.2203L74.8338-44.2203C72.2212-44.2203 70.4182-42.3554 70.4182-39.8051ZM21.669-6.06286C21.669-3.51214 23.5334-1.64767 26.0847-1.64767L35.482-1.64767C38.0952-1.64767 39.8977-3.51214 39.8977-6.06286L39.8977-15.4612C39.8977-18.0737 38.0952-19.8765 35.482-19.8765L26.0847-19.8765C23.5334-19.8765 21.669-18.0737 21.669-15.4612ZM46.0748-6.06286C46.0748-3.51214 47.9392-1.64767 50.4903-1.64767L59.8879-1.64767C62.5008-1.64767 64.3034-3.51214 64.3034-6.06286L64.3034-15.4612C64.3034-18.0737 62.5008-19.8765 59.8879-19.8765L50.4903-19.8765C47.9392-19.8765 46.0748-18.0737 46.0748-15.4612ZM70.4182-6.06286C70.4182-3.51214 72.2212-1.64767 74.8338-1.64767L84.2317-1.64767C86.7824-1.64767 88.6474-3.51214 88.6474-6.06286L88.6474-15.4612C88.6474-18.0737 86.7824-19.8765 84.2317-19.8765L74.8338-19.8765C72.2212-19.8765 70.4182-18.0737 70.4182-15.4612Z"/>
  </g>
  <g id="Black-S" transform="matrix(1 0 0 1 2885.5 696)">
   <path d="M25 2.92969L70.8008 2.92969C80.3711 2.92969 86.0352-2.73438 86.0352-12.3047L86.0352-58.1055C86.0352-67.6758 80.3711-73.3398 70.8008-73.3398L25-73.3398C15.4297-73.3398 9.76562-67.6758 9.76562-58.1055L9.76562-12.3047C9.76562-2.73438 15.4297 2.92969 25 2.92969ZM27.2461-11.2305C25-11.2305 23.9258-12.1094 23.9258-14.5508L23.9258-55.8594C23.9258-58.3008 25-59.1797 27.2461-59.1797L68.5547-59.1797C70.8008-59.1797 71.875-58.3008 71.875-55.8594L71.875-14.5508C71.875-12.1094 70.8008-11.2305 68.5547-11.2305ZM28.8086-46.1914C28.8086-44.3848 30.0293-43.1641 31.8359-43.1641L36.8652-43.1641C38.7207-43.1641 39.9414-44.3848 39.9414-46.1914L39.9414-51.3184C39.9414-53.0762 38.7207-54.2969 36.8652-54.2969L31.8359-54.2969C30.0293-54.2969 28.8086-53.0762 28.8086-51.3184ZM42.3828-46.1914C42.3828-44.3848 43.6035-43.1641 45.4102-43.1641L50.4395-43.1641C52.2461-43.1641 53.4668-44.3848 53.4668-46.1914L53.4668-51.3184C53.4668-53.125 52.2461-54.2969 50.4395-54.2969L45.4102-54.2969C43.6035-54.2969 42.3828-53.125 42.3828-51.3184ZM55.8594-46.1914C55.8594-44.3848 57.0801-43.1641 58.9355-43.1641L63.9648-43.1641C65.7715-43.1641 66.9922-44.3848 66.9922-46.1914L66.9922-51.3184C66.9922-53.0762 65.7715-54.2969 63.9648-54.2969L58.9355-54.2969C57.0801-54.2969 55.8594-53.0762 55.8594-51.3184ZM28.8086-32.666C28.8086-30.8594 30.0293-29.6875 31.8359-29.6875L36.8652-29.6875C38.7207-29.6875 39.9414-30.8594 39.9414-32.666L39.9414-37.793C39.9414-39.5996 38.7207-40.7715 36.8652-40.7715L31.8359-40.7715C30.0293-40.7715 28.8086-39.5996 28.8086-37.793ZM42.3828-32.666C42.3828-30.8594 43.5547-29.6875 45.4102-29.6875L50.4395-29.6875C52.2949-29.6875 53.4668-30.8594 53.4668-32.666L53.4668-37.793C53.4668-39.5996 52.2949-40.7715 50.4395-40.7715L45.4102-40.7715C43.5547-40.7715 42.3828-39.5996 42.3828-37.793ZM55.8594-32.666C55.8594-30.8594 57.0801-29.6875 58.9355-29.6875L63.9648-29.6875C65.7715-29.6875 66.9922-30.8594 66.9922-32.666L66.9922-37.793C66.9922-39.5996 65.7715-40.7715 63.9648-40.7715L58.9355-40.7715C57.0801-40.7715 55.8594-39.5996 55.8594-37.793ZM28.8086-19.1406C28.8086-17.3828 30.0293-16.1621 31.8359-16.1621L36.8652-16.1621C38.7207-16.1621 39.9414-17.3828 39.9414-19.1406L39.9414-24.2676C39.9414-26.0742 38.7207-27.2949 36.8652-27.2949L31.8359-27.2949C30.0293-27.2949 28.8086-26.0742 28.8086-24.2676ZM42.3828-19.1406C42.3828-17.334 43.6035-16.1621 45.4102-16.1621L50.4395-16.1621C52.2461-16.1621 53.4668-17.334 53.4668-19.1406L53.4668-24.2676C53.4668-26.0742 52.2461-27.2949 50.4395-27.2949L45.4102-27.2949C43.6035-27.2949 42.3828-26.0742 42.3828-24.2676ZM55.8594-19.1406C55.8594-17.3828 57.0801-16.1621 58.9355-16.1621L63.9648-16.1621C65.7715-16.1621 66.9922-17.3828 66.9922-19.1406L66.9922-24.2676C66.9922-26.0742 65.7715-27.2949 63.9648-27.2949L58.9355-27.2949C57.0801-27.2949 55.8594-26.0742 55.8594-24.2676Z"/>
  </g>
  <g id="Heavy-S" transform="matrix(1 0 0 1 2589.39 696)">
   <path d="M24.3431 2.33042L70.2476 2.33042C79.5298 2.33042 84.8251-2.96487 84.8251-12.2125L84.8251-58.1977C84.8251-67.4453 79.5298-72.7405 70.2476-72.7405L24.3431-72.7405C15.0724-72.7405 9.76562-67.4453 9.76562-58.1977L9.76562-12.2125C9.76562-2.96487 15.0724 2.33042 24.3431 2.33042ZM26.0821-10.1587C23.5364-10.1587 22.2432-11.2681 22.2432-14.0092L22.2432-56.401C22.2432-59.1306 23.5364-60.2515 26.0821-60.2515L68.5086-60.2515C71.0543-60.2515 72.3475-59.1306 72.3475-56.401L72.3475-14.0092C72.3475-11.2681 71.0543-10.1587 68.5086-10.1587ZM27.3565-46.8944C27.3565-45.1454 28.5081-43.9939 30.2686-43.9939L35.563-43.9939C37.3608-43.9939 38.5124-45.1454 38.5124-46.8944L38.5124-52.2864C38.5124-53.9866 37.3608-55.1497 35.563-55.1497L30.2686-55.1497C28.5081-55.1497 27.3565-53.9866 27.3565-52.2864ZM41.7605-46.8944C41.7605-45.1454 42.912-43.9939 44.6726-43.9939L49.967-43.9939C51.7275-43.9939 52.8791-45.1454 52.8791-46.8944L52.8791-52.2864C52.8791-54.0239 51.7275-55.1497 49.967-55.1497L44.6726-55.1497C42.912-55.1497 41.7605-54.0239 41.7605-52.2864ZM56.0784-46.8944C56.0784-45.1454 57.2414-43.9939 59.0277-43.9939L64.3336-43.9939C66.0826-43.9939 67.2457-45.1454 67.2457-46.8944L67.2457-52.2864C67.2457-53.9866 66.0826-55.1497 64.3336-55.1497L59.0277-55.1497C57.2414-55.1497 56.0784-53.9866 56.0784-52.2864ZM27.3565-32.5277C27.3565-30.7902 28.5081-29.6644 30.2686-29.6644L35.563-29.6644C37.3608-29.6644 38.5124-30.7902 38.5124-32.5277L38.5124-37.9313C38.5124-39.6688 37.3608-40.7945 35.563-40.7945L30.2686-40.7945C28.5081-40.7945 27.3565-39.6688 27.3565-37.9313ZM41.7605-32.5277C41.7605-30.7902 42.8747-29.6644 44.6726-29.6644L49.967-29.6644C51.7648-29.6644 52.8791-30.7902 52.8791-32.5277L52.8791-37.9313C52.8791-39.6688 51.7648-40.7945 49.967-40.7945L44.6726-40.7945C42.8747-40.7945 41.7605-39.6688 41.7605-37.9313ZM56.0784-32.5277C56.0784-30.7902 57.2414-29.6644 59.0277-29.6644L64.3336-29.6644C66.0826-29.6644 67.2457-30.7902 67.2457-32.5277L67.2457-37.9313C67.2457-39.6688 66.0826-40.7945 64.3336-40.7945L59.0277-40.7945C57.2414-40.7945 56.0784-39.6688 56.0784-37.9313ZM27.3565-18.1726C27.3565-16.4609 28.5081-15.3093 30.2686-15.3093L35.563-15.3093C37.3608-15.3093 38.5124-16.4609 38.5124-18.1726L38.5124-23.5646C38.5124-25.3136 37.3608-26.4651 35.563-26.4651L30.2686-26.4651C28.5081-26.4651 27.3565-25.3136 27.3565-23.5646ZM41.7605-18.1726C41.7605-16.4236 42.912-15.3093 44.6726-15.3093L49.967-15.3093C51.7275-15.3093 52.8791-16.4236 52.8791-18.1726L52.8791-23.5646C52.8791-25.3136 51.7275-26.4651 49.967-26.4651L44.6726-26.4651C42.912-26.4651 41.7605-25.3136 41.7605-23.5646ZM56.0784-18.1726C56.0784-16.4609 57.2414-15.3093 59.0277-15.3093L64.3336-15.3093C66.0826-15.3093 67.2457-16.4609 67.2457-18.1726L67.2457-23.5646C67.2457-25.3136 66.0826-26.4651 64.3336-26.4651L59.0277-26.4651C57.2414-26.4651 56.0784-25.3136 56.0784-23.5646Z"/>
  </g>
  <g id="Bold-S" transform="matrix(1 0 0 1 2293.36 696)">
   <path d="M23.6084 1.66016L69.6289 1.66016C78.5888 1.66016 83.4717-3.22266 83.4717-12.1094L83.4717-58.3008C83.4717-67.1875 78.5888-72.0703 69.6289-72.0703L23.6084-72.0703C14.6729-72.0703 9.76562-67.1875 9.76562-58.3008L9.76562-12.1094C9.76562-3.22266 14.6729 1.66016 23.6084 1.66016ZM24.7803-8.95997C21.8994-8.95997 20.3614-10.3272 20.3614-13.4033L20.3614-57.0069C20.3614-60.0586 21.8994-61.4502 24.7803-61.4502L68.4571-61.4502C71.3379-61.4502 72.876-60.0586 72.876-57.0069L72.876-13.4033C72.876-10.3272 71.3379-8.95997 68.4571-8.95997ZM25.7324-47.6807C25.7324-45.9961 26.8067-44.9219 28.5156-44.9219L34.1065-44.9219C35.8398-44.9219 36.9141-45.9961 36.9141-47.6807L36.9141-53.3691C36.9141-55.0049 35.8398-56.1036 34.1065-56.1036L28.5156-56.1036C26.8067-56.1036 25.7324-55.0049 25.7324-53.3691ZM41.0644-47.6807C41.0644-45.9961 42.1387-44.9219 43.8477-44.9219L49.4385-44.9219C51.1474-44.9219 52.2217-45.9961 52.2217-47.6807L52.2217-53.3691C52.2217-55.0293 51.1474-56.1036 49.4385-56.1036L43.8477-56.1036C42.1387-56.1036 41.0644-55.0293 41.0644-53.3691ZM56.3232-47.6807C56.3232-45.9961 57.4219-44.9219 59.1309-44.9219L64.7461-44.9219C66.4306-44.9219 67.5293-45.9961 67.5293-47.6807L67.5293-53.3691C67.5293-55.0049 66.4306-56.1036 64.7461-56.1036L59.1309-56.1036C57.4219-56.1036 56.3232-55.0049 56.3232-53.3691ZM25.7324-32.373C25.7324-30.7129 26.8067-29.6386 28.5156-29.6386L34.1065-29.6386C35.8398-29.6386 36.9141-30.7129 36.9141-32.373L36.9141-38.086C36.9141-39.7461 35.8398-40.8203 34.1065-40.8203L28.5156-40.8203C26.8067-40.8203 25.7324-39.7461 25.7324-38.086ZM41.0644-32.373C41.0644-30.7129 42.1143-29.6386 43.8477-29.6386L49.4385-29.6386C51.1718-29.6386 52.2217-30.7129 52.2217-32.373L52.2217-38.086C52.2217-39.7461 51.1718-40.8203 49.4385-40.8203L43.8477-40.8203C42.1143-40.8203 41.0644-39.7461 41.0644-38.086ZM56.3232-32.373C56.3232-30.7129 57.4219-29.6386 59.1309-29.6386L64.7461-29.6386C66.4306-29.6386 67.5293-30.7129 67.5293-32.373L67.5293-38.086C67.5293-39.7461 66.4306-40.8203 64.7461-40.8203L59.1309-40.8203C57.4219-40.8203 56.3232-39.7461 56.3232-38.086ZM25.7324-17.0898C25.7324-15.4297 26.8067-14.3555 28.5156-14.3555L34.1065-14.3555C35.8398-14.3555 36.9141-15.4297 36.9141-17.0898L36.9141-22.7783C36.9141-24.4629 35.8398-25.5371 34.1065-25.5371L28.5156-25.5371C26.8067-25.5371 25.7324-24.4629 25.7324-22.7783ZM41.0644-17.0898C41.0644-15.4053 42.1387-14.3555 43.8477-14.3555L49.4385-14.3555C51.1474-14.3555 52.2217-15.4053 52.2217-17.0898L52.2217-22.7783C52.2217-24.4629 51.1474-25.5371 49.4385-25.5371L43.8477-25.5371C42.1387-25.5371 41.0644-24.4629 41.0644-22.7783ZM56.3232-17.0898C56.3232-15.4297 57.4219-14.3555 59.1309-14.3555L64.7461-14.3555C66.4306-14.3555 67.5293-15.4297 67.5293-17.0898L67.5293-22.7783C67.5293-24.4629 66.4306-25.5371 64.7461-25.5371L59.1309-25.5371C57.4219-25.5371 56.3232-24.4629 56.3232-22.7783Z"/>
  </g>
  <g id="Semibold-S" transform="matrix(1 0 0 1 1997.12 696)">
   <path d="M23.1019 1.19805L69.2023 1.19805C77.9401 1.19805 82.5386-3.40039 82.5386-12.0383L82.5386-58.3719C82.5386-67.0098 77.9401-71.6082 69.2023-71.6082L23.1019-71.6082C14.3974-71.6082 9.76562-67.0098 9.76562-58.3719L9.76562-12.0383C9.76562-3.40039 14.3974 1.19805 23.1019 1.19805ZM23.8827-8.1335C20.7708-8.1335 19.0639-9.67842 19.0639-12.9857L19.0639-57.4245C19.0639-60.6984 20.7708-62.2767 23.8827-62.2767L68.4215-62.2767C71.5334-62.2767 73.2404-60.6984 73.2404-57.4245L73.2404-12.9857C73.2404-9.67842 71.5334-8.1335 68.4215-8.1335ZM24.6127-48.2227C24.6127-46.5826 25.6336-45.5617 27.307-45.5617L33.1023-45.5617C34.7912-45.5617 35.8121-46.5826 35.8121-48.2227L35.8121-54.1156C35.8121-55.7069 34.7912-56.7612 33.1023-56.7612L27.307-56.7612C25.6336-56.7612 24.6127-55.7069 24.6127-54.1156ZM40.5846-48.2227C40.5846-46.5826 41.6054-45.5617 43.2789-45.5617L49.0741-45.5617C50.7475-45.5617 51.7685-46.5826 51.7685-48.2227L51.7685-54.1156C51.7685-55.7225 50.7475-56.7612 49.0741-56.7612L43.2789-56.7612C41.6054-56.7612 40.5846-55.7225 40.5846-54.1156ZM56.4921-48.2227C56.4921-46.5826 57.5463-45.5617 59.202-45.5617L65.0304-45.5617C66.6706-45.5617 67.7248-46.5826 67.7248-48.2227L67.7248-54.1156C67.7248-55.7069 66.6706-56.7612 65.0304-56.7612L59.202-56.7612C57.5463-56.7612 56.4921-55.7069 56.4921-54.1156ZM24.6127-32.2664C24.6127-30.6596 25.6336-29.6209 27.307-29.6209L33.1023-29.6209C34.7912-29.6209 35.8121-30.6596 35.8121-32.2664L35.8121-38.1926C35.8121-39.7994 34.7912-40.8381 33.1023-40.8381L27.307-40.8381C25.6336-40.8381 24.6127-39.7994 24.6127-38.1926ZM40.5846-32.2664C40.5846-30.6596 41.5899-29.6209 43.2789-29.6209L49.0741-29.6209C50.7631-29.6209 51.7685-30.6596 51.7685-32.2664L51.7685-38.1926C51.7685-39.7994 50.7631-40.8381 49.0741-40.8381L43.2789-40.8381C41.5899-40.8381 40.5846-39.7994 40.5846-38.1926ZM56.4921-32.2664C56.4921-30.6596 57.5463-29.6209 59.202-29.6209L65.0304-29.6209C66.6706-29.6209 67.7248-30.6596 67.7248-32.2664L67.7248-38.1926C67.7248-39.7994 66.6706-40.8381 65.0304-40.8381L59.202-40.8381C57.5463-40.8381 56.4921-39.7994 56.4921-38.1926ZM24.6127-16.3434C24.6127-14.7188 25.6336-13.6978 27.307-13.6978L33.1023-13.6978C34.7912-13.6978 35.8121-14.7188 35.8121-16.3434L35.8121-22.2363C35.8121-23.8764 34.7912-24.8973 33.1023-24.8973L27.307-24.8973C25.6336-24.8973 24.6127-23.8764 24.6127-22.2363ZM40.5846-16.3434C40.5846-14.7033 41.6054-13.6978 43.2789-13.6978L49.0741-13.6978C50.7475-13.6978 51.7685-14.7033 51.7685-16.3434L51.7685-22.2363C51.7685-23.8764 50.7475-24.8973 49.0741-24.8973L43.2789-24.8973C41.6054-24.8973 40.5846-23.8764 40.5846-22.2363ZM56.4921-16.3434C56.4921-14.7188 57.5463-13.6978 59.202-13.6978L65.0304-13.6978C66.6706-13.6978 67.7248-14.7188 67.7248-16.3434L67.7248-22.2363C67.7248-23.8764 66.6706-24.8973 65.0304-24.8973L59.202-24.8973C57.5463-24.8973 56.4921-23.8764 56.4921-22.2363Z"/>
  </g>
  <g id="Medium-S" transform="matrix(1 0 0 1 1700.76 696)">
   <path d="M22.7178 0.847657L68.8789 0.847657C77.4482 0.847657 81.8311-3.53516 81.8311-11.9844L81.8311-58.4258C81.8311-66.875 77.4482-71.2578 68.8789-71.2578L22.7178-71.2578C14.1885-71.2578 9.76562-66.875 9.76562-58.4258L9.76562-11.9844C9.76562-3.53516 14.1885 0.847657 22.7178 0.847657ZM23.2022-7.50684C19.915-7.50684 18.0801-9.18653 18.0801-12.669L18.0801-57.7412C18.0801-61.1836 19.915-62.9033 23.2022-62.9033L68.3946-62.9033C71.6816-62.9033 73.5166-61.1836 73.5166-57.7412L73.5166-12.669C73.5166-9.18653 71.6816-7.50684 68.3946-7.50684ZM23.7636-48.6338C23.7636-47.0273 24.7442-46.0469 26.3906-46.0469L32.3409-46.0469C33.9961-46.0469 34.9765-47.0273 34.9765-48.6338L34.9765-54.6816C34.9765-56.2393 33.9961-57.2598 32.3409-57.2598L26.3906-57.2598C24.7442-57.2598 23.7636-56.2393 23.7636-54.6816ZM40.2207-48.6338C40.2207-47.0273 41.2011-46.0469 42.8477-46.0469L48.7979-46.0469C50.4443-46.0469 51.4248-47.0273 51.4248-48.6338L51.4248-54.6816C51.4248-56.2481 50.4443-57.2598 48.7979-57.2598L42.8477-57.2598C41.2011-57.2598 40.2207-56.2481 40.2207-54.6816ZM56.6201-48.6338C56.6201-47.0273 57.6407-46.0469 59.2559-46.0469L65.2461-46.0469C66.8525-46.0469 67.873-47.0273 67.873-48.6338L67.873-54.6816C67.873-56.2393 66.8525-57.2598 65.2461-57.2598L59.2559-57.2598C57.6407-57.2598 56.6201-56.2393 56.6201-54.6816ZM23.7636-32.1856C23.7636-30.6191 24.7442-29.6074 26.3906-29.6074L32.3409-29.6074C33.9961-29.6074 34.9765-30.6191 34.9765-32.1856L34.9765-38.2734C34.9765-39.8399 33.9961-40.8515 32.3409-40.8515L26.3906-40.8515C24.7442-40.8515 23.7636-39.8399 23.7636-38.2734ZM40.2207-32.1856C40.2207-30.6191 41.1924-29.6074 42.8477-29.6074L48.7979-29.6074C50.4531-29.6074 51.4248-30.6191 51.4248-32.1856L51.4248-38.2734C51.4248-39.8399 50.4531-40.8515 48.7979-40.8515L42.8477-40.8515C41.1924-40.8515 40.2207-39.8399 40.2207-38.2734ZM56.6201-32.1856C56.6201-30.6191 57.6407-29.6074 59.2559-29.6074L65.2461-29.6074C66.8525-29.6074 67.873-30.6191 67.873-32.1856L67.873-38.2734C67.873-39.8399 66.8525-40.8515 65.2461-40.8515L59.2559-40.8515C57.6407-40.8515 56.6201-39.8399 56.6201-38.2734ZM23.7636-15.7774C23.7636-14.1797 24.7442-13.1992 26.3906-13.1992L32.3409-13.1992C33.9961-13.1992 34.9765-14.1797 34.9765-15.7774L34.9765-21.8252C34.9765-23.4317 33.9961-24.4121 32.3409-24.4121L26.3906-24.4121C24.7442-24.4121 23.7636-23.4317 23.7636-21.8252ZM40.2207-15.7774C40.2207-14.1709 41.2011-13.1992 42.8477-13.1992L48.7979-13.1992C50.4443-13.1992 51.4248-14.1709 51.4248-15.7774L51.4248-21.8252C51.4248-23.4317 50.4443-24.4121 48.7979-24.4121L42.8477-24.4121C41.2011-24.4121 40.2207-23.4317 40.2207-21.8252ZM56.6201-15.7774C56.6201-14.1797 57.6407-13.1992 59.2559-13.1992L65.2461-13.1992C66.8525-13.1992 67.873-14.1797 67.873-15.7774L67.873-21.8252C67.873-23.4317 66.8525-24.4121 65.2461-24.4121L59.2559-24.4121C57.6407-24.4121 56.6201-23.4317 56.6201-21.8252Z"/>
  </g>
  <g id="Regular-S" transform="matrix(1 0 0 1 1404.51 696)">
   <path d="M22.2168 0.390625L68.457 0.390625C76.8066 0.390625 80.9082-3.71094 80.9082-11.9141L80.9082-58.4961C80.9082-66.6992 76.8066-70.8008 68.457-70.8008L22.2168-70.8008C13.916-70.8008 9.76562-66.6992 9.76562-58.4961L9.76562-11.9141C9.76562-3.71094 13.916 0.390625 22.2168 0.390625ZM22.3145-6.68945C18.7988-6.68945 16.7969-8.54492 16.7969-12.2559L16.7969-58.1543C16.7969-61.8164 18.7988-63.7207 22.3145-63.7207L68.3594-63.7207C71.875-63.7207 73.877-61.8164 73.877-58.1543L73.877-12.2559C73.877-8.54492 71.875-6.68945 68.3594-6.68945ZM22.6562-49.1699C22.6562-47.6074 23.584-46.6797 25.1953-46.6797L31.3477-46.6797C32.959-46.6797 33.8867-47.6074 33.8867-49.1699L33.8867-55.4199C33.8867-56.9336 32.959-57.9102 31.3477-57.9102L25.1953-57.9102C23.584-57.9102 22.6562-56.9336 22.6562-55.4199ZM39.7461-49.1699C39.7461-47.6074 40.6738-46.6797 42.2852-46.6797L48.4375-46.6797C50.0488-46.6797 50.9766-47.6074 50.9766-49.1699L50.9766-55.4199C50.9766-56.9336 50.0488-57.9102 48.4375-57.9102L42.2852-57.9102C40.6738-57.9102 39.7461-56.9336 39.7461-55.4199ZM56.7871-49.1699C56.7871-47.6074 57.7637-46.6797 59.3262-46.6797L65.5273-46.6797C67.0898-46.6797 68.0664-47.6074 68.0664-49.1699L68.0664-55.4199C68.0664-56.9336 67.0898-57.9102 65.5273-57.9102L59.3262-57.9102C57.7637-57.9102 56.7871-56.9336 56.7871-55.4199ZM22.6562-32.0801C22.6562-30.5664 23.584-29.5898 25.1953-29.5898L31.3477-29.5898C32.959-29.5898 33.8867-30.5664 33.8867-32.0801L33.8867-38.3789C33.8867-39.8926 32.959-40.8691 31.3477-40.8691L25.1953-40.8691C23.584-40.8691 22.6562-39.8926 22.6562-38.3789ZM39.7461-32.0801C39.7461-30.5664 40.6738-29.5898 42.2852-29.5898L48.4375-29.5898C50.0488-29.5898 50.9766-30.5664 50.9766-32.0801L50.9766-38.3789C50.9766-39.8926 50.0488-40.8691 48.4375-40.8691L42.2852-40.8691C40.6738-40.8691 39.7461-39.8926 39.7461-38.3789ZM56.7871-32.0801C56.7871-30.5664 57.7637-29.5898 59.3262-29.5898L65.5273-29.5898C67.0898-29.5898 68.0664-30.5664 68.0664-32.0801L68.0664-38.3789C68.0664-39.8926 67.0898-40.8691 65.5273-40.8691L59.3262-40.8691C57.7637-40.8691 56.7871-39.8926 56.7871-38.3789ZM22.6562-15.0391C22.6562-13.4766 23.584-12.5488 25.1953-12.5488L31.3477-12.5488C32.959-12.5488 33.8867-13.4766 33.8867-15.0391L33.8867-21.2891C33.8867-22.8516 32.959-23.7793 31.3477-23.7793L25.1953-23.7793C23.584-23.7793 22.6562-22.8516 22.6562-21.2891ZM39.7461-15.0391C39.7461-13.4766 40.6738-12.5488 42.2852-12.5488L48.4375-12.5488C50.0488-12.5488 50.9766-13.4766 50.9766-15.0391L50.9766-21.2891C50.9766-22.8516 50.0488-23.7793 48.4375-23.7793L42.2852-23.7793C40.6738-23.7793 39.7461-22.8516 39.7461-21.2891ZM56.7871-15.0391C56.7871-13.4766 57.7637-12.5488 59.3262-12.5488L65.5273-12.5488C67.0898-12.5488 68.0664-13.4766 68.0664-15.0391L68.0664-21.2891C68.0664-22.8516 67.0898-23.7793 65.5273-23.7793L59.3262-23.7793C57.7637-23.7793 56.7871-22.8516 56.7871-21.2891Z"/>
  </g>
  <g id="Light-S" transform="matrix(1 0 0 1 1108.46 696)">
   <path d="M21.3994-0.26025L67.9575-0.26025C75.7016-0.26025 79.5913-4.18017 79.5913-11.793L79.5913-58.5869C79.5913-66.1997 75.7016-70.1196 67.9575-70.1196L21.3994-70.1196C13.689-70.1196 9.76562-66.23 9.76562-58.5869L9.76562-11.793C9.76562-4.1499 13.689-0.26025 21.3994-0.26025ZM21.4971-5.72071C17.4214-5.72071 15.1924-7.84864 15.1924-12.0591L15.1924-58.3208C15.1924-62.4975 17.4214-64.6592 21.4971-64.6592L67.8599-64.6592C71.875-64.6592 74.1646-62.4975 74.1646-58.3208L74.1646-12.0591C74.1646-7.84864 71.875-5.72071 67.8599-5.72071ZM20.8852-49.6089C20.8852-47.895 21.9795-46.8159 23.7119-46.8159L30.2427-46.8159C31.9903-46.8159 33.0693-47.895 33.0693-49.6089L33.0693-56.207C33.0693-57.8721 31.9903-59 30.2427-59L23.7119-59C21.9795-59 20.8852-57.8721 20.8852-56.207ZM38.6109-49.6089C38.6109-47.895 39.7051-46.8159 41.4375-46.8159L47.9683-46.8159C49.7158-46.8159 50.7949-47.895 50.7949-49.6089L50.7949-56.207C50.7949-57.8721 49.7158-59 47.9683-59L41.4375-59C39.7051-59 38.6109-57.8721 38.6109-56.207ZM56.2876-49.6089C56.2876-47.895 57.4004-46.8159 59.1143-46.8159L65.6787-46.8159C67.3774-46.8159 68.5054-47.895 68.5054-49.6089L68.5054-56.207C68.5054-57.8721 67.3774-59 65.6787-59L59.1143-59C57.4004-59 56.2876-57.8721 56.2876-56.207ZM20.8852-31.8833C20.8852-30.2031 21.9795-29.0903 23.7119-29.0903L30.2427-29.0903C31.9903-29.0903 33.0693-30.2031 33.0693-31.8833L33.0693-38.5151C33.0693-40.1802 31.9903-41.3081 30.2427-41.3081L23.7119-41.3081C21.9795-41.3081 20.8852-40.1802 20.8852-38.5151ZM38.6109-31.8833C38.6109-30.2031 39.7051-29.0903 41.4375-29.0903L47.9683-29.0903C49.7158-29.0903 50.7949-30.2031 50.7949-31.8833L50.7949-38.5151C50.7949-40.1802 49.7158-41.3081 47.9683-41.3081L41.4375-41.3081C39.7051-41.3081 38.6109-40.1802 38.6109-38.5151ZM56.2876-31.8833C56.2876-30.2031 57.4004-29.0903 59.1143-29.0903L65.6787-29.0903C67.3774-29.0903 68.5054-30.2031 68.5054-31.8833L68.5054-38.5151C68.5054-40.1802 67.3774-41.3081 65.6787-41.3081L59.1143-41.3081C57.4004-41.3081 56.2876-40.1802 56.2876-38.5151ZM20.8852-14.2066C20.8852-12.5078 21.9795-11.4136 23.7119-11.4136L30.2427-11.4136C31.9903-11.4136 33.0693-12.5078 33.0693-14.2066L33.0693-20.8047C33.0693-22.5186 31.9903-23.5977 30.2427-23.5977L23.7119-23.5977C21.9795-23.5977 20.8852-22.5186 20.8852-20.8047ZM38.6109-14.2066C38.6109-12.5078 39.7051-11.4136 41.4375-11.4136L47.9683-11.4136C49.7158-11.4136 50.7949-12.5078 50.7949-14.2066L50.7949-20.8047C50.7949-22.5186 49.7158-23.5977 47.9683-23.5977L41.4375-23.5977C39.7051-23.5977 38.6109-22.5186 38.6109-20.8047ZM56.2876-14.2066C56.2876-12.5078 57.4004-11.4136 59.1143-11.4136L65.6787-11.4136C67.3774-11.4136 68.5054-12.5078 68.5054-14.2066L68.5054-20.8047C68.5054-22.5186 67.3774-23.5977 65.6787-23.5977L59.1143-23.5977C57.4004-23.5977 56.2876-22.5186 56.2876-20.8047Z"/>
  </g>
  <g id="Thin-S" transform="matrix(1 0 0 1 812.615 696)">
   <path d="M20.3184-1.12108L67.2969-1.12108C74.2402-1.12108 77.8497-4.80077 77.8497-11.6328L77.8497-58.7071C77.8497-65.5391 74.2402-69.2187 67.2969-69.2187L20.3184-69.2187C13.3887-69.2187 9.76562-65.6094 9.76562-58.7071L9.76562-11.6328C9.76562-4.73046 13.3887-1.12108 20.3184-1.12108ZM20.416-4.43947C15.5996-4.43947 13.0703-6.92775 13.0703-11.7988L13.0703-58.541C13.0703-63.3984 15.5996-65.9004 20.416-65.9004L67.1993-65.9004C71.875-65.9004 74.5449-63.3984 74.5449-58.541L74.5449-11.7988C74.5449-6.92775 71.875-4.43947 67.1993-4.43947ZM18.543-50.1894C18.543-48.2754 19.8574-46.9961 21.7501-46.9961L28.7812-46.9961C30.709-46.9961 31.9883-48.2754 31.9883-50.1894L31.9883-57.248C31.9883-59.1133 30.709-60.4414 28.7812-60.4414L21.7501-60.4414C19.8574-60.4414 18.543-59.1133 18.543-57.248ZM37.1094-50.1894C37.1094-48.2754 38.4238-46.9961 40.3164-46.9961L47.3477-46.9961C49.2754-46.9961 50.5547-48.2754 50.5547-50.1894L50.5547-57.248C50.5547-59.1133 49.2754-60.4414 47.3477-60.4414L40.3164-60.4414C38.4238-60.4414 37.1094-59.1133 37.1094-57.248ZM55.627-50.1894C55.627-48.2754 56.9199-46.9961 58.834-46.9961L65.8789-46.9961C67.7578-46.9961 69.0859-48.2754 69.0859-50.1894L69.0859-57.248C69.0859-59.1133 67.7578-60.4414 65.8789-60.4414L58.834-60.4414C56.9199-60.4414 55.627-59.1133 55.627-57.248ZM18.543-31.6231C18.543-29.7227 19.8574-28.4297 21.7501-28.4297L28.7812-28.4297C30.709-28.4297 31.9883-29.7227 31.9883-31.6231L31.9883-38.6953C31.9883-40.5606 30.709-41.8886 28.7812-41.8886L21.7501-41.8886C19.8574-41.8886 18.543-40.5606 18.543-38.6953ZM37.1094-31.6231C37.1094-29.7227 38.4238-28.4297 40.3164-28.4297L47.3477-28.4297C49.2754-28.4297 50.5547-29.7227 50.5547-31.6231L50.5547-38.6953C50.5547-40.5606 49.2754-41.8886 47.3477-41.8886L40.3164-41.8886C38.4238-41.8886 37.1094-40.5606 37.1094-38.6953ZM55.627-31.6231C55.627-29.7227 56.9199-28.4297 58.834-28.4297L65.8789-28.4297C67.7578-28.4297 69.0859-29.7227 69.0859-31.6231L69.0859-38.6953C69.0859-40.5606 67.7578-41.8886 65.8789-41.8886L58.834-41.8886C56.9199-41.8886 55.627-40.5606 55.627-38.6953ZM18.543-13.1055C18.543-11.2266 19.8574-9.91212 21.7501-9.91212L28.7812-9.91212C30.709-9.91212 31.9883-11.2266 31.9883-13.1055L31.9883-20.164C31.9883-22.0781 30.709-23.3574 28.7812-23.3574L21.7501-23.3574C19.8574-23.3574 18.543-22.0781 18.543-20.164ZM37.1094-13.1055C37.1094-11.2266 38.4238-9.91212 40.3164-9.91212L47.3477-9.91212C49.2754-9.91212 50.5547-11.2266 50.5547-13.1055L50.5547-20.164C50.5547-22.0781 49.2754-23.3574 47.3477-23.3574L40.3164-23.3574C38.4238-23.3574 37.1094-22.0781 37.1094-20.164ZM55.627-13.1055C55.627-11.2266 56.9199-9.91212 58.834-9.91212L65.8789-9.91212C67.7578-9.91212 69.0859-11.2266 69.0859-13.1055L69.0859-20.164C69.0859-22.0781 67.7578-23.3574 65.8789-23.3574L58.834-23.3574C56.9199-23.3574 55.627-22.0781 55.627-20.164Z"/>
  </g>
  <g id="Ultralight-S" transform="matrix(1 0 0 1 516.35 696)">
   <path d="M19.7647-1.562L66.9585-1.562C73.4917-1.562 76.9576-5.11864 76.9576-11.5508L76.9576-58.7686C76.9576-65.2007 73.4917-68.7573 66.9585-68.7573L19.7647-68.7573C13.2349-68.7573 9.76562-65.2915 9.76562-58.7686L9.76562-11.5508C9.76562-5.02782 13.2349-1.562 19.7647-1.562ZM19.8623-3.78323C14.6665-3.78323 11.9834-6.45607 11.9834-11.6655L11.9834-58.6538C11.9834-63.8598 14.6665-66.5361 19.8623-66.5361L66.8609-66.5361C71.875-66.5361 74.7397-63.8598 74.7397-58.6538L74.7397-11.6655C74.7397-6.45607 71.875-3.78323 66.8609-3.78323ZM17.3433-50.4868C17.3433-48.4702 18.7705-47.0884 20.7452-47.0884L28.0327-47.0884C30.0528-47.0884 31.4346-48.4702 31.4346-50.4868L31.4346-57.7812C31.4346-59.749 30.0528-61.1797 28.0327-61.1797L20.7452-61.1797C18.7705-61.1797 17.3433-59.749 17.3433-57.7812ZM36.3404-50.4868C36.3404-48.4702 37.7676-47.0884 39.7422-47.0884L47.0298-47.0884C49.0498-47.0884 50.4316-48.4702 50.4316-50.4868L50.4316-57.7812C50.4316-59.749 49.0498-61.1797 47.0298-61.1797L39.7422-61.1797C37.7676-61.1797 36.3404-59.749 36.3404-57.7812ZM55.2886-50.4868C55.2886-48.4702 56.6738-47.0884 58.6904-47.0884L65.9814-47.0884C67.9526-47.0884 69.3833-48.4702 69.3833-50.4868L69.3833-57.7812C69.3833-59.749 67.9526-61.1797 65.9814-61.1797L58.6904-61.1797C56.6738-61.1797 55.2886-59.749 55.2886-57.7812ZM17.3433-31.4898C17.3433-29.4766 18.7705-28.0913 20.7452-28.0913L28.0327-28.0913C30.0528-28.0913 31.4346-29.4766 31.4346-31.4898L31.4346-38.7876C31.4346-40.7554 30.0528-42.186 28.0327-42.186L20.7452-42.186C18.7705-42.186 17.3433-40.7554 17.3433-38.7876ZM36.3404-31.4898C36.3404-29.4766 37.7676-28.0913 39.7422-28.0913L47.0298-28.0913C49.0498-28.0913 50.4316-29.4766 50.4316-31.4898L50.4316-38.7876C50.4316-40.7554 49.0498-42.186 47.0298-42.186L39.7422-42.186C37.7676-42.186 36.3404-40.7554 36.3404-38.7876ZM55.2886-31.4898C55.2886-29.4766 56.6738-28.0913 58.6904-28.0913L65.9814-28.0913C67.9526-28.0913 69.3833-29.4766 69.3833-31.4898L69.3833-38.7876C69.3833-40.7554 67.9526-42.186 65.9814-42.186L58.6904-42.186C56.6738-42.186 55.2886-40.7554 55.2886-38.7876ZM17.3433-12.5415C17.3433-10.5703 18.7705-9.14309 20.7452-9.14309L28.0327-9.14309C30.0528-9.14309 31.4346-10.5703 31.4346-12.5415L31.4346-19.8359C31.4346-21.8525 30.0528-23.2344 28.0327-23.2344L20.7452-23.2344C18.7705-23.2344 17.3433-21.8525 17.3433-19.8359ZM36.3404-12.5415C36.3404-10.5703 37.7676-9.14309 39.7422-9.14309L47.0298-9.14309C49.0498-9.14309 50.4316-10.5703 50.4316-12.5415L50.4316-19.8359C50.4316-21.8525 49.0498-23.2344 47.0298-23.2344L39.7422-23.2344C37.7676-23.2344 36.3404-21.8525 36.3404-19.8359ZM55.2886-12.5415C55.2886-10.5703 56.6738-9.14309 58.6904-9.14309L65.9814-9.14309C67.9526-9.14309 69.3833-10.5703 69.3833-12.5415L69.3833-19.8359C69.3833-21.8525 67.9526-23.2344 65.9814-23.2344L58.6904-23.2344C56.6738-23.2344 55.2886-21.8525 55.2886-19.8359Z"/>
  </g>
 </g>
</svg>
